<svg width="700" height="280" xmlns="http://www.w3.org/2000/svg"><g fill="none" fill-rule="evenodd"><g transform="translate(38.90775 47)"><path d="M59.29341 105.0372c18.27823 13.3791 32.0356 67.31932 32.0356 67.31932 0 24.9369-17.92853 70.17921-40.0445 70.17921-22.11596 0-40.04448-45.2423-40.04448-70.17921 0 0 13.75736-53.94022 32.03559-67.31932v-7.0819c0-4.42006 3.57477-8.00323 8.0089-8.00323 4.42319 0 8.0089 3.57928 8.0089 8.00324v7.08189z" stroke="#4A4A4A" stroke-width="3" fill="#F6E5B7"/><path d="M25.33569 158.28602H10.43914c0-8.45082 5.93374-40.03519 11.74024-45.11822 7.64903-6.69598 19.14633.19658 29.9701.19658 10.85946 0 20.72003-7.053 28.31515-.12838 9.11023 8.30598 11.66526 31.76333 11.66526 45.05002H77.23334v84.53808s-2.06358-.28837-25.94882-.28837c-23.88524 0-25.94883.28837-25.94883.28837v-84.53808z" stroke="#4A4A4A" stroke-width="3" fill="#62CA7E"/><path d="M50.47686 1.95408h1.61534c26.09309 0 47.2457 21.68703 47.2457 48.4393-.00008 26.7522-21.15272 48.43922-47.2458 48.43922l-1.61524-.00008c-26.09309 0-47.24573-21.68703-47.24573-48.4393 0-26.75211 21.15264-48.43914 47.24573-48.43914z" stroke="#4A4A4A" stroke-width="3" fill="#F7E5B8"/><ellipse fill="#4A4A4A" cx="34.46583" cy="59.27387" rx="5.60623" ry="5.65125"/><ellipse fill="#4A4A4A" cx="68.1032" cy="59.27387" rx="5.60623" ry="5.65125"/><path d="M52.82518 0c27.73403 0 50.21684 22.91291 50.21684 51.17747-.0001 1.76656-5.3059 13.74765-5.3059 13.74765l1.02007-7.6036c-2.18883-10.90129-9.67643-17.5855-20.64025-21.6302-13.02314-4.80442-26.87563 10.6995-26.87563 10.6995s-13.37806-15.4724-26.5968-10.48833C13.86275 39.96733 6.68727 48.22248 4.5361 58.93617l.29681 5.18163S.53103 56.71722.02757 52.8153c-.17744-1.37522.55958-6.87048.55958-6.87048C3.15877 20.13832 24.54413 0 50.54475 0h2.28043z" stroke="#4A4A4A" stroke-width="3" fill="#D27A41"/><path d="M51.5524 102.06188c-5.66378 0-7.0228-11.34732-6.60498-11.113l1.78254 1.4825 8.6371-.0941 1.8354-1.52649c1.67134-.93716-1.11903 11.2511-5.65006 11.2511z" stroke="#4A4A4A" stroke-width="2" fill="#D27A41"/><path d="M37.6694 76.22761s6.0215 3.22929 14.94993 3.22929c8.92844 0 13.0812-3.22929 13.0812-3.22929" stroke="#4A4A4A" stroke-width="4" stroke-linecap="round" stroke-linejoin="bevel"/><rect fill="#844319" x="39.95773" y="12.44926" width="22.65357" height="2.42196" rx="1.21098"/><rect fill="#844319" x="37.44073" y="18.1005" width="27.68757" height="2.42196" rx="1.21098"/><rect fill="#844319" x="35.20956" y="23.75175" width="32.14992" height="2.42196" rx="1.21098"/></g><g transform="translate(562.90901 50)"><path d="M44.0252 113.57414c-17.94217 3.85673-31.44657 20.65458-31.44657 40.79246v46.25017c0 22.9889 17.59888 41.62507 39.3082 41.62507 21.70933 0 39.3082-18.63618 39.3082-41.62507V154.3666c0-20.13788-13.5044-36.93573-31.44656-40.79246v-7.43946c0-4.34162-3.51977-7.86676-7.86164-7.86676-4.33303 0-7.86164 3.52207-7.86164 7.86676v7.43946z" stroke="#4A4A4A" stroke-width="3" fill="#FBC27B"/><path d="M26.41511 154.19332H9.43397c0-12.57133 5.68373-24.06882 14.66904-31.90763 7.44592-6.49585 18.00812 5.51785 28.63288 5.51785 10.6598 0 19.5529-11.98739 27.00837-5.4535 8.94272 7.83731 14.59544 19.30631 14.59544 31.84328H77.35855v88.14734s-2.02564-.2721-25.47172-.2721c-23.44607 0-25.47172.2721-25.47172.2721v-88.14734z" stroke="#4A4A4A" stroke-width="3" fill="#9A43E6"/><path d="M4.71698 46.37688c0-22.66166 21.11866-26.57094 47.16984-26.57094 26.05119 0 47.16986 3.90928 47.16986 26.57094l-.00016 19.2379c0 22.66166-21.11865 41.03257-47.16983 41.03257-26.05105-.00011-47.1697-18.37101-47.1697-41.03268v-19.2378z" stroke="#4A4A4A" stroke-width="3" fill="#FAC27B"/><ellipse fill="#4A4A4A" cx="34.59122" cy="70.08255" rx="5.50315" ry="5.33237"/><ellipse fill="#4A4A4A" cx="67.61011" cy="70.08255" rx="5.50315" ry="5.33237"/><path d="M44.81136 68.55901s3.14465-.76176 6.2893-.76176c3.14466 0 6.28932.76176 6.28932.76176" stroke="#4A4A4A" stroke-width="2" stroke-linecap="square"/><path d="M78.61641 68.17813s10.25134-.06774 14.15096-.76177c2.52072-.44862 5.11006-2.66618 5.11006-2.66618M24.76417 68.55901s-9.46517.31315-13.36479-.38088c-2.52072-.44862-5.11007-2.66618-5.11007-2.66618" stroke="#4A4A4A" stroke-width="3" stroke-linecap="square"/><path d="M34.59122 79.22375c5.21024 0 9.43397-4.09266 9.43397-9.1412 0-5.04855-4.22373-9.1412-9.43397-9.1412-2.07468 0-3.99295.64892-5.5504 1.74872-2.35385 1.66218-3.88357 4.35423-3.88357 7.39248 0 5.04854 4.22373 9.1412 9.43397 9.1412zM67.61011 79.22375c5.21024 0 9.43397-4.09266 9.43397-9.1412 0-5.04855-4.22373-9.1412-9.43397-9.1412-5.21023 0-9.43396 4.09265-9.43396 9.1412 0 5.04854 4.22373 9.1412 9.43396 9.1412z" stroke="#4A4A4A" stroke-width="2"/><path d="M99.0567 48.94352V32.29849c0-9.29802-7.86258-16.83547-17.5616-16.83547H26.45814L26.3884 0C17.01257.0114 8.34536 4.68926 3.61292 12.29228c-4.8589 7.8061-4.81398 17.47666.1173 25.24265 3.60131 5.67145 9.3994 9.68026 16.02765 11.30363l6.85206.2954h64.5851v11.04562h7.86166V48.94352z" stroke="#4A4A4A" stroke-width="3" fill="#F6AC33"/><path d="M38.37569 85.31788h27.02229c1.38576 0 .08887 2.64865.08887 2.64865-2.9474 4.8364-7.93872 8.01609-13.60002 8.01609-5.66124 0-10.6526-3.1797-13.60001-8.01609 0 0-1.2969-2.64865.08887-2.64865z" fill="#D54D4C"/></g><path d="M168.67108 162.73076c16.77234 11.19313 27.03388 11.19313 55.90779 11.19313 29.14188 0 39.93413 0 55.90779-11.19313 1.299-.91024 0-54.61605 0-56.36538C280.48666 75.23564 255.45589 50 224.57886 50c-30.877 0-55.90778 25.23564-55.90778 56.36538 0 2.0195-1.50993 55.35772 0 56.36538z" stroke="#4A4A4A" stroke-width="3" fill="#FFEE5E"/><path d="M216.59204 161.51316c-18.22786 3.91815-31.9473 20.98347-31.9473 41.44202v46.98664c0 23.35496 17.87911 42.2879 39.93413 42.2879 22.05502 0 39.93413-18.93294 39.93413-42.2879v-46.98664c0-20.45855-13.71944-37.52387-31.9473-41.44202v-7.55792c0-4.41076-3.57583-7.99203-7.98683-7.99203-4.40203 0-7.98683 3.57815-7.98683 7.99203v7.55792z" stroke="#4A4A4A" stroke-width="3" fill="#AE742A"/><path d="M198.70155 202.95518l-17.25154-3.09558c0-12.77151 5.77424-21.3565 14.90261-29.32013 7.5645-6.59929 18.29489 5.60572 29.08883 5.60572 10.82953 0 19.86425-12.17827 27.43843-5.54034 9.08513 7.9621 14.82785 16.51814 14.82785 29.25475l-17.25154 3.09558v89.55097s-2.0579-.27644-25.87732-.27644-25.87732.27644-25.87732.27644v-89.55097z" stroke="#4A4A4A" stroke-width="3" fill="#DC597F"/><g transform="translate(176.6579 91.01653)"><path d="M0 26.99404C0 13.60393 7.25755 6.6582 18.53748 3.19007c1.97581-.60748 4.07504-1.10827 6.28029-1.5183C28.60879.9669 47.9208 10.47945 47.9208 10.47945S44.17914 0 47.92094 0c4.77683 0 20.8624 1.21271 24.09045 1.8629 14.25191 2.87055 23.83053 9.74817 23.83053 25.13114l-.00016-5.22045c0 23.02251-21.45494 41.68595-47.92095 41.68595C21.45493 63.45942 0 44.796 0 21.77347v5.22057z" stroke="#4A4A4A" stroke-width="3" fill="#AE742A"/><ellipse fill="#4A4A4A" cx="30.34994" cy="25.5386" rx="5.59078" ry="5.41728"/><ellipse fill="#4A4A4A" cx="63.89461" cy="25.5386" rx="5.59078" ry="5.41728"/><path d="M34.19467 37.92095h27.45258c1.40783 0 .09029 2.69082.09029 2.69082-2.99434 4.9134-8.06513 8.14373-13.81658 8.14373-5.7514 0-10.82224-3.23032-13.81658-8.14373 0 0-1.31754-2.69082.09029-2.69082z" fill="#4A4A4A"/></g><g><path d="M347.01 158.16713c-17.99858 3.86886-31.54545 20.71953-31.54545 40.92074v46.3956c0 23.0612 17.65422 41.75598 39.43181 41.75598 21.7776 0 39.43182-18.69479 39.43182-41.75597v-46.39561c0-20.20121-13.54687-37.05188-31.54545-40.92074v-7.46286c0-4.35527-3.53085-7.8915-7.88637-7.8915-4.34665 0-7.88636 3.53315-7.88636 7.8915v7.46286z" stroke="#4A4A4A" stroke-width="3" fill="#CD9C5E"/><path d="M331.75698 162.49493c1.49964-1.30829 2.93454-1.15965 4.35652-.08638 5.66058 4.27246 11.11628 23.19731 19.63459 23.19731 10.69332 0 14.88257-29.60081 22.36148-23.04638 8.97085 7.86195 2.33861 124.95292 2.33861 124.95292s-2.03201-.27295-25.55182-.27295c-23.5198 0-25.55182.27295-25.55182.27295s-6.60111-117.15402 2.41244-125.01747z" stroke="#4A4A4A" stroke-width="3" fill="#FFEB58"/><path d="M307.57818 90.75855c0-22.73292 21.18506-26.6545 47.31817-26.6545 26.1331 0 47.3182 3.92158 47.3182 26.6545l-.00017 19.2984c0 22.73293-21.18506 41.1616-47.31816 41.1616-26.13298-.0001-47.31804-18.42878-47.31804-41.16171V90.75855z" stroke="#4A4A4A" stroke-width="3" fill="#CD9C5E"/><path d="M342.07732 116.83126c.62372-.86644.9895-1.92015.9895-3.05665 0-2.95425-2.4716-5.34914-5.52046-5.34914s-5.52045 2.39489-5.52045 5.34914c0 1.1365.36578 2.19021.9895 3.05665.99757-1.3858 2.65499-2.2925 4.53095-2.2925 1.87597 0 3.53338.9067 4.53096 2.2925zM375.20005 116.83126c.62371-.86644.9895-1.92015.9895-3.05665 0-2.95425-2.4716-5.34914-5.52046-5.34914s-5.52045 2.39489-5.52045 5.34914c0 1.1365.36578 2.19021.98949 3.05665.99758-1.3858 2.655-2.2925 4.53096-2.2925 1.87596 0 3.53338.9067 4.53096 2.2925z" fill="#4A4A4A"/><path d="M347.79864 113.39253s3.15454-.76417 6.30909-.76417c3.15454 0 6.30909.76417 6.30909.76417" stroke="#4A4A4A" stroke-width="3" stroke-linecap="square"/><path d="M381.71 113.01044s10.28357-.06795 14.19545-.76416c2.52865-.45003 5.12614-2.67457 5.12614-2.67457M327.2941 113.01044s-9.49495.31413-13.40683-.38208c-2.52865-.45003-5.12613-2.67456-5.12613-2.67456" stroke="#4A4A4A" stroke-width="5" stroke-linecap="square"/><path d="M337.54636 132.1145s2.3109 5.34914 16.92817 5.34914c14.61729 0 17.77183-5.34914 17.77183-5.34914" stroke="#4A4A4A" stroke-width="6" stroke-linecap="round"/><path d="M337.54636 123.70872c5.22662 0 9.46364-4.10553 9.46364-9.16995s-4.23702-9.16995-9.46364-9.16995c-2.0812 0-4.0055.65097-5.56786 1.75423-2.36125 1.6674-3.89577 4.36792-3.89577 7.41572 0 5.06442 4.23701 9.16995 9.46363 9.16995zM370.66909 123.70872c5.22662 0 9.46364-4.10553 9.46364-9.16995s-4.23702-9.16995-9.46364-9.16995-9.46364 4.10553-9.46364 9.16995 4.23702 9.16995 9.46364 9.16995z" stroke="#4A4A4A" stroke-width="3"/><path d="M307.57817 94.09743V77.40006c0-9.32726 7.8873-16.8884 17.61681-16.8884h55.21004L380.47497 45c9.40532.01144 18.0998 4.704 22.8471 12.33094 4.8742 7.83065 4.82913 17.53161-.11766 25.32203-3.61264 5.68927-9.42895 9.7107-16.07805 11.33917l-6.8736.29633h-64.78821v11.08035h-7.88638v-11.2714z" stroke="#4A4A4A" stroke-width="3" fill="#4A4A4A"/></g><g><path d="M476.6703 156.51316c-17.52149 3.91815-30.70927 20.98347-30.70927 41.44202v46.98664c0 23.35496 17.18626 42.2879 38.3866 42.2879 21.20033 0 38.38659-18.93294 38.38659-42.2879v-46.98664c0-20.45855-13.18779-37.52387-30.70928-41.44202v-7.87806c0-4.2408-3.43725-7.6719-7.67732-7.6719-4.23144 0-7.67732 3.43483-7.67732 7.6719v7.87806z" stroke="#4A4A4A" stroke-width="3" fill="#FBDEBA"/><path d="M459.47311 197.95518l-16.583-3.09558c0-12.77151 5.55047-21.3565 14.3251-29.32013 7.27135-6.59929 17.58591 5.60572 27.96156 5.60572 10.40987 0 19.09447-12.17827 26.37514-5.54034 8.73306 7.9621 14.25323 16.51814 14.25323 29.25475l-16.583 3.09558v89.55097s-1.97816-.27644-24.87452-.27644-24.87451.27644-24.87451.27644v-89.55097z" stroke="#4A4A4A" stroke-width="3" fill="#4A9CD0"/><g transform="translate(426 45)"><path d="M57.5734 11.60845h1.54847c25.0128 0 45.28966 20.78916 45.28966 46.43385-.00007 25.64462-20.27696 46.43377-45.28976 46.43377l-1.54836-.00008c-25.0128 0-45.2897-20.78915-45.2897-46.43385 0-25.64453 20.2769-46.43369 45.2897-46.43369z" stroke="#4A4A4A" stroke-width="3" fill="#FBDEBA"/><path d="M45.15326 78.93748h26.38873c1.35327 0 .08678 2.69082.08678 2.69082-2.8783 4.9134-7.75258 8.14373-13.28115 8.14373-5.52851 0-10.40285-3.23032-13.28115-8.14373 0 0-1.26648-2.69082.08679-2.69082z" fill="#D54D4C"/><ellipse fill="#4A4A4A" cx="42.22525" cy="66.55513" rx="5.37412" ry="5.41728"/><ellipse fill="#4A4A4A" cx="74.46999" cy="66.55513" rx="5.37412" ry="5.41728"/><path d="M103.42083 33.60441c5.84946 2.62823 11.04577 9.48238 11.04577 15.27222 0 1.83322-.37704 3.57963-1.0587 5.1681l-2.24616 3.28309 2.70357 1.79645c2.22281 2.19056 3.59767 5.21681 3.59767 8.5596 0 3.3428-1.37486 6.36918-3.59767 8.55987l-3.09765 2.05812.1101.02201c2.7583 1.14942 4.69376 3.84088 4.69376 6.9781 0 3.13723-3.00798 8.2432-3.00798 8.2432 1.17578 1.15855 1.90298 2.75963 1.90298 4.52764 0 3.53629-2.90894 6.40326-6.49732 6.40326-3.58845 0-6.49739-2.86697-6.49739-6.40326 0-1.76801.7272-3.3691 1.90298-4.52764 0 0-3.17334-5.10597-3.17334-8.2432 0-2.09139.19715-6.46418.19715-6.46418a12.30573 12.30573 0 0 1-.6335-.28529c1.4875-3.09256 2.6491-6.37945 3.43884-9.81352.78973-3.43408 1.20758-7.01535 1.2076-10.69668 0-.3284-.00333-.656-.00995-.98278-6.21202-.37614-18.37587-1.28159-24.55747-2.88674-11.01448-2.8601-30.19849-12.12207-30.19849-12.12207s-24.99016 18.48894-35.6659 20.41146l-1.48273.11539c.54227 5.7354 2.10225 11.1654 4.49248 16.09784a11.83179 11.83179 0 0 1-.36266.1624s.19204 4.37278.19204 6.46418c0 3.13722-3.092 8.24319-3.092 8.24319 1.14564 1.15855 1.85421 2.75963 1.85421 4.52764 0 3.53629-2.83435 6.40326-6.33077 6.40326s-6.33078-2.86697-6.33078-6.40326c0-1.76801.70858-3.3691 1.85422-4.52764 0 0-2.9308-5.10597-2.9308-8.2432 0-3.13722 1.88578-5.82868 4.57334-6.9781l.10733-.022-3.01823-2.05813C1.3396 74.05305 0 71.02667 0 67.68387c0-3.34279 1.3396-6.36904 3.50538-8.5596l2.63429-1.79645-2.18853-3.28309c-.66426-1.58847-1.03162-3.33488-1.03162-5.1681 0-5.64341 4.8452-12.29798 10.38253-15.06479 1.07024-2.8396 2.39495-5.664 3.97916-8.42996C26.24203 9.73671 40.96017.40444 54.2629.5011l6.08852-.48663c20.7636 1.3211 38.54506 14.6901 43.0694 33.58994z" stroke="#4A4A4A" stroke-width="3" fill="#D54D4C"/></g></g></g></svg>