<?xml version="1.0" encoding="UTF-8" standalone="no"?>
<svg width="200px" height="200px" viewBox="0 0 200 200" version="1.1" xmlns="http://www.w3.org/2000/svg" xmlns:xlink="http://www.w3.org/1999/xlink">
    <!-- Generator: Sketch 41.2 (35397) - http://www.bohemiancoding.com/sketch -->
    <title>Resources BW</title>
    <desc>Created with Sketch.</desc>
    <defs>
        <rect id="path-1" x="40" y="60" width="120" height="80" rx="8"></rect>
        <mask id="mask-2" maskContentUnits="userSpaceOnUse" maskUnits="objectBoundingBox" x="0" y="0" width="120" height="80" fill="white">
            <use xlink:href="#path-1"></use>
        </mask>
        <path d="M0.70760862,32.2401691 C-0.0989577536,36.5258054 1.93871688,40 5.26656023,40 L128.73344,40 C132.057846,40 134.09791,36.5202361 133.292391,32.2401691 L128.685137,7.75983088 C127.87857,3.47419462 124.525778,0 121.200081,0 L12.7999194,0 C9.47260343,0 6.12038152,3.47976387 5.31486329,7.75983088 L0.70760862,32.2401691" id="path-3"></path>
        <mask id="mask-4" maskContentUnits="userSpaceOnUse" maskUnits="objectBoundingBox" x="0" y="0" width="132.93676" height="40" fill="white">
            <use xlink:href="#path-3"></use>
        </mask>
        <path d="M177.166667,60.4328884 C171.391689,60.4328887 166.710145,53.2364235 166.710145,44.3531355 L166.710145,46.9960536 C166.710145,42.5799551 163.12046,39 158.710892,39 L119.999253,39 C115.581388,39 112,42.5815896 112,46.994441 L112,63.179472 C112,67.5946799 115.589349,71.173913 119.995394,71.173913 L150.288075,71.173913 C159.177868,71.173913 171.491389,66.0864946 177.166667,60.4328884 L177.166667,60.4328884 L177.166667,60.4328884" id="path-5"></path>
        <mask id="mask-6" maskContentUnits="userSpaceOnUse" maskUnits="objectBoundingBox" x="0" y="0" width="65.1666667" height="32.173913" fill="white">
            <use xlink:href="#path-5"></use>
        </mask>
        <path d="M0.0378942808,12.4197384 C0.0378942808,6.01548382 17.7004795,10.6423843 17.7004795,10.6423843 C22.6468973,11.6239898 24.64106,15.9726058 21.8240791,20.172205 C21.8240791,20.172205 18.5765049,28.3556719 11.5590473,27.5417751 C4.54158967,26.7278783 0.0378942809,18.8239929 0.0378942808,12.4197384 Z" id="path-7"></path>
        <mask id="mask-8" maskContentUnits="userSpaceOnUse" maskUnits="objectBoundingBox" x="0" y="0" width="23.0743312" height="18.5723619" fill="white">
            <use xlink:href="#path-7"></use>
        </mask>
        <path d="M25.9839184,12.2655812 C25.9839184,5.86132665 43.4979314,10.4639625 43.4979314,10.4639625 C48.5264034,11.458969 50.5509506,15.8774852 47.685475,20.1318108 C47.685475,20.1318108 44.5225291,28.2015147 37.5050714,27.3876179 C30.4876138,26.5737211 25.9839184,18.6698357 25.9839184,12.2655812 Z" id="path-9"></path>
        <mask id="mask-10" maskContentUnits="userSpaceOnUse" maskUnits="objectBoundingBox" x="0" y="0" width="23.0128829" height="18.5819928" fill="white">
            <use xlink:href="#path-9"></use>
        </mask>
    </defs>
    <g id="Slices" stroke="none" stroke-width="1" fill="none" fill-rule="evenodd">
        <g id="Resources-BW">
            <use id="Rectangle" stroke="#4A4A4A" mask="url(#mask-2)" stroke-width="6" xlink:href="#path-1"></use>
            <g id="Group" transform="translate(33.000000, 140.000000)">
                <use id="Rectangle" stroke="#4A4A4A" mask="url(#mask-4)" stroke-width="6" xlink:href="#path-3"></use>
                <rect id="Rectangle-2" fill="#4A4A4A" x="23.3370787" y="9" width="12.0449438" height="8" rx="4"></rect>
                <path d="M13.2744083,10.4673233 C13.4269236,9.65694302 14.2249716,9 15.0542162,9 L18.8221883,9 C19.6526337,9 20.3258427,9.66831553 20.3258427,10.5047388 L20.3258427,15.4952612 C20.3258427,16.3263055 19.648182,17 18.8262344,17 L13.5445521,17 C12.7163413,17 12.1681549,16.3453264 12.3210974,15.5326767 L13.2744083,10.4673233 Z" id="Rectangle-2" fill="#4A4A4A"></path>
                <path d="M11.0159813,24.4673233 C11.1684967,23.656943 11.961579,23 12.7990652,23 L33.8750921,23 C34.7073468,23 35.3820225,23.6683155 35.3820225,24.5047388 L35.3820225,29.4952612 C35.3820225,30.3263055 34.7105612,31 33.8764644,31 L11.2920749,31 C10.4605782,31 9.90972789,30.3453264 10.0626704,29.5326767 L11.0159813,24.4673233 Z" id="Rectangle-2" fill="#4A4A4A"></path>
                <rect id="Rectangle-2" fill="#4A4A4A" x="38.3932584" y="9" width="12.0449438" height="8" rx="4"></rect>
                <rect id="Rectangle-2" fill="#4A4A4A" x="38.3932584" y="23" width="12.0449438" height="8" rx="4"></rect>
                <rect id="Rectangle-2" fill="#4A4A4A" x="53.4494382" y="9" width="12.0449438" height="8" rx="4"></rect>
                <rect id="Rectangle-2" fill="#4A4A4A" x="53.4494382" y="23" width="27.1011236" height="8" rx="4"></rect>
                <rect id="Rectangle-2" fill="#4A4A4A" x="68.505618" y="9" width="12.0449438" height="8" rx="4"></rect>
                <rect id="Rectangle-2" fill="#4A4A4A" x="98.6179775" y="9" width="12.0449438" height="8" rx="4"></rect>
                <path d="M98.6179775,24.5047388 C98.6179775,23.6736945 99.2874217,23 100.124908,23 L121.200935,23 C122.033189,23 122.831076,23.6546736 122.984019,24.4673233 L123.93733,29.5326767 C124.089845,30.343057 123.542022,31 122.707925,31 L100.123536,31 C99.2920388,31 98.6179775,30.3316845 98.6179775,29.4952612 L98.6179775,24.5047388 Z" id="Rectangle-2" fill="#4A4A4A"></path>
                <rect id="Rectangle-2" fill="#4A4A4A" x="83.5617978" y="9" width="12.0449438" height="8" rx="4"></rect>
                <rect id="Rectangle-2" fill="#4A4A4A" x="83.5617978" y="23" width="12.0449438" height="8" rx="4"></rect>
                <path d="M113.543029,10.5047388 C113.543029,9.67369451 114.217438,9 115.046683,9 L118.814655,9 C119.6451,9 120.44152,9.65467358 120.594463,10.4673233 L121.547774,15.5326767 C121.700289,16.343057 121.146267,17 120.324319,17 L115.042637,17 C114.214426,17 113.543029,16.3316845 113.543029,15.4952612 L113.543029,10.5047388 Z" id="Rectangle-2" fill="#4A4A4A"></path>
            </g>
            <path d="M66.7049191,47.3748938 C66.9454926,46.4578763 67.0735372,45.4957656 67.0735372,44.5039653 C67.0735372,38.230822 61.9510189,33.1454345 55.6320722,33.1454345 C52.6250817,33.1454345 49.8890238,34.297027 47.8469785,36.1801987 C45.8602579,31.0818865 40.8741776,27.4661691 35.0374352,27.4661691 C27.4546993,27.4661691 21.3076772,33.5686341 21.3076772,41.0964061 C21.3076772,42.3995527 21.4918895,43.6599862 21.8358727,44.8534424 C15.7230079,47.2196447 11.3917409,53.1213233 11.3917409,60.0272907 C11.3917409,69.0187962 18.7340172,76.3078515 27.7911741,76.3078515 C30.8809778,76.3078515 33.7712039,75.459552 36.2384311,73.9847545 C38.504563,75.6808776 41.324639,76.6864692 44.3812983,76.6864692 C47.8586102,76.6864692 51.0297416,75.3850571 53.4274494,73.2460891 C55.9377484,75.1660318 59.0830331,76.3078515 62.4969512,76.3078515 C70.7115819,76.3078515 77.3708557,69.6968479 77.3708557,61.5417615 C77.3708557,54.8375482 72.8703078,49.1768749 66.7049191,47.3748938 Z" id="Combined-Shape" stroke="#4A4A4A" stroke-width="4" fill="#FFFFFF" transform="translate(44.381298, 52.076319) rotate(-6.000000) translate(-44.381298, -52.076319) "></path>
            <g id="hack-strikes-back" transform="translate(150.042014, 105.023846) rotate(14.000000) translate(-150.042014, -105.023846) translate(114.542014, 86.023846)" fill="#4A4A4A">
                <g id="svg2" transform="translate(0.000000, -0.000000)">
                    <g id="layer1" transform="translate(0.080373, 0.045116)">
                        <path d="M13.638512,0.10546712 C11.9950458,0.0998873628 11.177063,0.87740626 10.8291078,2.18550531 L10.6845415,2.72742473 L10.4435978,2.72742473 C8.68828742,2.72682243 7.11891471,4.46469764 6.66078078,6.18699964 L0.136023815,30.7136922 C-0.211625876,32.0206393 0.918944998,34.1487693 3.00807341,34.1442358 L40.8349095,34.0756659 L40.8408156,34.3882141 C40.8355109,35.4525733 41.4940098,36.8524193 43.045003,36.8907438 L55.1162853,36.8713895 C56.6672784,36.9097156 58.1771777,36.1333309 58.4861902,34.9716352 L58.7415906,34.0281148 L60.1375532,34.023284 C62.0536952,34.019119 63.0839939,32.9281732 63.848087,30.0556596 L69.7688177,6.55473533 C70.2269454,4.83242868 68.791815,2.74739833 67.0365077,2.746779 L28.0604956,2.75963487 L28.686405,2.15813714 C29.5117588,1.42102236 29.0398992,0.157755997 27.8903669,0.153853248 L13.638512,0.10546712 Z" id="rect3004-3"></path>
                    </g>
                </g>
            </g>
            <use id="Rectangle-11" stroke="#4A4A4A" mask="url(#mask-6)" stroke-width="6" fill="#FFFFFF" xlink:href="#path-5"></use>
            <g id="Group-2" transform="translate(29.374356, 132.217622) rotate(-60.000000) translate(-29.374356, -132.217622) translate(4.874356, 118.217622)">
                <path d="M42.5287264,3.60953577 C41.8233811,2.82284279 38.7186471,4.16359231 36.3992173,3.58909541 C35.0211664,3.24776755 34.3356741,1.74505667 34.5074698,1.30801963 C34.9684189,0.13539531 39.9004966,0.145211323 39.9004966,0.145211323 C42.6552076,-0.00851417852 45.539875,2.00840545 46.3454092,4.65613484 L48.3959452,11.3960903 L45.962036,11.3960903 C45.962036,11.3960903 43.3060568,4.47651601 42.5287264,3.60953577 Z" id="Rectangle-4" fill="#4A4A4A"></path>
                <path d="M8.65218314,3.60799105 C7.94683789,2.82129806 4.84210388,4.16204759 2.52267413,3.58755068 C1.14462321,3.24622282 0.459130876,1.74351195 0.63092659,1.30647491 C1.09187569,0.133850586 6.02395338,0.1436666 6.02395338,0.1436666 C8.77866441,-0.0100589019 11.6633318,2.00686073 12.468866,4.65459011 L14.519402,11.3945456 L12.0854928,11.3945456 C12.0854928,11.3945456 9.42951358,4.47497129 8.65218314,3.60799105 Z" id="Rectangle-4" fill="#4A4A4A" transform="translate(7.562170, 5.764989) scale(-1, 1) translate(-7.562170, -5.764989) "></path>
                <rect id="Rectangle-3" fill="#4A4A4A" x="19.962963" y="12.7826087" width="7.86419753" height="4.26086957" rx="2.13043478"></rect>
                <use id="Rectangle-10" stroke="#4A4A4A" mask="url(#mask-8)" stroke-width="6" fill="#FFFFFF" xlink:href="#path-7"></use>
                <use id="Rectangle-10" stroke="#4A4A4A" mask="url(#mask-10)" stroke-width="6" fill="#FFFFFF" transform="translate(37.490360, 18.154294) scale(-1, 1) translate(-37.490360, -18.154294) " xlink:href="#path-9"></use>
            </g>
            <circle id="Oval-2" fill="#4A4A4A" cx="66.5" cy="78.5" r="9.5"></circle>
            <circle id="Oval-2" fill="#4A4A4A" cx="78.5" cy="100.5" r="9.5"></circle>
            <circle id="Oval-2" fill="#4A4A4A" cx="69.5" cy="122.5" r="9.5"></circle>
            <path d="M67.5206542,83 L65.8587402,83 L65.8587402,77.6793946 C65.8587402,77.1006157 65.8876787,76.4350299 65.9455566,75.6826173 C65.9166177,75.7239586 65.8101653,75.8500479 65.6261962,76.0608888 C65.4422272,76.2717297 65.0835964,76.6499974 64.5502929,77.1957032 L63.6077148,76.1663087 L66.0199707,73.9338869 L67.5206542,73.9338869 L67.5206542,83 Z" id="1" fill="#FFFFFF"></path>
            <path d="M80.9423339,105.196338 L76.0806152,105.196338 L76.0806152,103.9375 L77.6929199,101.655469 C78.1352724,101.02708 78.4391267,100.560963 78.6044921,100.257104 C78.7698576,99.9532455 78.8918127,99.6617933 78.9703613,99.3827392 C79.0489099,99.1036851 79.0881835,98.8153335 79.0881835,98.5176757 C79.0881835,98.1704084 79.0106697,97.9099618 78.8556396,97.7363281 C78.7006095,97.5626944 78.4990735,97.4758789 78.2510254,97.4758789 C78.0319162,97.4758789 77.8272796,97.5337559 77.6371094,97.6495117 C77.4469391,97.7652675 77.215431,97.9740382 76.9425781,98.27583 L76,97.2836426 C76.4340842,96.7916805 76.8371563,96.4547535 77.2092285,96.2728516 C77.5813007,96.0909496 77.9843728,96 78.418457,96 C79.1501989,96 79.7217345,96.2149718 80.133081,96.6449219 C80.5444274,97.0748719 80.7500976,97.6722455 80.7500976,98.4370605 C80.7500976,98.7843279 80.7128909,99.1129867 80.6384765,99.4230468 C80.5640621,99.733107 80.4514086,100.044196 80.3005126,100.356323 C80.1496167,100.66845 79.9604828,100.992975 79.7331054,101.329907 C79.505728,101.666839 78.9186896,102.438877 77.9719726,103.646045 L77.9719726,103.695654 L80.9423339,103.695654 L80.9423339,105.196338 Z" id="2" fill="#FFFFFF"></path>
            <path d="M72.1407714,119.974072 C72.1407714,120.544583 72.0002129,121.023102 71.7190917,121.409644 C71.4379705,121.796185 71.0410995,122.063867 70.5284667,122.212695 L70.5284667,122.262305 C71.0989774,122.353256 71.5402897,122.576496 71.8524169,122.932031 C72.1645441,123.287567 72.3206054,123.771253 72.3206054,124.383106 C72.3206054,125.218201 72.0611923,125.883787 71.5423583,126.379883 C71.0235244,126.875979 70.3134973,127.124023 69.4122558,127.124023 C68.6102336,127.124023 67.9363797,126.981398 67.3906738,126.696143 L67.3906738,125.183057 C67.6635267,125.348422 67.959113,125.478645 68.2774414,125.57373 C68.5957698,125.668816 68.9016912,125.716357 69.1952148,125.716357 C69.6747745,125.716357 70.0365059,125.605771 70.2804199,125.384595 C70.5243338,125.163419 70.646289,124.813056 70.646289,124.333496 C70.646289,123.428121 70.0902562,122.97544 68.9781738,122.97544 L68.4634765,122.97544 L68.4634765,121.716602 L68.9533691,121.716602 C69.4453312,121.716602 69.8225654,121.600848 70.085083,121.369336 C70.3476005,121.137824 70.4788574,120.792629 70.4788574,120.33374 C70.4788574,119.974071 70.3951424,119.702255 70.2277099,119.518286 C70.0602774,119.334317 69.8236017,119.242334 69.5176757,119.242334 C69.0505185,119.242334 68.5957704,119.44077 68.153418,119.837647 L67.3906738,118.721436 C68.0025258,118.109584 68.7735305,117.803662 69.7037109,117.803662 C70.4685259,117.803662 71.0658995,117.99693 71.4958495,118.383472 C71.9257996,118.770013 72.1407714,119.300208 72.1407714,119.974072 L72.1407714,119.974072 Z" id="3" fill="#FFFFFF"></path>
            <rect id="Rectangle-9" fill="#4A4A4A" x="82" y="74" width="33" height="6"></rect>
            <rect id="Rectangle-9" fill="#4A4A4A" x="83.5" y="120" width="36.5" height="6"></rect>
            <rect id="Rectangle-9" fill="#4A4A4A" x="92" y="97" width="16" height="6"></rect>
            <path d="" id="Path-4" stroke="#979797"></path>
            <path d="M121.268547,57.5561752 C121.399676,55.8743465 120.362949,51.429931 121.661933,52.5106891 L123.950655,49.1747515 C126.259081,51.0953682 124.879302,56.0578999 127.559026,57.4170859 C129.313978,58.3072169 129.801709,51.8648467 131.430147,52.968433 C134.05012,54.7439783 131.289578,61.0657877 134.316697,61.9967329 C136.958193,62.8090853 136.656057,54.595175 139.303026,55.3896188 C142.124537,56.2364488 138.657821,65.7060328 141.074368,64.0249359 C145.456467,60.9764809 145.19838,54.1731966 147.767089,49.5015011 C148.016922,49.0471327 148.817819,48.8641453 149.275683,49.1092543 C151.045228,50.056548 152.425228,51.5952013 154,52.8381747" id="Path-5" stroke="#4A4A4A" stroke-width="2"></path>
        </g>
    </g>
</svg>