<?xml version="1.0" standalone="no"?>
<!DOCTYPE svg PUBLIC "-//W3C//DTD SVG 1.1//EN" "http://www.w3.org/Graphics/SVG/1.1/DTD/svg11.dtd">
<svg width="100%" height="100%" viewBox="0 0 1366 768" version="1.1" xmlns="http://www.w3.org/2000/svg" xmlns:xlink="http://www.w3.org/1999/xlink" xml:space="preserve" style="fill-rule:evenodd;clip-rule:evenodd;stroke-linejoin:round;stroke-miterlimit:1.41421;">
    <g id="Layer_2">
        <g transform="matrix(1.47896,0,0,1.53386,-90.158,-164.473)">
            <path d="M957.7,607.9C1018.5,526.1 955.6,372.7 955.6,372.7C923.5,446 857.1,470.8 766.9,435.4C663.6,395 670.7,329.2 688.3,280C705.9,230.8 644.3,171.3 521.5,188.4C398.7,205.5 434.3,312.7 434.3,312.7C404.3,328.7 338.4,406 424.2,451.7C510,497.5 457,533 447.2,533.9C369.5,540.4 342.8,420.1 271.2,450.8C121.1,515.5 110,570.6 132,607.9L957.7,607.9Z" style="fill:rgb(55,218,231);fill-rule:nonzero;"/>
        </g>
        <g transform="matrix(1.47896,0,0,1.53386,-90.158,-164.473)">
            <path d="M213.7,514.7C197.4,523 129.3,495.7 117,508.7C101.3,525.3 171,600.7 287,592.7C273.4,594.5 258,600.5 248.5,608L472.9,608.1C481.8,598.6 497.4,575.1 477.7,556.1C471.5,550.1 469.6,548.5 466.4,546.8C435.3,530.1 391.7,491.5 355.7,445.5C317.9,397.2 243.8,407 231.7,406.8C218.5,406.7 144.2,395.2 99,358.8C52.6,321.4 57.3,392.1 69,410.8C81.6,430.9 108.3,465.2 213.7,514.7Z" style="fill:rgb(229,255,255);fill-rule:nonzero;"/>
        </g>
        <g transform="matrix(1.47896,0,0,1.53386,-90.158,-164.473)">
            <path d="M665.2,574.3C632.9,527.2 611.2,487.5 598.2,449.3C627.3,429 643.9,390.8 637.8,350.2C633.8,323.6 620.8,300.9 602.8,285.4C615.5,300.1 624.6,318.9 627.8,340.2C633.5,378.1 619.3,414 593.7,435.1C593.5,434.5 593.4,433.9 593.2,433.3L587.6,435.4C587.9,436.6 588.3,437.8 588.7,438.9C578.2,446.4 566,451.5 552.6,453.5C526.8,457.4 501.7,448.9 482.3,432.1C502.5,455.3 532,468.1 562.6,463.5C573.7,461.8 584,458 593.2,452.5C607,491.3 629.1,528.1 664.6,577.8L665.2,574.3Z" style="fill:black;fill-opacity:0.05;fill-rule:nonzero;"/>
        </g>
        <g transform="matrix(1.47896,0,0,1.53386,-90.158,-164.473)">
            <path d="M510.7,607.9L684.3,607.9C636.4,541.7 600.6,481.9 586.7,432.2L523,445.8C523,445.8 538.5,509.5 516.1,585C513.7,593.3 511.9,600.9 510.7,607.9Z" style="fill:rgb(229,255,255);fill-rule:nonzero;"/>
        </g>
        <g transform="matrix(1.47896,0,0,1.53386,-90.158,-164.473)">
            <path d="M674.9,396.9C704.9,343.4 772.9,340.1 784.8,338.1C797.9,336 869.5,313.3 908.6,270.5C948.8,226.5 954.9,297.1 946.2,317.4C936.8,339.3 915.6,377.3 819,442.2C836.4,448 899.5,410.6 913.6,421.6C931.4,435.5 872.6,520.9 758.4,530.5C783.3,530 816.1,542.1 808.8,557.8C802.7,570.9 744.8,576.1 724.9,562.6C724.9,562.6 737.7,587.3 723,588.8C704.6,590.7 675.4,580.7 665.3,566.2C665.3,566.2 643.8,578.8 628,566C618,557.9 646.3,447.8 674.9,396.9Z" style="fill:rgb(229,255,255);fill-rule:nonzero;"/>
        </g>
        <g transform="matrix(1.47896,0,0,1.53386,-90.158,-164.473)">
            <path d="M446.4,343.2C446.4,343.2 398.9,340.1 412.8,264.2C416,246.7 453.5,285.8 460.7,296.9C467.2,306.9 446.4,343.2 446.4,343.2Z" style="fill:rgb(229,255,255);fill-rule:nonzero;"/>
        </g>
        <g transform="matrix(1.47896,0,0,1.53386,-90.158,-164.473)">
            <path d="M586.7,432.2L523,445.8C523,445.8 524,449.8 525.2,456.9C535.8,459.6 546.9,460.2 558.1,458.5C570.1,456.7 581.2,452.4 591,446.1C589.5,441.5 588.1,436.9 586.7,432.2Z" style="fill:black;fill-opacity:0.05;fill-rule:nonzero;"/>
        </g>
        <g transform="matrix(-1.46255,0.227932,-0.219774,-1.51684,1568.95,792.02)">
            <ellipse cx="537.6" cy="353.7" rx="91.2" ry="100.9" style="fill:rgb(229,255,255);"/>
        </g>
        <g transform="matrix(1.47896,0,0,1.53386,-90.158,-164.473)">
            <path d="M471,381.1C471.7,380.8 472.3,380.4 472.9,380C473.6,379.6 474.2,379.2 474.8,378.7C476,377.8 477.3,376.9 478.4,375.9C479.1,375.3 479.7,374.7 480.3,374.2C480.3,374.6 480.2,375.1 480.1,375.5C480,376.1 479.9,376.7 479.8,377.3C479.7,377.9 479.5,378.6 479.4,379.2C479.2,379.8 479,380.4 478.8,381.1C478.6,381.7 478.4,382.3 478.2,382.9C477.7,384 477.3,385.1 476.8,386C475.9,387.8 475.1,388.9 475.1,388.9C475.1,388.9 476.1,388 477.3,386.3C477.9,385.5 478.6,384.5 479.3,383.5C479.6,383 480,382.4 480.3,381.8C480.6,381.2 481,380.6 481.2,380C481.5,379.4 481.8,378.8 482,378.1C482.1,377.8 482.3,377.2 482.4,377L480.8,367.8C480.7,367.9 480.6,367.9 480.5,368C480.1,368.3 479.4,368.7 478.5,369.1C478.1,369.3 477.6,369.5 477,369.7C476.5,369.8 475.9,370 475.3,370.1C475,370.2 474.7,370.2 474.4,370.3C474.1,370.3 473.8,370.4 473.4,370.4C472.7,370.5 472.1,370.4 471.4,370.4C470.7,370.4 470.1,370.3 469.4,370.2C468.7,370.1 468.1,369.9 467.5,369.8C466.9,369.6 466.3,369.4 465.7,369.2C465.1,369 464.6,368.7 464.1,368.5C463.6,368.3 463.2,368.1 462.8,367.9C462.4,367.7 462.1,367.5 461.8,367.3C461.3,367 461,366.8 461,366.8C461,366.8 461.3,367 461.7,367.4C461.9,367.6 462.2,367.9 462.6,368.1C462.9,368.4 463.3,368.7 463.8,369C464.3,369.3 464.7,369.7 465.3,370C465.9,370.3 466.4,370.6 467,370.9C467.6,371.2 468.3,371.4 469,371.7C469.7,371.9 470.4,372.1 471.1,372.3C471.8,372.4 472.6,372.6 473.3,372.6C473.7,372.6 474,372.7 474.4,372.7C474.8,372.7 475.1,372.7 475.5,372.7C476.2,372.7 476.8,372.6 477.4,372.6C477.1,373 476.7,373.5 476.3,374C475.4,375.1 474.4,376.1 473.4,377.2C472.9,377.7 472.3,378.2 471.8,378.7C471.2,379.2 470.7,379.7 470.2,380C469.6,380.4 469.1,380.8 468.6,381.1C468.1,381.4 467.6,381.8 467.1,382C466.6,382.3 466.2,382.5 465.8,382.7C465.4,382.9 465,383 464.7,383.1C464.1,383.3 463.7,383.5 463.7,383.5C463.7,383.5 464.1,383.4 464.7,383.3C465,383.2 465.4,383.2 465.9,383C466.3,382.9 466.8,382.7 467.4,382.5C467.9,382.3 468.5,382.1 469.1,381.8C469.7,381.8 470.3,381.4 471,381.1Z" style="fill:black;fill-opacity:0.05;fill-rule:nonzero;"/>
        </g>
        <g transform="matrix(1.47896,0,0,1.53386,-90.158,-164.473)">
            <path d="M460.7,296.9C460.7,296.9 479.8,326.7 495.6,326.7C525,326.7 544.3,307.7 575.2,296.2C608,283.9 627.3,300 627.3,300L564.3,223.9L445.5,247.8L460.7,296.9Z" style="fill:rgb(55,218,231);fill-rule:nonzero;"/>
        </g>
        <g transform="matrix(1.47896,0,0,1.53386,-90.158,-164.473)">
            <path d="M614.5,353.1C615.1,353.5 615.8,353.8 616.4,354.2C617,354.5 617.7,354.8 618.3,355.1C618.9,355.3 619.6,355.6 620.2,355.8C620.8,356 621.4,356.2 621.9,356.3C624,356.9 625.4,357.1 625.4,357.1C625.4,357.1 624,356.7 622.1,355.7C621.6,355.5 621.1,355.2 620.6,354.9C620.1,354.6 619.5,354.3 619,353.9C618.5,353.5 617.9,353.2 617.3,352.7C616.8,352.3 616.2,351.9 615.7,351.4L614.9,350.7L614.2,350C613.7,349.5 613.3,349 612.9,348.5C612.7,348.3 612.5,348 612.3,347.8C612.4,347.8 612.5,347.9 612.6,347.9C613.8,348.2 615,348.4 616.2,348.6C621.1,349.3 626,349.3 626,349.3C626,349.3 621.2,348.3 616.7,346.7C615.6,346.3 614.5,345.9 613.5,345.4C613.3,345.3 613.1,345.2 613,345.1C613.3,345 613.6,345 613.9,344.9C614.5,344.7 615.1,344.5 615.6,344.3C616.2,344 616.8,343.8 617.3,343.5C617.9,343.2 618.4,342.9 618.9,342.6C619.2,342.4 619.4,342.3 619.7,342.1C619.9,341.9 620.2,341.7 620.4,341.5C620.9,341.2 621.3,340.8 621.7,340.4C621.9,340.2 622.1,340 622.2,339.9C622.4,339.7 622.5,339.5 622.7,339.3C623,338.9 623.3,338.6 623.5,338.3C623.7,338 623.9,337.7 624,337.5C624.3,337.1 624.4,336.8 624.4,336.8C624.4,336.8 624.2,337 623.8,337.4C623.6,337.6 623.4,337.8 623.1,338.1C622.8,338.3 622.5,338.6 622.2,338.9C622,339 621.9,339.2 621.7,339.3C621.5,339.4 621.3,339.6 621.1,339.7C620.7,340 620.2,340.2 619.7,340.5C619.5,340.6 619.2,340.7 619,340.9C618.7,341 618.5,341.1 618.2,341.2C617.7,341.4 617.1,341.6 616.6,341.7C616.1,341.9 615.5,341.9 615,342.1C614.4,342.2 613.9,342.2 613.4,342.3C612.3,342.4 611.4,342.4 610.5,342.3C609.7,342.2 609,342.2 608.5,342.1C608.3,342.1 608.1,342 608,342C608,341.9 608,341.8 607.9,341.8L605.9,343.2C606.6,345.1 607.2,347 607.7,348.6L608.6,348.5L609.9,351.2C609.8,350.6 609.7,350.1 609.6,349.5C610,349.9 610.4,350.2 610.8,350.6C611.3,351.1 611.9,351.5 612.5,351.9C612.8,352.1 613.1,352.3 613.4,352.5L614.5,353.1Z" style="fill:black;fill-opacity:0.05;fill-rule:nonzero;"/>
        </g>
        <g transform="matrix(1.47896,0,0,1.53386,-90.158,-164.473)">
            <path d="M845.7,365.9C845.5,365 845.2,364.1 844.6,363.2C844,362.3 843.2,361.6 842.4,361.1C841.6,360.6 840.8,360.3 840.1,360.1C839.4,359.9 838.6,359.8 838,359.7C837.7,359.7 837.3,359.7 837,359.6L836.1,359.6L835.3,359.6L834.4,359.6C833.8,359.6 833.2,359.7 832.6,359.7C832,359.8 831.5,359.8 830.9,359.9C830.3,360 829.8,360.1 829.2,360.2C824.8,361.1 820.7,362.7 816.9,364.4C813.1,366.1 809.4,367.9 805.8,369.7C798.6,373.2 791.6,376.3 784.5,378.6C782.7,379.2 781,379.7 779.2,380.2C777.4,380.7 775.6,381.2 773.8,381.7C770.2,382.7 766.8,383.7 763.4,384.7C756.6,386.7 750.3,388.8 744.5,391C741.6,392.1 738.8,393.2 736.2,394.3C733.6,395.4 731.2,396.6 729,397.8C724.5,400.2 720.8,402.6 718,404.9C715.1,407.2 713.2,409.3 711.9,410.7C711.3,411.4 710.8,412 710.5,412.4C710.2,412.8 710,413 710,413L710.3,413.3C710.3,413.3 710.5,413.1 710.8,412.8C711.1,412.4 711.6,411.9 712.3,411.2C713.7,409.9 715.7,408 718.6,405.9C721.5,403.8 725.2,401.6 729.7,399.5C734.2,397.4 739.4,395.4 745.2,393.4C751,391.5 757.4,389.6 764.1,387.8C767.5,386.9 771,386 774.5,385.1C778.1,384.2 781.7,383.3 785.4,382.2C792.8,380 800.1,376.8 807.3,373.3C810.9,371.6 814.6,369.8 818.3,368.1C822,366.5 825.8,365 829.8,364.2C831.8,363.8 833.8,363.6 835.8,363.6C836.8,363.6 837.8,363.6 838.7,363.9C839.6,364.1 840.5,364.6 841,365.4C841.5,366.2 841.7,367.1 841.6,368.1C841.5,369.1 841.3,370 841,371C840.3,372.9 839.4,374.6 838.4,376.4C836.3,379.8 833.9,383 831.3,386C828.8,389 826.1,391.8 823.4,394.5C818,399.9 812.4,404.8 806.9,409.2C801.4,413.6 796,417.4 790.9,420.7C785.7,424 780.8,426.7 776.3,428.8C771.8,430.9 767.7,432.4 764.3,433.3C760.9,434.2 758.1,434.6 756.2,434.7C755.2,434.8 754.5,434.8 754,434.8C753.5,434.8 753.3,434.8 753.3,434.8L753.3,435.2C753.3,435.2 753.6,435.2 754,435.3C754.5,435.3 755.2,435.4 756.2,435.4C758.1,435.4 761,435.2 764.6,434.4C764.9,434.3 765.3,434.2 765.6,434.2C765.9,434.6 766.3,435.2 766.9,435.9C767.4,436.7 768,437.6 768.6,438.8C769.2,440 769.7,441.3 770.1,442.9C770.4,444.4 770.6,446.2 770.2,447.9C769.8,449.7 769,451.4 767.8,453C765.4,456.2 761.7,458.6 757.9,460.5C754.1,462.5 750.1,464 746.2,465.2C742.4,466.4 738.7,467.3 735.6,468.1C732.5,468.8 729.8,469.3 728,469.6C726.1,469.9 725.1,470.1 725.1,470.1L725.2,470.5C725.2,470.5 725.5,470.5 726,470.6C726.5,470.6 727.3,470.7 728.2,470.7L728.3,470.7C728.4,471.1 728.5,471.7 728.7,472.5C728.9,473.2 728.9,474 729.1,475C729.2,475.5 729.2,476 729.2,476.5C729.2,477 729.3,477.6 729.2,478.2C729.2,478.8 729.1,479.4 729.1,480C729,480.6 728.9,481.3 728.8,481.9C728.6,482.5 728.4,483.2 728.2,483.9C727.9,484.5 727.7,485.2 727.3,485.8C727.1,486.1 726.9,486.4 726.7,486.7C726.5,487 726.3,487.3 726,487.6C725.6,488.2 725,488.7 724.5,489.3C723.4,490.3 722.1,491.3 720.7,492C719.3,492.8 717.9,493.4 716.4,494C714.9,494.5 713.4,494.9 712,495.3C709.1,496 706.3,496.3 703.9,496.4C701.5,496.6 699.5,496.6 698.1,496.6C696.7,496.6 695.9,496.5 695.9,496.5L695.9,496.9C695.9,496.9 696.1,497 696.5,497.1C696.9,497.2 697.4,497.5 698.1,497.7C698.8,497.9 699.7,498.2 700.7,498.3C701.7,498.5 702.8,498.7 704.1,498.8C705.4,498.9 706.7,499.1 708.2,499C709.7,499 711.2,498.9 712.8,498.7C713.6,498.6 714.4,498.5 715.2,498.3C716,498.1 716.9,497.9 717.7,497.6C718.5,497.3 719.4,497 720.2,496.7C721,496.3 721.9,496 722.7,495.5C724.3,494.6 725.8,493.4 727.2,492.1C727.8,491.4 728.5,490.7 729,489.9C729.3,489.5 729.6,489.1 729.8,488.7C730,488.3 730.2,487.9 730.4,487.5C730.6,487.1 730.8,486.7 730.9,486.2C731.1,485.8 731.2,485.4 731.3,484.9C731.5,484.1 731.6,483.2 731.8,482.4C731.8,481.6 731.9,480.8 731.9,480.1C731.8,479.4 731.8,478.7 731.7,478C731.5,476.7 731.2,475.5 730.9,474.5C730.5,473.5 730.2,472.7 729.9,472C729.6,471.3 729.2,470.8 729.1,470.5C729.9,470.5 730.9,470.5 731.9,470.5C733.2,470.5 734.8,470.4 736.4,470.2C738,470.1 739.8,469.9 741.7,469.5C743.6,469.2 745.6,468.8 747.6,468.3C749.6,467.8 751.7,467.2 753.8,466.4C755.9,465.6 758,464.8 760,463.7C762,462.6 764,461.4 765.9,459.9C767.8,458.5 769.4,456.7 770.8,454.7C772.2,452.7 773.1,450.4 773.4,448.1C773.6,447 773.6,445.8 773.4,444.8C773.2,443.8 773,442.8 772.7,441.9C772.1,440.1 771.2,438.7 770.4,437.6C769.6,436.5 768.7,435.6 768,434.9C767.5,434.4 767,434 766.6,433.7C769.8,432.9 773.4,431.7 777.3,430.1C782,428.2 787.1,425.7 792.5,422.5C797.9,419.4 803.5,415.6 809.1,411.3C814.8,407 820.6,402.2 826.2,396.8C829,394.1 831.8,391.2 834.4,388.2C837.1,385.1 839.7,381.9 841.9,378.2C843,376.3 844.1,374.4 844.9,372.1C845.3,370.9 845.7,369.7 845.8,368.2C845.9,367.6 845.9,366.8 845.7,365.9Z" style="fill:black;fill-opacity:0.1;fill-rule:nonzero;"/>
        </g>
        <g transform="matrix(1.47896,0,0,1.53386,-90.158,-164.473)">
            <path d="M531.2,511C531.2,511 449.1,568 435.2,587C427,598.1 443.1,605.5 472.8,608C493.8,609.7 530.8,608 530.8,608L531.2,511Z" style="fill:rgb(229,255,255);fill-rule:nonzero;"/>
        </g>
        <g transform="matrix(1.47896,0,0,1.53386,-90.158,-164.473)">
            <path d="M207.2,455.1C207.3,454.2 207.6,453.2 208.1,452.3C208.6,451.4 209.3,450.6 210.1,450.1C210.9,449.5 211.6,449.2 212.4,448.9C213.1,448.6 213.8,448.5 214.5,448.4C214.8,448.3 215.2,448.3 215.5,448.3L216.4,448.2L217.2,448.1L219.9,448.1C220.5,448.1 221,448.1 221.6,448.2C222.2,448.2 222.7,448.3 223.3,448.4C227.8,449 231.9,450.3 235.9,451.7C239.8,453.1 243.6,454.7 247.3,456.2C254.7,459.1 262,461.8 269.2,463.5C271,464 272.8,464.3 274.6,464.7C276.4,465.1 278.3,465.4 280.1,465.8C283.7,466.5 287.3,467.3 290.7,468.1C297.6,469.6 304.1,471.2 310,473C313,473.9 315.8,474.8 318.5,475.7C321.2,476.6 323.7,477.7 326,478.7C330.6,480.8 334.5,482.9 337.5,485C340.5,487.1 342.6,489 344,490.3C344.7,491 345.2,491.5 345.5,491.9C345.8,492.3 346,492.4 346,492.4L345.7,492.7C345.7,492.7 345.5,492.5 345.2,492.2C344.8,491.9 344.3,491.4 343.6,490.8C342.2,489.6 339.9,487.8 336.9,486C333.9,484.1 330,482.2 325.3,480.4C320.7,478.6 315.3,477 309.4,475.5C303.5,474 297,472.6 290.1,471.3C286.7,470.6 283.1,470 279.5,469.3C275.9,468.6 272.1,468.1 268.4,467.2C260.9,465.5 253.4,462.9 245.9,459.9C242.2,458.4 238.4,456.9 234.6,455.5C230.8,454.1 226.9,453 222.9,452.5C220.9,452.2 218.9,452.2 216.9,452.3C215.9,452.4 214.9,452.5 214,452.8C213.1,453.1 212.3,453.6 211.8,454.4C211.3,455.2 211.3,456.2 211.4,457.1C211.5,458.1 211.8,459 212.2,459.9C213,461.7 214.1,463.4 215.2,465C217.5,468.2 220.2,471.2 222.9,474C225.7,476.8 228.5,479.4 231.4,481.9C237.2,486.9 243.1,491.4 248.9,495.3C254.7,499.3 260.4,502.7 265.7,505.6C271.1,508.5 276.2,510.8 280.8,512.6C285.4,514.4 289.6,515.5 293.1,516.2C296.6,516.9 299.4,517 301.3,517C302.3,517 303,516.9 303.5,516.9C304,516.9 304.2,516.8 304.2,516.8L304.2,517.2C304.2,517.2 303.9,517.2 303.5,517.3C303,517.4 302.3,517.5 301.3,517.5C299.4,517.6 296.5,517.7 292.9,517.1C292.6,517.1 292.2,517 291.8,516.9C291.5,517.3 291.1,517.9 290.7,518.7C290.2,519.5 289.7,520.5 289.2,521.7C288.7,522.9 288.3,524.3 288,525.9C287.8,527.5 287.8,529.2 288.3,530.9C288.8,532.6 289.8,534.3 291.1,535.8C293.7,538.8 297.6,540.9 301.5,542.6C305.4,544.3 309.6,545.5 313.5,546.5C317.4,547.4 321.1,548.1 324.3,548.6C327.5,549.1 330.2,549.4 332,549.6C333.9,549.8 334.9,549.9 334.9,549.9L334.9,550.3C334.9,550.3 334.6,550.4 334.1,550.4C333.6,550.5 332.8,550.6 331.9,550.7L331.8,550.7C331.7,551.1 331.7,551.7 331.5,552.5C331.4,553.2 331.4,554 331.3,555C331.3,555.5 331.3,556 331.3,556.5C331.3,557 331.3,557.6 331.4,558.2C331.5,558.8 331.6,559.4 331.7,560C331.9,560.6 332,561.3 332.2,561.9C332.4,562.5 332.7,563.2 332.9,563.8C333.3,564.4 333.5,565.1 334,565.7C334.2,566 334.4,566.3 334.6,566.6C334.8,566.9 335.1,567.2 335.3,567.4C335.8,568 336.4,568.5 336.9,569C338.1,569.9 339.4,570.8 340.9,571.5C342.3,572.2 343.8,572.7 345.3,573.1C346.8,573.5 348.3,573.8 349.8,574.1C352.7,574.5 355.5,574.7 357.9,574.6C360.3,574.6 362.3,574.5 363.7,574.3C365.1,574.2 365.9,574.1 365.9,574.1L366,574.5C366,574.5 365.8,574.6 365.5,574.8C365.1,575 364.6,575.2 363.9,575.5C363.2,575.8 362.4,576.1 361.4,576.3C360.4,576.6 359.3,576.9 358.1,577.1C356.9,577.3 355.5,577.5 354,577.6C352.5,577.7 351,577.7 349.4,577.6C348.6,577.5 347.8,577.5 346.9,577.3C346.1,577.2 345.2,577 344.4,576.8C343.6,576.6 342.7,576.4 341.8,576.1C341,575.8 340.1,575.5 339.3,575.1C337.6,574.3 336,573.3 334.6,572C333.9,571.3 333.2,570.7 332.6,569.9C332.3,569.5 332,569.2 331.7,568.8C331.4,568.4 331.2,568 331,567.6C330.8,567.2 330.6,566.8 330.4,566.4C330.2,566 330,565.6 329.9,565.2C329.7,564.4 329.4,563.6 329.3,562.8C329.2,562 329.1,561.2 329,560.5C329,559.8 329,559.1 329,558.4C329.1,557.1 329.3,555.9 329.6,554.9C329.9,553.9 330.1,553 330.5,552.3C330.8,551.6 331.1,551.1 331.2,550.7C330.4,550.8 329.4,550.9 328.4,550.9C327.1,551 325.5,551 323.9,551C322.2,551 320.4,550.9 318.6,550.7C316.7,550.5 314.7,550.3 312.7,549.9C310.7,549.5 308.5,549.1 306.4,548.5C304.3,547.9 302.1,547.2 300,546.3C297.9,545.4 295.8,544.3 293.8,543C291.8,541.7 290,540.1 288.5,538.2C287,536.3 285.9,534.1 285.4,531.8C285.2,530.7 285.1,529.6 285.1,528.5C285.2,527.4 285.3,526.5 285.6,525.6C286.1,523.8 286.8,522.3 287.6,521.1C288.4,519.9 289.1,519 289.8,518.2C290.3,517.6 290.8,517.2 291.1,516.9C287.9,516.3 284.2,515.4 280.2,514.1C275.4,512.5 270.1,510.4 264.5,507.6C258.9,504.9 253.1,501.6 247.1,497.7C241.1,493.8 235,489.5 229,484.4C226,481.9 223,479.2 220.2,476.4C217.3,473.6 214.5,470.5 212,467C210.7,465.2 209.5,463.4 208.6,461.2C208.1,460.1 207.7,458.9 207.5,457.4C207.2,456.8 207.1,456 207.2,455.1Z" style="fill:black;fill-opacity:0.1;fill-rule:nonzero;"/>
        </g>
        <g transform="matrix(1.47896,0,0,1.53386,-90.158,-164.473)">
            <path d="M629.1,533C629.1,533 631.4,401.4 719,312.5C755.7,275.3 781.3,351.7 766.9,362.7C758.8,368.8 664.5,462 667,587L629.1,533Z" style="fill:rgb(229,255,255);fill-rule:nonzero;"/>
        </g>
        <g transform="matrix(1.47896,0,0,1.53386,-90.158,-164.473)">
            <path d="M548.2,383C548.2,383 548.5,382.6 549,381.9C549.3,381.6 549.6,381.2 550.1,380.8C550.5,380.4 551,379.9 551.6,379.5C552.2,379 552.8,378.6 553.5,378.1C554.2,377.7 555,377.2 555.8,376.8C556.6,376.4 557.5,376 558.4,375.7C559.3,375.4 560.2,375.1 561.2,374.8C562.1,374.6 563.1,374.4 564.1,374.2C565,374 566,374 566.9,374C567.8,373.9 568.7,374 569.5,374.1C569.9,374.1 570.3,374.1 570.7,374.2C571.1,374.3 571.5,374.3 571.8,374.4C573.2,374.6 574.4,375.1 575.2,375.4C576,375.7 576.4,376 576.4,376L576.4,376.3C576.4,376.3 575.9,376.3 575.1,376.3C574.7,376.3 574.2,376.3 573.6,376.3C573,376.3 572.4,376.3 571.7,376.4C571.4,376.4 571,376.4 570.6,376.4C570.2,376.4 569.8,376.5 569.5,376.5C568.7,376.6 567.9,376.6 567,376.8C566.1,376.9 565.3,377 564.4,377.3C563.5,377.5 562.6,377.7 561.7,377.9C560.8,378.1 559.9,378.4 559.1,378.6C558.2,378.8 557.4,379.2 556.6,379.4C555,380 553.5,380.6 552.2,381.2C549.7,382.3 548.1,383.3 548.1,383.3L548.2,383Z" style="fill:black;fill-opacity:0.1;fill-rule:nonzero;"/>
        </g>
        <g transform="matrix(1.47896,0,0,1.53386,-90.158,-164.473)">
            <path d="M559.1,390.2C559.1,390.2 559,390.4 558.8,390.6C558.6,390.8 558.3,391.1 557.9,391.3C557.7,391.4 557.5,391.5 557.3,391.6C557.1,391.7 556.8,391.7 556.6,391.8C556.1,391.9 555.5,391.8 555,391.6C554.5,391.4 554,391.2 553.6,390.8C553.4,390.6 553.2,390.4 553.1,390.2C552.9,390 552.8,389.8 552.7,389.6C552.5,389.2 552.4,388.8 552.4,388.5C552.4,388.2 552.4,388 552.4,388L552.5,387.9C552.5,387.9 552.8,388.2 553.4,388.6C553.9,389 554.8,389.4 555.6,389.7C556.5,390 557.4,390.1 558,390.1C558.7,390.1 559.1,390.1 559.1,390.1L559.1,390.2Z" style="fill:black;fill-opacity:0.1;fill-rule:nonzero;"/>
        </g>
        <g transform="matrix(1.47896,0,0,1.53386,-90.158,-164.473)">
            <path d="M574.5,387.1C574.5,387.1 574.9,387 575.4,386.9C575.9,386.7 576.6,386.4 577,385.8C577.5,385.3 577.7,384.6 577.9,384.1C578,383.6 578.1,383.2 578.1,383.2L578.3,383.2C578.3,383.2 578.4,383.3 578.6,383.5C578.8,383.7 579,384 579.1,384.3C579.2,384.5 579.2,384.7 579.2,384.9C579.2,385.1 579.2,385.4 579.2,385.6C579.1,386.1 578.9,386.6 578.5,387.1C578.1,387.5 577.6,387.9 577.1,388C576.9,388.1 576.6,388.1 576.4,388.1C576.2,388.1 576,388.1 575.8,388C575.4,387.9 575.1,387.7 574.9,387.6C574.7,387.4 574.6,387.3 574.6,387.3L574.5,387.1Z" style="fill:black;fill-opacity:0.1;fill-rule:nonzero;"/>
        </g>
        <g transform="matrix(1.47896,0,0,1.53386,-90.158,-164.473)">
            <path d="M548.8,257.5C546.4,211.5 539.5,107.2 530.4,107.2C522,107.2 510.8,214.2 508.7,257.3C521.8,255.2 537.6,256 548.8,257.5Z" style="fill:rgb(229,255,255);fill-rule:nonzero;"/>
        </g>
        <g transform="matrix(1.47896,0,0,1.53386,-90.158,-164.473)">
            <path d="M522.1,376.9C522,376.1 522,374.8 521.8,373.3C521.6,371.7 521.4,369.8 520.9,367.7C520.5,365.5 520,363.1 519.2,360.5C518.4,357.9 517.5,355.1 516.2,352.2C514.9,349.3 513.4,346.3 511.3,343.4C510.3,341.9 509.2,340.5 507.9,339.1C507.3,338.4 506.6,337.7 505.9,337.1C505.2,336.5 504.4,335.8 503.6,335.2C502,334 500.1,333 498,332.2C495.9,331.5 493.5,331.1 491,331.6C488.5,332.1 486.3,333.4 484.6,335.1C482.9,336.7 481.8,338.6 481,340.5C479.3,344.3 478.9,348 478.6,351.5C478.4,355 478.6,358.4 479,361.5C479.2,363.3 479.5,365.1 479.8,366.8C479.7,366.9 479.6,366.9 479.5,367C479.1,367.3 478.4,367.7 477.5,368.1C477.1,368.3 476.6,368.5 476,368.7C475.5,368.8 474.9,369 474.3,369.1C474,369.2 473.7,369.2 473.4,369.3C473.1,369.3 472.8,369.4 472.4,369.4C471.7,369.5 471.1,369.4 470.4,369.4C469.7,369.4 469.1,369.3 468.4,369.2C467.7,369.1 467.1,368.9 466.5,368.8C465.9,368.6 465.3,368.4 464.7,368.2C464.1,368 463.6,367.7 463.1,367.5C462.6,367.3 462.2,367.1 461.8,366.9C461.4,366.7 461.1,366.5 460.8,366.3C460.3,366 460,365.8 460,365.8C460,365.8 460.3,366 460.7,366.4C460.9,366.6 461.2,366.9 461.6,367.1C461.9,367.4 462.3,367.7 462.8,368C463.3,368.3 463.7,368.7 464.3,369C464.9,369.3 465.4,369.6 466,369.9C466.6,370.2 467.3,370.4 468,370.7C468.7,370.9 469.4,371.1 470.1,371.3C470.8,371.4 471.6,371.6 472.3,371.6C472.7,371.6 473,371.7 473.4,371.7C473.8,371.7 474.1,371.7 474.5,371.7C475.2,371.7 475.8,371.6 476.4,371.6C476.1,372 475.7,372.5 475.3,373C474.4,374.1 473.4,375.1 472.4,376.2C471.9,376.7 471.3,377.2 470.8,377.7C470.2,378.2 469.7,378.7 469.2,379C468.6,379.4 468.1,379.8 467.6,380.1C467.1,380.4 466.6,380.8 466.1,381C465.6,381.3 465.2,381.5 464.8,381.7C464.4,381.9 464,382 463.7,382.1C463.1,382.3 462.7,382.5 462.7,382.5C462.7,382.5 463.1,382.4 463.7,382.3C464,382.2 464.4,382.2 464.9,382C465.3,381.9 465.8,381.7 466.4,381.5C466.9,381.3 467.5,381.1 468.1,380.8C468.7,380.6 469.3,380.2 470,379.9C470.7,379.6 471.3,379.2 471.9,378.8C472.6,378.4 473.2,378 473.8,377.5C475,376.6 476.3,375.7 477.4,374.7C478.1,374.1 478.7,373.5 479.3,373C479.3,373.4 479.2,373.9 479.1,374.3C479,374.9 478.9,375.5 478.8,376.1C478.7,376.7 478.5,377.4 478.4,378C478.2,378.6 478,379.2 477.8,379.9C477.6,380.5 477.4,381.1 477.2,381.7C476.7,382.8 476.3,383.9 475.8,384.8C474.9,386.6 474.1,387.7 474.1,387.7C474.1,387.7 475.1,386.8 476.3,385.1C476.9,384.3 477.6,383.3 478.3,382.3C478.6,381.8 479,381.2 479.3,380.6C479.6,380 480,379.4 480.2,378.8C480.5,378.2 480.8,377.6 481,376.9C481.3,376.3 481.5,375.6 481.7,375C481.7,374.9 481.7,374.8 481.8,374.8C482,375.6 482.3,376.4 482.5,377.1C483.1,379.2 483.8,381 484.4,382.4C484.9,383.9 485.5,385 485.8,385.8C486.1,386.6 486.3,387 486.3,387L486.7,386.9C486.7,386.9 486.6,386.5 486.4,385.7C486.2,384.9 485.9,383.7 485.5,382.2C484.8,379.3 483.8,375.1 483,370L482.7,368C482.1,363.1 481.6,357.5 482.1,351.6C482.4,348.3 483.1,344.9 484.5,341.8C485.2,340.3 486.1,338.8 487.4,337.6C488.6,336.4 490.1,335.6 491.8,335.2C493.5,334.9 495.2,335.1 496.8,335.6C498.4,336.1 500,337 501.3,338C504.1,340 506.4,342.6 508.4,345.2C512.3,350.5 514.9,356.2 516.8,361.1C518.7,366 519.8,370.3 520.6,373.3C521,374.8 521.2,376 521.4,376.8C521.6,377.6 521.7,378 521.7,378L522.1,377.9C522.2,378.2 522.2,377.8 522.1,376.9Z" style="fill:black;fill-opacity:0.5;fill-rule:nonzero;"/>
        </g>
        <g transform="matrix(1.47896,0,0,1.53386,-90.158,-164.473)">
            <path d="M615.1,347.6C620,348.3 624.9,348.3 624.9,348.3C624.9,348.3 620.1,347.3 615.6,345.7C614.5,345.3 613.4,344.9 612.4,344.4C612.2,344.3 612,344.2 611.9,344.1C612.2,344 612.5,344 612.8,343.9C613.4,343.7 614,343.5 614.5,343.3C615.1,343 615.7,342.8 616.2,342.5C616.8,342.2 617.3,341.9 617.8,341.6C618.1,341.4 618.3,341.3 618.6,341.1C618.8,340.9 619.1,340.7 619.3,340.5C619.8,340.2 620.2,339.8 620.6,339.4C620.8,339.2 621,339 621.1,338.9C621.3,338.7 621.4,338.5 621.6,338.3C621.9,337.9 622.2,337.6 622.4,337.3C622.6,337 622.8,336.7 622.9,336.5C623.2,336.1 623.3,335.8 623.3,335.8C623.3,335.8 623.1,336 622.7,336.4C622.5,336.6 622.3,336.8 622,337.1C621.7,337.3 621.4,337.6 621.1,337.9C620.9,338 620.8,338.2 620.6,338.3C620.4,338.4 620.2,338.6 620,338.7C619.6,339 619.1,339.2 618.6,339.5C618.4,339.6 618.1,339.7 617.9,339.9C617.6,340 617.4,340.1 617.1,340.2C616.6,340.4 616,340.6 615.5,340.7C615,340.9 614.4,340.9 613.9,341.1C613.3,341.2 612.8,341.2 612.3,341.3C611.2,341.4 610.3,341.4 609.4,341.3C608.6,341.2 607.9,341.2 607.4,341.1C607.2,341.1 607,341 606.9,341C606.8,340.8 606.8,340.6 606.7,340.4C606,337.9 605.2,335.3 604.1,332.6C603,329.9 601.8,327 600.1,324.1C599.3,322.7 598.4,321.2 597.3,319.8C596.2,318.4 595,317 593.5,315.7C592,314.4 590.2,313.3 587.9,312.6C586.8,312.3 585.5,312.1 584.2,312.2C582.9,312.3 581.7,312.7 580.5,313.2C579.4,313.7 578.4,314.5 577.6,315.2C576.8,316 576.1,316.8 575.5,317.6C574.3,319.3 573.5,321 572.9,322.8C572.2,324.5 571.8,326.3 571.5,328C571.2,329.7 571,331.4 570.9,333.1C570.6,336.4 570.8,339.6 571.1,342.5C571.4,345.5 571.9,348.2 572.5,350.7C573.1,353.2 573.8,355.4 574.5,357.4C575.2,359.4 575.9,361 576.5,362.4C577.1,363.8 577.7,364.8 578,365.5C578.4,366.2 578.6,366.6 578.6,366.6L579,366.5C579,366.5 578.9,366.1 578.6,365.4C578.3,364.7 578,363.6 577.6,362.2C576.8,359.4 575.7,355.4 574.9,350.5C574.1,345.6 573.7,339.8 574.3,333.6C574.6,330.5 575.2,327.4 576.4,324.3C577,322.8 577.7,321.3 578.6,320C579.5,318.7 580.7,317.5 582.1,316.8C582.8,316.5 583.6,316.2 584.3,316.2C585.1,316.1 585.9,316.2 586.6,316.4C588.1,316.8 589.5,317.7 590.8,318.7C593.3,320.8 595.2,323.4 596.8,326C598.4,328.6 599.8,331.3 601,333.9C602.2,336.5 603.2,339 604,341.3C604.9,343.6 605.6,345.8 606.2,347.7C606.8,349.6 607.3,351.3 607.7,352.7C608.1,354.1 608.4,355.2 608.6,355.9C608.8,356.7 608.9,357.1 608.9,357.1L609.3,357C609.3,357 609.3,356.6 609.2,355.8C609.1,355 609,353.9 608.8,352.4C608.6,351.3 608.4,350.1 608.2,348.7C608.6,349.1 609,349.4 609.4,349.8C609.9,350.3 610.5,350.7 611.1,351.1C611.4,351.3 611.7,351.5 612,351.7L613,352.3C613.6,352.7 614.3,353 614.9,353.4C615.5,353.7 616.2,354 616.8,354.3C617.4,354.5 618.1,354.8 618.7,355C619.3,355.2 619.9,355.4 620.4,355.5C622.5,356.1 623.9,356.3 623.9,356.3C623.9,356.3 622.5,355.9 620.6,354.9C620.1,354.7 619.6,354.4 619.1,354.1C618.6,353.8 618,353.5 617.5,353.1C617,352.7 616.4,352.4 615.8,351.9C615.3,351.5 614.7,351.1 614.2,350.6L613.4,349.9L612.7,349.2C612.2,348.7 611.8,348.2 611.4,347.7C611.2,347.5 611,347.2 610.8,347C610.9,347 611,347.1 611.1,347.1C612.6,347.2 613.9,347.5 615.1,347.6Z" style="fill:black;fill-opacity:0.5;fill-rule:nonzero;"/>
        </g>
        <g transform="matrix(1.47896,0,0,1.53386,-90.158,-164.473)">
            <path d="M421.3,280.9C421.3,280.9 421.4,281.1 421.5,281.5C421.6,281.9 421.8,282.5 422,283.2C422.4,284.6 423,286.7 423.7,289.1C424.1,290.3 424.4,291.6 424.9,292.9C425.3,294.2 425.8,295.6 426.3,297.1C426.6,297.8 426.8,298.5 427.1,299.3C427.4,300 427.7,300.7 427.9,301.5C428.5,302.9 429.1,304.4 429.8,305.8C430.4,307.2 431.2,308.6 431.9,310C432.3,310.7 432.7,311.3 433,312C433.4,312.6 433.8,313.3 434.2,313.9C434.6,314.5 435,315.1 435.4,315.7C435.8,316.3 436.2,316.9 436.6,317.4C437.5,318.5 438.2,319.5 439,320.5C439.4,321 439.8,321.4 440.1,321.8C440.5,322.2 440.8,322.7 441.2,323C441.9,323.7 442.5,324.4 443,325C443.5,325.5 443.9,326 444.2,326.3C444.5,326.6 444.6,326.8 444.6,326.8L444.4,327.2C444.4,327.2 443.7,326.8 442.4,326C441.8,325.6 441,325.1 440.1,324.5C439.3,323.9 438.3,323.2 437.3,322.4C436.8,322 436.3,321.6 435.8,321.1C435.3,320.6 434.8,320.1 434.3,319.6C433.8,319.1 433.3,318.5 432.8,317.9C432.3,317.3 431.8,316.7 431.3,316.1C430.8,315.5 430.3,314.8 429.9,314.1C429.5,313.4 429,312.7 428.5,312C427.6,310.6 426.8,309.1 426.1,307.5C423.2,301.3 421.8,294.5 421.2,289.5C420.6,284.4 420.9,281 420.9,281L421.3,280.9Z" style="fill:black;fill-opacity:0.1;fill-rule:nonzero;"/>
        </g>
        <g transform="matrix(1.47896,0,0,1.53386,-90.158,-164.473)">
            <path d="M627.4,300C627.4,300 608.1,283.9 575.3,296.2C544.4,307.8 525.1,326.7 495.7,326.7C489.7,326.7 483.2,322.4 477.5,317C484.1,324 492.3,330.7 499.7,330.7C529.1,330.7 548.4,311.7 579.3,300.2C612.1,287.9 631.4,304 631.4,304L627.4,300Z" style="fill:black;fill-opacity:0.05;fill-rule:nonzero;"/>
        </g>
        <g transform="matrix(1.47896,0,0,1.53386,-90.158,-164.473)">
            <path d="M567.7,262.8C567.7,262.8 567.5,262.7 567,262.7C566.6,262.6 565.9,262.5 565.1,262.4C564.3,262.2 563.3,262.1 562.1,261.9C561.5,261.8 560.9,261.7 560.3,261.6C559.7,261.5 559,261.4 558.3,261.3C556.9,261.1 555.4,260.9 553.8,260.7C552.2,260.5 550.5,260.4 548.7,260.2C546.9,260 545.1,259.9 543.3,259.7C541.4,259.6 539.6,259.4 537.7,259.3C535.8,259.2 533.9,259 532.1,259C530.2,259 528.4,258.7 526.6,258.7C524.8,258.7 523.1,258.6 521.5,258.5C519.9,258.5 518.3,258.4 516.9,258.3C515.5,258.2 514.1,258.2 513,258.1C511.8,258.1 510.8,258 510,257.9C509.2,257.8 508.5,257.8 508,257.7C507.5,257.7 507.3,257.6 507.3,257.6L507.3,257.3C507.3,257.3 508.3,257.2 509.9,257C510.7,256.9 511.8,256.8 512.9,256.7C514.1,256.6 515.4,256.5 516.8,256.4C518.2,256.3 519.8,256.2 521.4,256.1C523.1,256.1 524.8,256 526.6,256C528.4,255.9 530.3,256 532.2,256C534.1,256 536,256.1 537.9,256.2C539.8,256.3 541.7,256.5 543.6,256.7C545.5,256.9 547.3,257.2 549.1,257.4C550.9,257.7 552.6,258 554.2,258.3C555.8,258.6 557.3,259 558.7,259.3C560.1,259.7 561.4,260 562.5,260.4C563.6,260.7 564.6,261.1 565.4,261.4C567,262 567.9,262.4 567.9,262.4L567.7,262.8Z" style="fill:black;fill-opacity:0.05;fill-rule:nonzero;"/>
        </g>
        <g transform="matrix(1.47896,0,0,1.53386,-90.158,-164.473)">
            <path d="M554.9,413.5C554.9,413.5 554.7,413.6 554.5,413.8C554.2,414 553.8,414.3 553.2,414.6C552.6,414.9 551.9,415.3 551,415.7C550.6,415.9 550.1,416.1 549.6,416.3C549.1,416.5 548.6,416.6 548,416.8C546.9,417.1 545.7,417.4 544.3,417.6C543,417.8 541.5,417.9 540.1,417.9C538.6,417.9 537.1,417.8 535.5,417.4C533.9,417.1 532.4,416.6 530.8,416.1C530,415.8 529.3,415.4 528.6,415.1C527.9,414.7 527.2,414.3 526.5,413.9C525.8,413.5 525.2,413 524.6,412.5C524.3,412.2 524,412 523.7,411.7C523.4,411.4 523.1,411.2 522.9,410.9C522.4,410.4 521.8,409.8 521.4,409.2C520.9,408.6 520.5,408.1 520.1,407.5C519.3,406.4 518.7,405.2 518.2,404.2C517.7,403.1 517.3,402.1 517.1,401.2C516.8,400.3 516.6,399.5 516.6,398.8C516.5,398.1 516.5,397.6 516.4,397.2C516.4,396.8 516.4,396.6 516.4,396.6L516.8,396.4C516.8,396.4 517.1,397 517.7,398.2C518,398.8 518.4,399.4 518.8,400.2C519.2,401 519.8,401.8 520.4,402.7C521.1,403.6 521.7,404.5 522.6,405.4C523,405.9 523.4,406.3 523.9,406.8C524.1,407 524.4,407.3 524.6,407.5C524.9,407.7 525.1,407.9 525.4,408.1C525.9,408.5 526.4,408.9 527,409.3C527.5,409.7 528.2,410.1 528.7,410.4C529.3,410.8 529.9,411.1 530.6,411.4C531.2,411.7 531.9,412 532.6,412.2C533.9,412.7 535.3,413.2 536.7,413.5C538.1,413.8 539.4,414.1 540.8,414.2C543.5,414.5 546,414.4 548.1,414.2C550.2,414 552,413.7 553.2,413.4C554.4,413.1 555.1,412.9 555.1,412.9L554.9,413.5Z" style="fill:black;fill-opacity:0.1;fill-rule:nonzero;"/>
        </g>
        <g transform="matrix(1.47896,0,0,1.53386,-90.158,-164.473)">
            <path d="M629.5,525.7C629.5,525.7 628.4,536.4 627.7,543.8L626.1,543.5C624.9,533.8 623.2,515.4 623.2,515.4L629.5,525.7Z" style="fill:black;fill-opacity:0.05;fill-rule:nonzero;"/>
        </g>
        <g transform="matrix(1.47896,0,0,1.53386,-90.158,-164.473)">
            <path d="M768.3,333.8C772.1,346.3 772.1,358.7 766.9,362.7C759,368.7 667.7,459.4 667,581.1L676.9,594.8C681,476.6 769.2,388.6 776.9,382.7C785,376.5 780.4,349.5 768.3,333.8Z" style="fill:black;fill-opacity:0.05;fill-rule:nonzero;"/>
        </g>
        <g transform="matrix(1.47896,0,0,1.53386,-90.158,-164.473)">
            <path d="M528.4,513L525,544.3L524.6,544.4C524.3,537.9 523.4,520.1 522.2,517.4L528.4,513Z" style="fill:black;fill-opacity:0.05;fill-rule:nonzero;"/>
        </g>
        <g transform="matrix(1.47896,0,0,1.53386,-90.158,-164.473)">
            <clipPath id="_clip1">
                <rect x="694" y="429.461" width="242.752" height="169.468"/>
            </clipPath>
            <g clip-path="url(#_clip1)">
                <g opacity="0.05">
                    <path d="M805.1,544C809.4,548 811.2,552.6 808.9,557.7C802.8,570.8 744.9,576 725,562.5C725,562.5 737.8,587.2 723.1,588.7C714.7,589.6 704.1,587.9 694,584.5C707.3,594.2 728.6,600.2 743.1,598.7C757.8,597.2 745,572.5 745,572.5C764.9,586 822.8,580.8 828.9,567.7C833.6,557.4 821.2,548.7 805.1,544Z" style="fill:black;fill-rule:nonzero;"/>
                    <path d="M933.6,431.5C930.3,428.9 924.2,429 916.7,430.6C914.7,456.9 857.3,522.1 758.4,530.4C771,530.2 785.7,533.2 796.1,538.2C898.7,521.8 950.5,444.6 933.6,431.5Z" style="fill:black;fill-rule:nonzero;"/>
                </g>
            </g>
        </g>
        <g transform="matrix(1.47896,0,0,1.53386,-90.158,-164.473)">
            <clipPath id="_clip2">
                <rect x="182.1" y="509.4" width="104.9" height="91.9"/>
            </clipPath>
            <g clip-path="url(#_clip2)">
                <g opacity="0.05">
                    <path d="M287,592.7C245.5,595.6 209.9,587.7 182.1,575.8C202.3,587.4 228.4,597.3 259.3,601.3C267.7,597.1 277.8,593.9 287,592.7Z" style="fill:black;fill-rule:nonzero;"/>
                    <path d="M213.3,514.8C213.4,514.7 213.5,514.7 213.6,514.6C209.9,512.9 206.3,511.1 202.7,509.4C206.2,511.2 209.7,513 213.3,514.8Z" style="fill:black;fill-rule:nonzero;"/>
                </g>
            </g>
        </g>
        <g transform="matrix(1.47896,0,0,1.53386,-90.158,-164.473)">
            <path d="M477.3,555.6L461.1,562C461.1,562 468.8,557 469.2,548.4L474.8,553.2L477.3,555.6Z" style="fill:black;fill-opacity:0.05;fill-rule:nonzero;"/>
        </g>
        <g transform="matrix(1.47896,0,0,1.53386,-90.158,-164.473)">
            <path d="M420.5,592.3C404.3,613 490.7,608.2 533.8,608.1C569.6,608 617,608.2 628.1,608.2C656.1,608.2 653.6,561.9 644.9,551C630.2,532.9 468.7,530.5 420.5,592.3Z" style="fill:black;fill-opacity:0.05;fill-rule:nonzero;"/>
        </g>
        <g transform="matrix(1.47896,0,0,1.53386,-90.158,-164.473)">
            <path d="M481.8,554.1C472.4,548.7 462.1,541.4 451.3,532.8C449.6,533.6 448.2,534 447.2,534.1C446.9,534.1 446.6,534.1 446.3,534.2C453.4,539.2 460.1,543.4 466.3,546.7C469.5,548.4 471,549.6 477.2,555.7L481.8,554.1Z" style="fill:black;fill-opacity:0.05;fill-rule:nonzero;"/>
        </g>
        <g transform="matrix(1.47896,0,0,1.53386,-90.158,-164.473)">
            <path d="M425.2,592.3C410.2,611.5 490.3,607.1 530.2,606.9C563.4,606.8 607.4,607 617.6,607C643.5,607 641.3,564.1 633.1,554C619.6,537.3 469.9,535.1 425.2,592.3Z" style="fill:rgb(229,255,255);fill-rule:nonzero;"/>
        </g>
    </g>
</svg>
