<?xml version="1.0" encoding="UTF-8" standalone="no"?>
<svg width="405px" height="214px" viewBox="0 0 405 214" version="1.1" xmlns="http://www.w3.org/2000/svg" xmlns:xlink="http://www.w3.org/1999/xlink">
    <!-- Generator: Sketch 41.2 (35397) - http://www.bohemiancoding.com/sketch -->
    <title>M.2elody_ S.2tarling</title>
    <desc>Created with Sketch.</desc>
    <defs></defs>
    <g id="Page-1" stroke="none" stroke-width="1" fill="none" fill-rule="evenodd">
        <path d="M43.05,25 C43.05,25 43.85,42.7 42.25,55.8 C40.65,68.9 31.45,72.3 31.45,72.3 C33.55,82.9 41.75,92.6 41.75,92.6 C47.25,92 62.45,86.1 64.95,72.3 C67.45,58.5 65.35,44.9 65.35,44.9 C69.05,54.3 76.45,63.5 76.45,63.5 C81.15,59.1 91.35,46 91.35,46 L89.45,78.2 C103.95,79.8 115.25,78.2 115.25,78.2 L115.25,4.5 C106.75,3.5 91.65,4.6 91.65,4.6 C86.85,13.1 78.95,32.6 78.95,32.6 C74.45,19.4 66.35,2 66.35,2 C34.95,-2.6 0.05,5.6 0.05,36.8 C0.05,68 31.95,64.3 31.95,64.3 C35.25,53 34.95,43.6 34.95,43.6 C34.95,43.6 26.85,43.8 26.85,34.9 C26.85,23.8 43.05,25 43.05,25 Z M164.15,54.5 C161.35,57.1 155.45,60.6 149.25,60.2 C146.15,60 142.75,58 142.75,53.8 C158.05,52.2 170.65,50.4 170.65,50.4 C170.65,41.2 171.15,18.8 147.05,18.8 C125.75,18.8 122.35,35.8 121.75,46.6 C121.25,54.6 122.75,63 126.45,69.3 C130.45,76.1 139.75,79.8 149.15,79.8 C165.65,79.8 173.35,66.9 173.35,66.9 C171.45,64.1 167.05,57.8 164.15,54.5 Z M151.85,39.8 C147.15,40.2 147.45,40.2 141.55,40.5 C141.45,35.9 143.25,32.8 147.05,32.8 C149.65,32.8 152.15,35.6 151.85,39.8 Z M200.45,3.2 C187.55,2.4 176.45,3.9 176.45,3.9 C175.45,28.5 176.05,56.7 176.75,78.7 C180.15,78.8 193.65,79.2 199.45,78.7 C200.05,53.1 200.55,28.9 200.45,3.2 Z M258.35,42.2 C256.85,26.5 246.65,16 229.45,17.9 C222.95,18.6 218.35,20.3 214.65,23.5 C201.35,35 203.75,69.4 218.55,77.1 C228.25,82.1 242.55,80.5 249.55,74.6 C256.65,68.7 259.55,54.6 258.35,42.2 Z M230.55,56.6 C226.05,55.2 224.45,48.5 225.75,43.2 C227.25,38.2 234.35,37.8 237.25,40.8 C242.45,46.2 239.05,59.3 230.55,56.6 Z M317.55,78 C317.25,53.8 316.95,27.9 316.55,4.3 C310.45,3.2 294.55,3.6 290.55,4 C290.15,10.4 290.45,19.7 290.75,22.7 C272.35,25.4 259.25,38.9 264.05,66.4 C264.95,71.5 267.35,77.7 273.55,79.4 C283.15,82 290.45,77.4 294.25,73.5 C294.35,76.9 294.55,79.1 294.85,79.1 C301.25,79.5 313.65,79 317.55,78 Z M288.15,60.6 C278.95,60.7 281.45,44 292.35,45.6 C292.45,45.8 292.75,58.6 292.75,58.7 C292.75,58.8 291.25,60.6 288.15,60.6 Z M398.35,23.8 C388.45,12.1 366.85,12.5 356.65,24.1 C348.35,33.5 350.55,49 350.55,49 C347.25,49.3 343.35,49 342.85,35.6 C342.55,32.2 342.65,28.3 342.85,25 C342.85,24.2 343.15,21.2 343.15,20.3 C335.85,19.9 329.75,19.9 322.35,19.9 C321.45,35.7 322.05,56.6 331.25,63.7 C339.45,70.1 346.65,67 346.65,67 C346.15,68 345.65,69 345.05,69.9 C338.85,79.2 325.35,77.9 325.35,77.9 C325.35,77.9 325.95,87 329.65,94.5 C329.65,94.5 332.35,94.8 335.55,94.9 C335.55,94.9 336.55,95 338.25,94.9 C339.75,94.8 341.35,94.7 342.55,94.4 C349.85,93.1 360.85,89.1 365.35,76.4 C365.55,75.9 365.65,75.5 365.85,75 C365.95,74.8 366.05,74.5 366.05,74.3 C366.45,73.3 366.65,72.2 366.95,71.2 C367.25,69.9 367.45,68.7 367.65,67.6 C369.35,58.1 368.45,50.9 369.85,46.3 C371.45,40.5 375.75,41.1 375.75,41.1 C376.75,41.3 378.15,41.7 379.05,42.8 L379.25,43 C379.85,43.9 380.25,45 380.25,46.1 C380.15,47.2 379.95,49.8 377.25,52.1 L374.05,55.3 C374.05,55.3 383.45,63.6 391.85,67.4 C391.85,67.4 402.45,62.1 404.15,45.5 C404.35,43.9 404.45,42.2 404.45,40.4 C404.45,33.5 402.15,27.9 398.35,23.8 Z M64,127 C27.5,109.9 10.4,128.4 10.1,144.5 C9.8,158.6 20.5,162.6 26.8,166.4 C33.1,170.2 39,172.4 39,179.5 C39,187.2 32.7,187.3 32.7,187.3 C21.2,187.7 25.9,174.3 25.9,174.3 C14.9,168.2 2.5,169.1 2.5,169.1 C-6.5,199.7 16.4,212.4 31.6,212.4 C46.8,212.4 64.6,204.4 64.6,183.7 C64.6,166.4 55.4,160.1 42,153.7 C35.8,150.8 35.8,147.2 37.3,144.6 C41.1,137.9 55.9,149 55.9,149 C60.9,141.3 64,127 64,127 Z M96.3,124.9 C88.6,124.8 80,124.6 73.3,125.6 C73.1,130.1 73,135.5 73.2,140.4 C71.3,140.4 69.7,140.5 67.3,140.8 C67,143.9 67,154.6 67.7,158.6 C69.9,159 71.5,158.9 72.9,158.9 C72.8,171.1 71.2,185 76.1,193.2 C81.2,202 96.7,202.8 106.6,197.9 C106.2,192.4 105.6,182.8 104.8,177.9 C92.6,178.8 96,172.5 96,159.1 C99.4,159.3 101.7,159.2 104.8,158.8 C105.2,154.5 105.7,143.3 105,139.1 C101.8,138.9 97.7,139 96,139.2 C96.4,132.7 96.4,128.7 96.3,124.9 Z M158.3,172.3 C158.3,160.7 158.3,138.3 135.6,138.3 C119.8,138.3 112.2,144.6 112.2,144.6 C112.2,144.6 113.3,158.4 117.6,164 C117.6,164 125.3,158.9 130.7,158.9 C136.2,158.9 135.9,164.4 135.9,165.9 C135.9,165.9 108.2,162.8 109.9,187.5 C110.9,202.7 129.2,201.3 138.1,194.2 C138.4,195.9 138.9,198 139.2,199.1 C146.5,199.1 154.2,198.6 158.2,198.1 C158.2,193.6 158.3,181.3 158.3,172.3 Z M136.7,176.1 C137,179.9 137,180.3 137.2,182.8 C135.4,184.9 131.1,185.8 130,182.7 C128.7,178.6 131.8,176.1 136.7,176.1 Z M201.7,140.2 C188.9,140.2 186.1,144.2 183.7,148.3 C183.2,144.5 182.9,138.8 182.9,138.8 C173.2,138.5 163.1,139.5 163.1,139.5 C162.3,162.1 162.9,198.8 162.9,198.8 C176.5,199.4 187.3,198.3 187.3,198.3 C187.3,191.2 185.8,182.5 185.4,175.5 C184.7,159.5 199.4,168.3 201.7,167.5 C203.4,150.9 201.7,140.2 201.7,140.2 Z M230.4,123.2 C217.5,122.4 206.4,123.9 206.4,123.9 C205.4,148.5 206,176.7 206.7,198.7 C210.1,198.8 223.6,199.2 229.4,198.7 C230,173.1 230.5,148.9 230.4,123.2 Z M259.1,140.7 C259.3,157.5 259,184.2 258.1,198.8 C251.9,199 244.4,199.3 236.9,198.8 C236.3,183.8 236.3,157.7 235.9,141.1 C242,140.6 251,140.4 259.1,140.7 Z M248.7,113.3 C255,113.6 259.7,118.5 259.6,124.3 C259.4,130.1 256.9,135 249.8,135.9 C242.7,136.8 233.4,132.9 235.2,122.6 C237,112.3 248.7,113.3 248.7,113.3 Z M285.6,139.2 C279.4,139 270.1,139.5 263.6,140.2 C263.9,161 263.6,177.9 264.3,199 C272.2,199.5 280.4,199.3 285.4,199.1 C285.4,173.2 285.5,159.5 290.8,160 C295.8,160 293.6,170.6 293.6,199.1 C301.4,199.1 307.9,199.5 316.6,198.6 C317,182.7 321.1,145 308.5,140.4 C298.1,136.6 289.5,143.5 286.2,149 C285.7,146.2 285.9,143.2 285.6,139.2 Z M373.2,139.3 C366.9,138.8 354.9,138.5 352.7,138.8 C352.6,138.9 352.4,141.1 352.4,143.4 C344.7,136.7 330.8,138.9 325.5,148.8 C319.6,160 319.8,181.8 330.5,187 C335.1,189.2 344.5,189.1 349.6,187.6 C350,197.4 333.1,193.6 326.1,191.5 C324.8,195.8 324.2,204.2 324.2,209 C353.1,220 372.4,208.9 372.4,178.5 C372.4,165.5 373.1,152.8 373.2,139.3 Z M351.1,172.1 C335.7,177.1 338.3,155.3 351.4,162.2 C351.2,168 351,168.3 351.1,172.1 Z M403.6,124.8 C394.9,124.8 385.3,125 378.3,125.5 C378.2,140.5 377.9,159.4 379.2,173.8 C387.6,173.8 395.5,173.9 402.6,173.8 C402.8,157.5 403.9,140.5 403.6,124.8 Z M388,179 C380.6,180 375.5,187.3 378.6,195.3 C381.9,203.9 401.5,203.2 403.3,193.9 C405.3,183.7 395.9,177.9 388,179 Z" id="M.2elody_-S.2tarling" fill="#000000"></path>
    </g>
</svg>