<?xml version="1.0" encoding="UTF-8" standalone="no"?>
<svg width="402px" height="214px" viewBox="0 0 402 214" version="1.1" xmlns="http://www.w3.org/2000/svg" xmlns:xlink="http://www.w3.org/1999/xlink">
    <!-- Generator: Sketch 41.2 (35397) - http://www.bohemiancoding.com/sketch -->
    <title>M.2elody_ S.2tarling</title>
    <desc>Created with Sketch.</desc>
    <defs></defs>
    <g id="Page-1" stroke="none" stroke-width="1" fill="none" fill-rule="evenodd">
        <path d="M43.1,25 C43.1,25 43.9,42.7 42.3,55.8 C40.7,68.9 31.5,72.3 31.5,72.3 C33.6,82.9 41.8,92.6 41.8,92.6 C47.3,92 62.5,86.1 65,72.3 C67.5,58.5 65.4,44.9 65.4,44.9 C69.1,54.3 76.5,63.5 76.5,63.5 C81.2,59.1 91.4,46 91.4,46 L89.5,78.2 C104,79.8 115.3,78.2 115.3,78.2 L115.3,4.5 C106.8,3.5 91.7,4.6 91.7,4.6 C86.9,13.1 79,32.6 79,32.6 C74.5,19.4 66.4,2 66.4,2 C35,-2.6 0.1,5.6 0.1,36.8 C0.1,68 32,64.3 32,64.3 C35.3,53 35,43.6 35,43.6 C35,43.6 26.9,43.8 26.9,34.9 C26.9,23.8 43.1,25 43.1,25 Z M162.7,54.5 C159.9,57.1 154,60.6 147.8,60.2 C144.7,60 141.3,58 141.3,53.8 C156.6,52.2 169.2,50.4 169.2,50.4 C169.2,41.2 169.7,18.8 145.6,18.8 C124.3,18.8 120.9,35.8 120.3,46.6 C119.8,54.6 121.3,63 125,69.3 C129,76.1 138.3,79.8 147.7,79.8 C164.2,79.8 171.9,66.9 171.9,66.9 C170,64.1 165.6,57.8 162.7,54.5 Z M150.4,39.8 C145.7,40.2 146,40.2 140.1,40.5 C140,35.9 141.8,32.8 145.6,32.8 C148.2,32.8 150.7,35.6 150.4,39.8 Z M199,3.2 C186.1,2.4 175,3.9 175,3.9 C174,28.5 174.6,56.7 175.3,78.7 C178.7,78.8 192.2,79.2 198,78.7 C198.6,53.1 199.1,28.9 199,3.2 Z M255.4,42.2 C253.9,26.5 243.7,16 226.5,17.9 C220,18.6 215.4,20.3 211.7,23.5 C198.4,35 200.8,69.4 215.6,77.1 C225.3,82.1 239.6,80.5 246.6,74.6 C253.7,68.7 256.6,54.6 255.4,42.2 Z M227.6,56.6 C223.1,55.2 221.5,48.5 222.8,43.2 C224.3,38.2 231.4,37.8 234.3,40.8 C239.5,46.2 236.1,59.3 227.6,56.6 Z M314.6,78 C314.3,53.8 314,27.9 313.6,4.3 C307.5,3.2 291.6,3.6 287.6,4 C287.2,10.4 287.5,19.7 287.8,22.7 C269.4,25.4 256.3,38.9 261.1,66.4 C262,71.5 264.4,77.7 270.6,79.4 C280.2,82 287.5,77.4 291.3,73.5 C291.4,76.9 291.6,79.1 291.9,79.1 C298.3,79.5 310.7,79 314.6,78 Z M285.2,60.6 C276,60.7 278.5,44 289.4,45.6 C289.5,45.8 289.8,58.6 289.8,58.7 C289.8,58.8 288.3,60.6 285.2,60.6 Z M395.4,23.8 C385.5,12.1 363.9,12.5 353.7,24.1 C345.4,33.5 347.6,49 347.6,49 C344.3,49.3 340.4,49 339.9,35.6 C339.6,32.2 339.7,28.3 339.9,25 C339.9,24.2 340.2,21.2 340.2,20.3 C332.9,19.9 326.8,19.9 319.4,19.9 C318.5,35.7 319.1,56.6 328.3,63.7 C336.5,70.1 343.7,67 343.7,67 C343.2,68 342.7,69 342.1,69.9 C335.9,79.2 322.4,77.9 322.4,77.9 C322.4,77.9 323,87 326.7,94.5 C326.7,94.5 329.4,94.8 332.6,94.9 C332.6,94.9 333.6,95 335.3,94.9 C336.8,94.8 338.4,94.7 339.6,94.4 C346.9,93.1 357.9,89.1 362.4,76.4 C362.6,75.9 362.7,75.5 362.9,75 C363,74.8 363.1,74.5 363.1,74.3 C363.5,73.3 363.7,72.2 364,71.2 C364.3,69.9 364.5,68.7 364.7,67.6 C366.4,58.1 365.5,50.9 366.9,46.3 C368.5,40.5 372.8,41.1 372.8,41.1 C373.8,41.3 375.2,41.7 376.1,42.8 L376.3,43 C376.9,43.9 377.3,45 377.3,46.1 C377.2,47.2 377,49.8 374.3,52.1 L371.1,55.3 C371.1,55.3 380.5,63.6 388.9,67.4 C388.9,67.4 399.5,62.1 401.2,45.5 C401.4,43.9 401.5,42.2 401.5,40.4 C401.5,33.5 399.2,27.9 395.4,23.8 Z M63.7,127 C27.2,109.9 10.1,128.4 9.8,144.5 C9.5,158.6 20.2,162.6 26.5,166.4 C32.8,170.2 38.7,172.4 38.7,179.5 C38.7,187.2 32.4,187.3 32.4,187.3 C20.9,187.7 25.6,174.3 25.6,174.3 C14.6,168.2 2.2,169.1 2.2,169.1 C-6.8,199.7 16.1,212.4 31.3,212.4 C46.5,212.4 64.3,204.4 64.3,183.7 C64.3,166.4 55.1,160.1 41.7,153.7 C35.5,150.8 35.5,147.2 37,144.6 C40.8,137.9 55.6,149 55.6,149 C60.6,141.3 63.7,127 63.7,127 Z M93.6,124.9 C85.9,124.8 77.3,124.6 70.6,125.6 C70.4,130.1 70.3,135.5 70.5,140.4 C68.6,140.4 67,140.5 64.6,140.8 C64.3,143.9 64.3,154.6 65,158.6 C67.2,159 68.8,158.9 70.2,158.9 C70.1,171.1 68.5,185 73.4,193.2 C78.5,202 94,202.8 103.9,197.9 C103.5,192.4 102.9,182.8 102.1,177.9 C89.9,178.8 93.3,172.5 93.3,159.1 C96.7,159.3 99,159.2 102.1,158.8 C102.5,154.5 103,143.3 102.3,139.1 C99.1,138.9 95,139 93.3,139.2 C93.7,132.7 93.7,128.7 93.6,124.9 Z M154,172.3 C154,160.7 154,138.3 131.3,138.3 C115.5,138.3 107.9,144.6 107.9,144.6 C107.9,144.6 109,158.4 113.3,164 C113.3,164 121,158.9 126.4,158.9 C131.9,158.9 131.6,164.4 131.6,165.9 C131.6,165.9 103.9,162.8 105.6,187.5 C106.6,202.7 124.9,201.3 133.8,194.2 C134.1,195.9 134.6,198 134.9,199.1 C142.2,199.1 149.9,198.6 153.9,198.1 C153.9,193.6 154,181.3 154,172.3 Z M132.4,176.1 C132.7,179.9 132.7,180.3 132.9,182.8 C131.1,184.9 126.8,185.8 125.7,182.7 C124.4,178.6 127.5,176.1 132.4,176.1 Z M198.6,140.2 C185.8,140.2 183,144.2 180.6,148.3 C180.1,144.5 179.8,138.8 179.8,138.8 C170.1,138.5 160,139.5 160,139.5 C159.2,162.1 159.8,198.8 159.8,198.8 C173.4,199.4 184.2,198.3 184.2,198.3 C184.2,191.2 182.7,182.5 182.3,175.5 C181.6,159.5 196.3,168.3 198.6,167.5 C200.3,150.9 198.6,140.2 198.6,140.2 Z M227.3,123.2 C214.4,122.4 203.3,123.9 203.3,123.9 C202.3,148.5 202.9,176.7 203.6,198.7 C207,198.8 220.5,199.2 226.3,198.7 C226.9,173.1 227.4,148.9 227.3,123.2 Z M256,140.7 C256.2,157.5 255.9,184.2 255,198.8 C248.8,199 241.3,199.3 233.8,198.8 C233.2,183.8 233.2,157.7 232.8,141.1 C238.9,140.6 247.9,140.4 256,140.7 Z M245.6,113.3 C251.9,113.6 256.6,118.5 256.5,124.3 C256.3,130.1 253.8,135 246.7,135.9 C239.6,136.8 230.3,132.9 232.1,122.6 C233.9,112.3 245.6,113.3 245.6,113.3 Z M283.7,139.2 C277.5,139 268.2,139.5 261.7,140.2 C262,161 261.7,177.9 262.4,199 C270.3,199.5 278.5,199.3 283.5,199.1 C283.5,173.2 283.6,159.5 288.9,160 C293.9,160 291.7,170.6 291.7,199.1 C299.5,199.1 306,199.5 314.7,198.6 C315.1,182.7 319.2,145 306.6,140.4 C296.2,136.6 287.6,143.5 284.3,149 C283.8,146.2 284,143.2 283.7,139.2 Z M371.3,139.3 C365,138.8 353,138.5 350.8,138.8 C350.7,138.9 350.5,141.1 350.5,143.4 C342.8,136.7 328.9,138.9 323.6,148.8 C317.7,160 317.9,181.8 328.6,187 C333.2,189.2 342.6,189.1 347.7,187.6 C348.1,197.4 331.2,193.6 324.2,191.5 C322.9,195.8 322.3,204.2 322.3,209 C351.2,220 370.5,208.9 370.5,178.5 C370.5,165.5 371.2,152.8 371.3,139.3 Z M349.2,172.1 C333.8,177.1 336.4,155.3 349.5,162.2 C349.3,168 349.1,168.3 349.2,172.1 Z M401.7,124.8 C393,124.8 383.4,125 376.4,125.5 C376.3,140.5 376,159.4 377.3,173.8 C385.7,173.8 393.6,173.9 400.7,173.8 C400.9,157.5 402,140.5 401.7,124.8 Z M386.1,179 C378.7,180 373.6,187.3 376.7,195.3 C380,203.9 399.6,203.2 401.4,193.9 C403.4,183.7 394,177.9 386.1,179 Z" id="M.2elody_-S.2tarling" fill="#000000"></path>
    </g>
</svg>