<?xml version="1.0" encoding="UTF-8" standalone="no"?>
<svg width="284px" height="156px" viewBox="0 0 284 156" version="1.1" xmlns="http://www.w3.org/2000/svg" xmlns:xlink="http://www.w3.org/1999/xlink">
    <!-- Generator: Sketch 41.2 (35397) - http://www.bohemiancoding.com/sketch -->
    <title>V.2ictor_ S.2tarling</title>
    <desc>Created with Sketch.</desc>
    <defs></defs>
    <g id="Page-2" stroke="none" stroke-width="1" fill="none" fill-rule="evenodd">
        <g id="Artboard-2" transform="translate(-255.000000, -359.000000)" fill="#090915">
            <path d="M318.394,367.276 C315.55,382.681 313.575,408.514 313.575,408.514 L310.731,408.514 C310.968,398.718 310.652,391.055 309.23,385.051 C305.359,364.195 289.954,364.432 285.451,364.195 L285.214,364.195 C277.788,364.195 255.51,365.38 255.51,389.633 C255.51,415.071 280.869,412.069 280.869,412.069 C283.081,405.038 283.476,395.479 283.476,395.479 C277.393,395.479 276.84,390.344 276.84,389.159 C276.84,387.974 277.156,382.523 282.449,382.523 C287.347,382.523 288.453,386.078 290.349,397.849 C292.245,409.541 294.062,427 294.062,427 C310.731,428.343 328.506,426.842 328.506,426.842 C332.14,411.358 339.013,368.777 339.013,368.777 C331.113,367.118 318.394,367.276 318.394,367.276 Z M359.79,380.943 C359.948,394.215 359.711,415.308 359,426.842 C354.102,427 348.177,427.237 342.252,426.842 C341.778,414.992 341.778,394.373 341.462,381.259 C346.281,380.864 353.391,380.706 359.79,380.943 Z M351.574,359.297 C356.551,359.534 360.264,363.405 360.185,367.987 C360.027,372.569 358.052,376.44 352.443,377.151 C346.834,377.862 339.487,374.781 340.909,366.644 C342.331,358.507 351.574,359.297 351.574,359.297 Z M391.943,398.323 C395.024,394.926 398.658,386.631 398.658,386.631 C396.762,383.708 393.523,378.889 384.122,378.889 C374.879,378.889 367.611,386.394 365.241,393.03 C359.395,409.62 367.374,430.16 385.544,427.316 C391.627,426.368 396.841,420.68 398.737,414.518 C396.367,411.121 394.076,408.04 390.837,405.038 C388.546,406.855 387.282,410.015 382.463,408.356 C379.856,407.487 378.513,403.142 379.698,400.298 C382.147,394.452 388.151,395.637 391.943,398.323 Z M422.832,368.461 C416.749,368.382 409.955,368.224 404.662,369.014 C404.504,372.569 404.425,376.835 404.583,380.706 C403.082,380.706 401.818,380.785 399.922,381.022 C399.685,383.471 399.685,391.924 400.238,395.084 C401.976,395.4 403.24,395.321 404.346,395.321 C404.267,404.959 403.003,415.94 406.874,422.418 C410.903,429.37 423.148,430.002 430.969,426.131 C430.653,421.786 430.179,414.202 429.547,410.331 C419.909,411.042 422.595,406.065 422.595,395.479 C425.281,395.637 427.098,395.558 429.547,395.242 C429.863,391.845 430.258,382.997 429.705,379.679 C427.177,379.521 423.938,379.6 422.595,379.758 C422.911,374.623 422.911,371.463 422.832,368.461 Z M473.076,397.928 C471.891,385.525 463.833,377.23 450.245,378.731 C445.11,379.284 441.476,380.627 438.553,383.155 C428.046,392.24 429.942,419.416 441.634,425.499 C449.297,429.449 460.594,428.185 466.124,423.524 C471.733,418.863 474.024,407.724 473.076,397.928 Z M451.114,409.304 C447.559,408.198 446.295,402.905 447.322,398.718 C448.507,394.768 454.116,394.452 456.407,396.822 C460.515,401.088 457.829,411.437 451.114,409.304 Z M534.617,393.267 C525.374,394.926 519.054,399.508 519.054,399.508 C520.397,401.404 524.189,407.171 520.081,409.857 C517.395,411.595 513.919,410.41 512.655,406.302 C512.418,405.591 511.47,404.09 511.075,403.537 C513.603,402.194 518.027,398.797 518.027,390.66 C518.027,380.706 510.601,378.652 505.545,378.652 C496.934,378.652 493.221,386.315 493.221,386.315 L492.747,379.363 C485.084,379.126 477.105,379.916 477.105,379.916 C476.473,397.849 476.947,426.842 476.947,426.842 C487.691,427.316 495.828,426.447 495.828,426.447 C495.749,425.341 495.67,424.314 495.512,423.287 C495.117,419.811 494.959,413.886 494.88,408.751 L496.065,408.751 C496.618,408.83 497.25,408.909 497.724,409.146 C498.988,409.778 499.383,411.358 499.699,412.938 C501.042,418.231 502.148,426.21 510.838,428.58 C513.366,429.291 516.21,429.528 519.054,429.528 C527.191,429.528 537.066,423.208 538.488,411.042 C539.91,398.797 534.617,393.267 534.617,393.267 Z M501.121,396.19 C500.963,397.296 500.252,399.429 497.645,399.429 L494.564,399.429 L494.564,394.136 C494.564,394.136 495.591,392.398 498.277,392.398 C500.884,392.398 501.279,394.926 501.121,396.19 Z M301.06,454.6 C275.51,442.63 263.54,455.58 263.33,466.85 C263.12,476.72 270.61,479.52 275.02,482.18 C279.43,484.84 283.56,486.38 283.56,491.35 C283.56,496.74 279.15,496.81 279.15,496.81 C271.1,497.09 274.39,487.71 274.39,487.71 C266.69,483.44 258.01,484.07 258.01,484.07 C251.71,505.49 267.74,514.38 278.38,514.38 C289.02,514.38 301.48,508.78 301.48,494.29 C301.48,482.18 295.04,477.77 285.66,473.29 C281.32,471.26 281.32,468.74 282.37,466.92 C285.03,462.23 295.39,470 295.39,470 C298.89,464.61 301.06,454.6 301.06,454.6 Z M321.99,453.13 C316.6,453.06 310.58,452.92 305.89,453.62 C305.75,456.77 305.68,460.55 305.82,463.98 C304.49,463.98 303.37,464.05 301.69,464.26 C301.48,466.43 301.48,473.92 301.97,476.72 C303.51,477 304.63,476.93 305.61,476.93 C305.54,485.47 304.42,495.2 307.85,500.94 C311.42,507.1 322.27,507.66 329.2,504.23 C328.92,500.38 328.5,493.66 327.94,490.23 C319.4,490.86 321.78,486.45 321.78,477.07 C324.16,477.21 325.77,477.14 327.94,476.86 C328.22,473.85 328.57,466.01 328.08,463.07 C325.84,462.93 322.97,463 321.78,463.14 C322.06,458.59 322.06,455.79 321.99,453.13 Z M364.27,486.31 C364.27,478.19 364.27,462.51 348.38,462.51 C337.32,462.51 332,466.92 332,466.92 C332,466.92 332.77,476.58 335.78,480.5 C335.78,480.5 341.17,476.93 344.95,476.93 C348.8,476.93 348.59,480.78 348.59,481.83 C348.59,481.83 329.2,479.66 330.39,496.95 C331.09,507.59 343.9,506.61 350.13,501.64 C350.34,502.83 350.69,504.3 350.9,505.07 C356.01,505.07 361.4,504.72 364.2,504.37 C364.2,501.22 364.27,492.61 364.27,486.31 Z M349.15,488.97 C349.36,491.63 349.36,491.91 349.5,493.66 C348.24,495.13 345.23,495.76 344.46,493.59 C343.55,490.72 345.72,488.97 349.15,488.97 Z M395.49,463.84 C386.53,463.84 384.57,466.64 382.89,469.51 C382.54,466.85 382.33,462.86 382.33,462.86 C375.54,462.65 368.47,463.35 368.47,463.35 C367.91,479.17 368.33,504.86 368.33,504.86 C377.85,505.28 385.41,504.51 385.41,504.51 C385.41,499.54 384.36,493.45 384.08,488.55 C383.59,477.35 393.88,483.51 395.49,482.95 C396.68,471.33 395.49,463.84 395.49,463.84 Z M415.58,451.94 C406.55,451.38 398.78,452.43 398.78,452.43 C398.08,469.65 398.5,489.39 398.99,504.79 C401.37,504.86 410.82,505.14 414.88,504.79 C415.3,486.87 415.65,469.93 415.58,451.94 Z M435.67,464.19 C435.81,475.95 435.6,494.64 434.97,504.86 C430.63,505 425.38,505.21 420.13,504.86 C419.71,494.36 419.71,476.09 419.43,464.47 C423.7,464.12 430,463.98 435.67,464.19 Z M428.39,445.01 C432.8,445.22 436.09,448.65 436.02,452.71 C435.88,456.77 434.13,460.2 429.16,460.83 C424.19,461.46 417.68,458.73 418.94,451.52 C420.2,444.31 428.39,445.01 428.39,445.01 Z M455.06,463.14 C450.72,463 444.21,463.35 439.66,463.84 C439.87,478.4 439.66,490.23 440.15,505 C445.68,505.35 451.42,505.21 454.92,505.07 C454.92,486.94 454.99,477.35 458.7,477.7 C462.2,477.7 460.66,485.12 460.66,505.07 C466.12,505.07 470.67,505.35 476.76,504.72 C477.04,493.59 479.91,467.2 471.09,463.98 C463.81,461.32 457.79,466.15 455.48,470 C455.13,468.04 455.27,465.94 455.06,463.14 Z M516.38,463.21 C511.97,462.86 503.57,462.65 502.03,462.86 C501.96,462.93 501.82,464.47 501.82,466.08 C496.43,461.39 486.7,462.93 482.99,469.86 C478.86,477.7 479,492.96 486.49,496.6 C489.71,498.14 496.29,498.07 499.86,497.02 C500.14,503.88 488.31,501.22 483.41,499.75 C482.5,502.76 482.08,508.64 482.08,512 C502.31,519.7 515.82,511.93 515.82,490.65 C515.82,481.55 516.31,472.66 516.38,463.21 Z M500.91,486.17 C490.13,489.67 491.95,474.41 501.12,479.24 C500.98,483.3 500.84,483.51 500.91,486.17 Z M537.66,453.06 C531.57,453.06 524.85,453.2 519.95,453.55 C519.88,464.05 519.67,477.28 520.58,487.36 C526.46,487.36 531.99,487.43 536.96,487.36 C537.1,475.95 537.87,464.05 537.66,453.06 Z M526.74,491 C521.56,491.7 517.99,496.81 520.16,502.41 C522.47,508.43 536.19,507.94 537.45,501.43 C538.85,494.29 532.27,490.23 526.74,491 Z" id="V.2ictor_-S.2tarling"></path>
        </g>
    </g>
</svg>