<?xml version="1.0" encoding="UTF-8" standalone="no"?>
<svg width="700px" height="280px" viewBox="0 0 700 280" version="1.1" xmlns="http://www.w3.org/2000/svg" xmlns:xlink="http://www.w3.org/1999/xlink">
    <!-- Generator: Sketch 41.2 (35397) - http://www.bohemiancoding.com/sketch -->
    <title>Artboard 4</title>
    <desc>Created with Sketch.</desc>
    <defs></defs>
    <g id="Page-3" stroke="none" stroke-width="1" fill="none" fill-rule="evenodd">
        <g id="Artboard-4">
            <g id="Group-10" transform="translate(38.907746, 47.000000)">
                <path d="M59.2934134,105.0372 C77.5716442,118.416298 91.3290025,172.356517 91.3290025,172.356517 C91.3290025,197.293425 73.4004793,242.535731 51.2845162,242.535731 C29.1685531,242.535731 11.2400298,197.293425 11.2400298,172.356517 C11.2400298,172.356517 24.9973881,118.416298 43.2756189,105.0372 L43.2756189,97.955307 C43.2756189,93.5352406 46.8503878,89.9520688 51.2845162,89.9520688 C55.707708,89.9520688 59.2934134,93.5313519 59.2934134,97.955307 L59.2934134,105.0372 Z" id="Combined-Shape" stroke="#4A4A4A" stroke-width="3" fill="#F6E5B7"></path>
                <path d="M25.335689,158.28602 L10.4391401,158.286021 C10.4391401,149.835198 16.3728797,118.250832 22.1793818,113.167801 C29.8284103,106.471817 41.3257097,113.364377 52.1494771,113.364377 C63.0089413,113.364377 72.8695103,106.311383 80.4646254,113.236002 C89.5748599,121.541985 92.1298923,144.999333 92.1298923,158.286021 L77.2333433,158.28602 L77.2333433,242.824103 C77.2333433,242.824103 75.1697563,242.535731 51.2845162,242.535731 C27.399276,242.535731 25.335689,242.824103 25.335689,242.824103 L25.335689,158.28602 Z" id="Fill-3" stroke="#4A4A4A" stroke-width="3" fill="#62CA7E"></path>
                <path d="M50.4768646,1.9540837 L52.0922,1.9540837 C78.1852865,1.9540837 99.3378998,23.6411075 99.3378998,50.3933829 C99.3378191,77.1455756 78.1851815,98.8325994 52.092095,98.8325994 L50.4768646,98.8325166 C24.38377,98.8325166 3.23113251,77.1454928 3.23113251,50.3932173 C3.23113251,23.6411075 24.38377,1.9540837 50.4768646,1.9540837 Z" id="Fill-5" stroke="#4A4A4A" stroke-width="3" fill="#F7E5B8"></path>
                <ellipse id="Oval" fill="#4A4A4A" cx="34.4658319" cy="59.2738722" rx="5.60622809" ry="5.65124675"></ellipse>
                <ellipse id="Oval" fill="#4A4A4A" cx="68.1032004" cy="59.2738722" rx="5.60622809" ry="5.65124675"></ellipse>
                <path d="M52.8251818,0 C80.5592063,0 103.042015,22.912912 103.042015,51.1774689 C103.041929,52.9440306 97.7361226,64.92512 97.7361226,64.92512 L98.7561916,57.3215239 C96.5673605,46.4202319 89.0797607,39.7360204 78.1159448,35.691315 C65.0928041,30.886896 51.2403112,46.390812 51.2403112,46.390812 C51.2403112,46.390812 37.8622501,30.9184233 24.6435181,35.9024851 C13.8627404,39.9673275 6.68725902,48.2224751 4.53609573,58.9361658 L4.83291187,64.1177991 C4.83291187,64.1177991 0.531028273,56.7172206 0.0275736022,52.8153056 C-0.149868975,51.4400758 0.587150809,45.9448226 0.587150809,45.9448226 C3.15877225,20.1383242 24.5441276,0 50.5447488,0 L52.8251818,0 Z" id="Fill-3" stroke="#4A4A4A" stroke-width="3" fill="#D27A41"></path>
                <path d="M51.5523981,102.061883 C45.8886208,102.061883 44.5295981,90.7145637 44.9474205,90.9488755 L46.7299646,92.4313817 L55.3670685,92.3372839 L57.2024641,90.8107905 C58.8738029,89.8736322 56.0834268,102.061883 51.5523981,102.061883 Z" id="Fill-3" stroke="#4A4A4A" stroke-width="2" fill="#D27A41"></path>
                <path d="M37.6693908,76.2276124 C37.6693908,76.2276124 43.690895,79.4568963 52.6193324,79.4568963 C61.5477697,79.4568963 65.7005313,76.2276124 65.7005313,76.2276124" id="Path-2" stroke="#4A4A4A" stroke-width="4" stroke-linecap="round" stroke-linejoin="bevel"></path>
                <rect id="Rectangle-2" fill="#844319" x="39.9577309" y="12.4492562" width="22.6535704" height="2.42196289" rx="1.21098145"></rect>
                <rect id="Rectangle-2" fill="#844319" x="37.4407327" y="18.100503" width="27.6875669" height="2.42196289" rx="1.21098145"></rect>
                <rect id="Rectangle-2" fill="#844319" x="35.2095571" y="23.7517497" width="32.1499181" height="2.42196289" rx="1.21098145"></rect>
            </g>
            <g id="Group-11" transform="translate(562.909012, 50.000000)">
                <g id="Body" transform="translate(12.578626, 98.267918)" stroke="#4A4A4A" stroke-width="3" fill="#FBC27B">
                    <path d="M31.4465651,15.3062219 C13.504408,19.1629569 0,35.9607995 0,56.0986833 L0,102.348852 C0,125.337747 17.5988796,143.973926 39.3082064,143.973926 C61.0175332,143.973926 78.6164128,125.337747 78.6164128,102.348852 L78.6164128,56.0986833 C78.6164128,35.9607995 65.1120048,19.1629569 47.1698477,15.3062219 L47.1698477,7.8667613 C47.1698477,3.52514043 43.650071,0 39.3082064,0 C34.9751766,0 31.4465651,3.522069 31.4465651,7.8667613 L31.4465651,15.3062219 Z" id="Combined-Shape"></path>
                </g>
                <path d="M26.4151147,154.193319 L9.43396953,154.19332 C9.43396953,141.621993 15.1177049,130.124497 24.1030052,122.285691 C31.5489343,115.789837 42.1111341,127.803542 52.7358897,127.803542 C63.3956859,127.803542 72.2887889,115.816155 79.744256,122.350043 C88.6869847,130.18735 94.3396953,141.65635 94.3396953,154.19332 L77.3585502,154.193319 L77.3585502,242.340662 C77.3585502,242.340662 75.3329054,242.068562 51.8868324,242.068562 C28.4407595,242.068562 26.4151147,242.340662 26.4151147,242.340662 L26.4151147,154.193319 Z" id="Fill-3" stroke="#4A4A4A" stroke-width="3" fill="#9A43E6"></path>
                <path d="M4.71698477,46.3768752 C4.71698477,23.715218 25.8356353,19.8059369 51.8868166,19.8059369 C77.9380058,19.8059369 99.0566801,23.715218 99.0566801,46.3768752 L99.0565216,65.6147838 C99.0565216,88.276441 77.937871,106.647352 51.8866897,106.647352 C25.8356353,106.647237 4.71698477,88.2763376 4.71698477,65.6146666 L4.71698477,46.3768752 Z" id="Fill-3" stroke="#4A4A4A" stroke-width="3" fill="#FAC27B"></path>
                <ellipse id="Combined-Shape" fill="#4A4A4A" cx="34.5912216" cy="70.0825459" rx="5.50314889" ry="5.33236762"></ellipse>
                <ellipse id="Combined-Shape" fill="#4A4A4A" cx="67.610115" cy="70.0825459" rx="5.50314889" ry="5.33236762"></ellipse>
                <path d="M44.8113553,68.5590123 C44.8113553,68.5590123 47.9560118,67.7972455 51.1006683,67.7972455 C54.2453248,67.7972455 57.3899813,68.5590123 57.3899813,68.5590123" id="Line" stroke="#4A4A4A" stroke-width="2" stroke-linecap="square"></path>
                <path d="M78.6164128,68.1781289 C78.6164128,68.1781289 88.8677495,68.1103905 92.7673671,67.4163621 C95.2880899,66.9677403 97.8774339,64.7501783 97.8774339,64.7501783" id="Line" stroke="#4A4A4A" stroke-width="3" stroke-linecap="square"></path>
                <path d="M6.28931302,68.5590123 C6.28931302,68.5590123 15.7544856,68.8721573 19.6541032,68.1781289 C22.174826,67.7295071 24.76417,65.5119451 24.76417,65.5119451" id="Line" stroke="#4A4A4A" stroke-width="3" stroke-linecap="square" transform="translate(15.526742, 67.070708) scale(-1, 1) translate(-15.526742, -67.070708) "></path>
                <path d="M34.5912216,79.2237475 C39.8014591,79.2237475 44.0251912,75.1310921 44.0251912,70.0825459 C44.0251912,65.0339996 39.8014591,60.9413443 34.5912216,60.9413443 C32.5165383,60.9413443 30.5982734,61.5902682 29.0408154,62.6900705 C26.686965,64.3522471 25.1572521,67.0442985 25.1572521,70.0825459 C25.1572521,75.1310921 29.3809841,79.2237475 34.5912216,79.2237475 Z" id="Oval-2" stroke="#4A4A4A" stroke-width="2"></path>
                <path d="M67.610115,79.2237475 C72.8203525,79.2237475 77.0440845,75.1310921 77.0440845,70.0825459 C77.0440845,65.0339996 72.8203525,60.9413443 67.610115,60.9413443 C62.3998775,60.9413443 58.1761455,65.0339996 58.1761455,70.0825459 C58.1761455,75.1310921 62.3998775,79.2237475 67.610115,79.2237475 Z" id="Oval-2" stroke="#4A4A4A" stroke-width="2"></path>
                <path d="M99.0566934,48.9435171 L99.0566934,32.2984885 C99.0566934,23.0004674 91.1941162,15.4630249 81.4951028,15.4630249 L26.4581367,15.4630249 L26.3884045,0 C17.0125683,0.0113991575 8.34535641,4.68925962 3.61292352,12.2922811 C-1.24598232,20.0983845 -1.20106012,29.7689405 3.73021971,37.5349348 C7.33153185,43.2063758 13.1296118,47.2151869 19.7578681,48.838557 L26.609927,49.1339588 L91.1950388,49.1339588 L91.1950388,60.1795774 L99.0566934,60.1795774 L99.0566934,48.9435171 Z" id="Combined-Shape" stroke="#4A4A4A" stroke-width="3" fill="#F6AC33"></path>
                <path d="M38.3756867,85.317882 C39.7614453,85.317882 64.0122209,85.317882 65.3979788,85.317882 C66.7837368,85.317882 65.4868475,87.9665299 65.4868475,87.9665299 C62.539443,92.8029233 57.5481346,95.9826172 51.8868328,95.9826172 C46.2255864,95.9826172 41.2342247,92.8029233 38.2868166,87.9665299 C38.2868166,87.9665299 36.9899281,85.317882 38.3756867,85.317882 Z" id="Fill-3" fill="#D54D4C"></path>
            </g>
            <g id="Group-12" transform="translate(168.000000, 50.000000)">
                <path d="M0.671080478,112.730763 C17.443419,123.923888 27.7049572,123.923888 56.578867,123.923888 C85.7207534,123.923888 96.5130003,123.923888 112.486659,112.730763 C113.785661,111.820521 112.486656,58.1147147 112.486656,56.3653814 C112.486656,25.2356409 87.4558869,0 56.578869,0 C25.7018511,0 0.671082505,25.2356409 0.671082505,56.3653814 C0.671082505,58.3848846 -0.83885178,111.7231 0.671080478,112.730763 Z" id="Oval-2" stroke="#4A4A4A" stroke-width="3" fill="#FFEE5E"></path>
                <g id="Body" transform="translate(16.644736, 95.963209)" stroke="#4A4A4A" stroke-width="3" fill="#AE742A">
                    <path d="M31.9473066,15.5499516 C13.7194463,19.4680995 0,36.5334237 0,56.9919745 L0,103.978611 C0,127.333571 17.8791165,146.266504 39.9341332,146.266504 C61.98915,146.266504 79.8682665,127.333571 79.8682665,103.978611 L79.8682665,56.9919745 C79.8682665,36.5334237 66.1488202,19.4680995 47.9209599,15.5499516 L47.9209599,7.9920282 C47.9209599,3.58127324 44.3451358,0 39.9341332,0 C35.5321062,0 31.9473066,3.57815291 31.9473066,7.9920282 L31.9473066,15.5499516 Z" id="Combined-Shape"></path>
                </g>
                <path d="M30.7015507,152.955183 L13.4500051,149.859596 C13.4500051,137.088089 19.2242459,128.503099 28.3526242,120.539471 C35.917119,113.940181 46.6475067,126.145186 57.4414463,126.145186 C68.2709845,126.145186 77.3056974,113.966918 84.8798821,120.604848 C93.965011,128.566953 99.7077329,137.122994 99.7077329,149.859596 L82.4561874,152.955183 L82.4561874,242.506147 C82.4561874,242.506147 80.3982871,242.229713 56.578869,242.229713 C32.759451,242.229713 30.7015507,242.506147 30.7015507,242.506147 L30.7015507,152.955183 Z" id="Fill-3" stroke="#4A4A4A" stroke-width="3" fill="#DC597F"></path>
                <g id="Face" transform="translate(8.657909, 41.016533)">
                    <path d="M0,26.9940424 C0,13.6039293 7.2575542,6.65818563 18.5374828,3.19006696 C20.5132938,2.58258556 22.6125176,2.08180328 24.8177678,1.67177611 C28.6087873,0.966903233 47.9208136,10.4794438 47.9208136,10.4794438 C47.9208136,10.4794438 44.1791417,0 47.9209438,0 C52.6977726,0 68.7833485,1.21271499 72.0113902,1.86289335 C86.2633025,4.73345265 95.8419198,11.6110697 95.8419198,26.9940424 L95.8417587,21.773588 C95.8417587,44.7960997 74.386824,63.4595415 47.9208149,63.4595415 C21.4549348,63.4594238 0,44.7959946 0,21.7734689 L0,26.9940424 Z" id="Fill-3" stroke="#4A4A4A" stroke-width="3" fill="#AE742A"></path>
                    <ellipse id="Combined-Shape" fill="#4A4A4A" cx="30.3499413" cy="25.538596" rx="5.59077865" ry="5.41727793"></ellipse>
                    <ellipse id="Combined-Shape" fill="#4A4A4A" cx="63.8946132" cy="25.538596" rx="5.59077865" ry="5.41727793"></ellipse>
                    <path d="M34.1946686,37.9209455 C35.6024934,37.9209455 60.2394277,37.9209455 61.6472519,37.9209455 C63.0550761,37.9209455 61.7375357,40.6117694 61.7375357,40.6117694 C58.743198,45.5251755 53.6724102,48.7555014 47.9209602,48.7555014 C42.1695666,48.7555014 37.0987246,45.5251755 34.1043833,40.6117694 C34.1043833,40.6117694 32.7868437,37.9209455 34.1946686,37.9209455 Z" id="Fill-3" fill="#4A4A4A"></path>
                </g>
            </g>
            <g id="Group-10" transform="translate(307.578182, 45.000000)">
                <path d="M39.4318171,113.167129 C21.4332381,117.035992 7.88636342,133.886658 7.88636342,154.087868 L7.88636342,200.483478 C7.88636342,223.544664 25.5405854,242.239448 47.3181805,242.239448 C69.0957757,242.239448 86.7499976,223.544664 86.7499976,200.483478 L86.7499976,154.087868 C86.7499976,133.886658 73.203123,117.035992 55.2045439,113.167129 L55.2045439,105.704273 C55.2045439,101.349 51.6736988,97.8127739 47.3181805,97.8127739 C42.9715249,97.8127739 39.4318171,101.345919 39.4318171,105.704273 L39.4318171,113.167129 Z" id="Combined-Shape" stroke="#4A4A4A" stroke-width="3" fill="#CD9C5E"></path>
                <path d="M24.1788008,117.494927 C25.6784338,116.186642 27.1133402,116.335276 28.5353177,117.408548 C34.1958989,121.681008 39.6515994,140.605863 48.1699078,140.605863 C58.8632253,140.605863 63.052476,111.005047 70.531388,117.559482 C79.5022385,125.421434 72.869998,242.512404 72.869998,242.512404 C72.869998,242.512404 70.8379833,242.239448 47.3181805,242.239448 C23.7983778,242.239448 21.766363,242.512404 21.766363,242.512404 C21.766363,242.512404 15.1652449,125.358383 24.1788008,117.494927 Z" id="Fill-3" stroke="#4A4A4A" stroke-width="3" fill="#FFEB58"></path>
                <g id="Face">
                    <path d="M0,45.7585521 C0,23.0256318 21.1850614,19.1040574 47.3181646,19.1040574 C73.4512758,19.1040574 94.636361,23.0256318 94.636361,45.7585521 L94.636202,65.0569573 C94.636202,87.7898776 73.4511406,106.218559 47.3180374,106.218559 C21.1850614,106.218443 0,87.7897738 0,65.0568397 L0,45.7585521 Z" id="Fill-3" stroke="#4A4A4A" stroke-width="3" fill="#CD9C5E"></path>
                    <path d="M34.4991418,71.8312558 C35.1228542,70.9648231 35.4886354,69.9111056 35.4886354,68.7746067 C35.4886354,65.8203604 33.0170438,63.4254706 29.968181,63.4254706 C26.9193182,63.4254706 24.4477266,65.8203604 24.4477266,68.7746067 C24.4477266,69.9111056 24.8135078,70.9648231 25.4372202,71.8312558 C26.4348027,70.4454597 28.0922162,69.538769 29.968181,69.538769 C31.8441458,69.538769 33.5015593,70.4454597 34.4991418,71.8312558 Z" id="Combined-Shape" fill="#4A4A4A"></path>
                    <path d="M67.6218682,71.8312558 C68.2455805,70.9648231 68.6113618,69.9111056 68.6113618,68.7746067 C68.6113618,65.8203604 66.1397701,63.4254706 63.0909074,63.4254706 C60.0420446,63.4254706 57.570453,65.8203604 57.570453,68.7746067 C57.570453,69.9111056 57.9362342,70.9648231 58.5599465,71.8312558 C59.557529,70.4454597 61.2149425,69.538769 63.0909074,69.538769 C64.9668722,69.538769 66.6242857,70.4454597 67.6218682,71.8312558 Z" id="Combined-Shape" fill="#4A4A4A"></path>
                    <path d="M40.2204534,68.3925255 C40.2204534,68.3925255 43.3749988,67.6283632 46.5295442,67.6283632 C49.6840895,67.6283632 52.8386349,68.3925255 52.8386349,68.3925255" id="Line" stroke="#4A4A4A" stroke-width="3" stroke-linecap="square"></path>
                    <path d="M74.1318162,68.0104444 C74.1318162,68.0104444 84.4153898,67.942493 88.3272703,67.2462821 C90.8559199,66.7962495 93.4534065,64.571714 93.4534065,64.571714" id="Line" stroke="#4A4A4A" stroke-width="5" stroke-linecap="square"></path>
                    <path d="M1.18295451,68.0104444 C1.18295451,68.0104444 10.6778918,68.3245741 14.5897723,67.6283632 C17.1184219,67.1783307 19.7159086,64.9537952 19.7159086,64.9537952" id="Line" stroke="#4A4A4A" stroke-width="5" stroke-linecap="square" transform="translate(10.449432, 66.517460) scale(-1, 1) translate(-10.449432, -66.517460) "></path>
                    <path d="M29.968181,87.1145018 C29.968181,87.1145018 32.2790689,92.4636378 46.8963518,92.4636378 C61.5136347,92.4636378 64.66818,87.1145018 64.66818,87.1145018" id="Path-2" stroke="#4A4A4A" stroke-width="6" stroke-linecap="round"></path>
                    <path d="M29.968181,78.7087165 C35.1948029,78.7087165 39.4318171,74.6031911 39.4318171,69.538769 C39.4318171,64.4743468 35.1948029,60.3688214 29.968181,60.3688214 C27.8869735,60.3688214 25.9626764,61.019786 24.4003206,62.1230468 C22.0390682,63.7904503 20.5045449,66.4909674 20.5045449,69.538769 C20.5045449,74.6031911 24.7415591,78.7087165 29.968181,78.7087165 Z" id="Oval-2" stroke="#4A4A4A" stroke-width="3"></path>
                    <path d="M63.0909074,78.7087165 C68.3175293,78.7087165 72.5545435,74.6031911 72.5545435,69.538769 C72.5545435,64.4743468 68.3175293,60.3688214 63.0909074,60.3688214 C57.8642855,60.3688214 53.6272713,64.4743468 53.6272713,69.538769 C53.6272713,74.6031911 57.8642855,78.7087165 63.0909074,78.7087165 Z" id="Oval-2" stroke="#4A4A4A" stroke-width="3"></path>
                    <path d="M99.3681791,49.0974275 L99.3681791,32.4000561 C99.3681791,23.0727959 91.4808768,15.5116508 81.7513634,15.5116508 L26.541325,15.5116508 L26.4713736,0 C17.0660535,0.011435004 8.37158629,4.70400572 3.62427153,12.3309361 C-1.24991389,20.1615869 -1.20485042,29.8625536 3.74193658,37.6529692 C7.3545736,43.3422449 13.1708865,47.3636623 19.8199864,48.9921374 L26.6935927,49.2884681 L91.4818023,49.2884681 L91.4818023,60.3688214 L99.3681791,60.3688214 L99.3681791,49.0974275 Z" id="Combined-Shape" stroke="#4A4A4A" stroke-width="3" fill="#4A4A4A" transform="translate(49.684083, 30.184411) scale(-1, 1) translate(-49.684083, -30.184411) "></path>
                </g>
            </g>
            <g id="Group-10" transform="translate(426.000000, 45.000000)">
                <path d="M50.6703036,111.513161 C33.1488149,115.431309 19.9610287,132.496633 19.9610287,152.955184 L19.9610287,199.94182 C19.9610287,223.29678 37.1472883,242.229713 58.3476223,242.229713 C79.5479564,242.229713 96.7342159,223.29678 96.7342159,199.94182 L96.7342159,152.955184 C96.7342159,132.496633 83.5464298,115.431309 66.024941,111.513161 L66.024941,103.635103 C66.024941,99.3943054 62.5876884,95.9632091 58.3476223,95.9632091 C54.1161839,95.9632091 50.6703036,99.398033 50.6703036,103.635103 L50.6703036,111.513161 Z" id="Combined-Shape" stroke="#4A4A4A" stroke-width="3" fill="#FBDEBA"></path>
                <path d="M33.4731096,152.955183 L16.8901012,149.859596 C16.8901012,137.088089 22.4405768,128.503099 31.2152095,120.539471 C38.4865626,113.940181 48.8011232,126.145186 59.1767727,126.145186 C69.5866414,126.145186 78.2712383,113.966918 85.551906,120.604848 C94.2849652,128.566953 99.8051434,137.122994 99.8051434,149.859596 L83.222135,152.955183 L83.222135,242.506147 C83.222135,242.506147 81.2439831,242.229713 58.3476223,242.229713 C35.4512615,242.229713 33.4731096,242.506147 33.4731096,242.506147 L33.4731096,152.955183 Z" id="Fill-3" stroke="#4A4A4A" stroke-width="3" fill="#4A9CD0"></path>
                <g id="Face">
                    <path d="M57.5734086,11.6084527 L59.121867,11.6084527 C84.1346665,11.6084527 104.411535,32.3976061 104.411535,58.0423033 C104.411457,83.686921 84.1345659,104.476074 59.1217664,104.476074 L57.5734086,104.475995 C32.5606013,104.475995 12.28371,83.6868417 12.28371,58.0421445 C12.28371,32.3976061 32.5606013,11.6084527 57.5734086,11.6084527 Z" id="Fill-5" stroke="#4A4A4A" stroke-width="3" fill="#FBDEBA"></path>
                    <path d="M45.1532564,78.9374785 C46.5065247,78.9374785 70.1887212,78.9374785 71.5419889,78.9374785 C72.8952567,78.9374785 71.628774,81.6283023 71.628774,81.6283023 C68.7504738,86.5417084 63.8761907,89.7720343 58.3476226,89.7720343 C52.8191087,89.7720343 47.9447736,86.5417084 45.0664699,81.6283023 C45.0664699,81.6283023 43.799988,78.9374785 45.1532564,78.9374785 Z" id="Fill-3" fill="#D54D4C"></path>
                    <ellipse id="Oval" fill="#4A4A4A" cx="42.225253" cy="66.5551289" rx="5.37412311" ry="5.41727793"></ellipse>
                    <ellipse id="Oval" fill="#4A4A4A" cx="74.4699916" cy="66.5551289" rx="5.37412311" ry="5.41727793"></ellipse>
                    <path d="M103.420832,33.60441 C109.270289,36.2326443 114.466596,43.0867881 114.466596,48.8766317 C114.466596,50.7098541 114.089563,52.4562607 113.407894,54.0447304 L111.16174,57.3278175 L113.865308,59.124272 C116.088122,61.3148257 117.462977,64.3410797 117.462977,67.6838729 C117.462977,71.0266662 116.088122,74.0530517 113.865308,76.2437448 L110.767664,78.3018615 L110.877756,78.3238711 C113.636063,79.473286 115.571515,82.1647522 115.571515,85.3019752 C115.571515,88.4391982 112.563542,93.5451684 112.563542,93.5451684 C113.739323,94.7037152 114.466519,96.3047995 114.466519,98.0728101 C114.466519,101.6091 111.557583,104.476075 107.969204,104.476075 C104.380749,104.476075 101.471813,101.6091 101.471813,98.0728101 C101.471813,96.3047995 102.199008,94.7037152 103.37479,93.5451684 C103.37479,93.5451684 100.201447,88.4391982 100.201447,85.3019752 C100.201447,83.2105809 100.3986,78.8377928 100.3986,78.8377928 C100.184257,78.7484545 99.973023,78.65329 99.7651024,78.5525009 C101.252605,75.4599409 102.414208,72.1730546 103.203937,68.7389768 C103.993667,65.3048989 104.411524,61.7236295 104.411535,58.0423033 C104.411535,57.7139006 104.408209,57.3862943 104.401592,57.0595177 C98.1895746,56.6833826 86.0257151,55.7779348 79.8441174,54.1727796 C68.8296428,51.3126872 49.6456349,42.0507145 49.6456349,42.0507145 C49.6456349,42.0507145 24.6554711,60.5396519 13.9797218,62.4621742 L12.4969971,62.5775594 C13.0392699,68.3129582 14.5992501,73.7429692 16.9894788,78.6753976 C16.86965,78.7314886 16.7487489,78.7856336 16.6268152,78.8377928 C16.6268152,78.8377928 16.8188557,83.2105809 16.8188557,85.3019752 C16.8188557,88.4391982 13.7268616,93.5451684 13.7268616,93.5451684 C14.8725018,94.7037152 15.5810723,96.3047995 15.5810723,98.0728101 C15.5810723,101.6091 12.7467214,104.476075 9.25030153,104.476075 C5.75387554,104.476075 2.91952386,101.6091 2.91952386,98.0728101 C2.91952386,96.3047995 3.62809508,94.7037152 4.77373605,93.5451684 C4.77373605,93.5451684 1.84293575,88.4391982 1.84293575,85.3019752 C1.84293575,82.1647522 3.72872246,79.473286 6.4162792,78.3238711 L6.52360658,78.3018615 L3.50537851,76.2437448 C1.33959922,74.0530517 0,71.0266662 0,67.6838729 C0,64.3410797 1.33959922,61.3148257 3.50537851,59.124272 L6.13966925,57.3278175 L3.95113822,54.0447304 C3.28687741,52.4562607 2.91952386,50.7098541 2.91952386,48.8766317 C2.91952386,43.2332167 7.76471571,36.5786543 13.3020496,33.8118421 C14.3722937,30.9722315 15.6970038,28.1478427 17.2812068,25.3818819 C26.2420274,9.7367058 40.9601691,0.404438493 54.2629126,0.501098209 L60.3514332,0.0144718711 C81.1150371,1.33557181 98.8964939,14.7045639 103.420832,33.60441 Z" id="Combined-Shape" stroke="#4A4A4A" stroke-width="3" fill="#D54D4C"></path>
                </g>
            </g>
        </g>
    </g>
</svg>