<?xml version="1.0" encoding="UTF-8" standalone="no"?>
<svg width="200px" height="200px" viewBox="0 0 200 200" version="1.1" xmlns="http://www.w3.org/2000/svg" xmlns:xlink="http://www.w3.org/1999/xlink">
    <!-- Generator: Sketch 41.2 (35397) - http://www.bohemiancoding.com/sketch -->
    <title>Artboard 3 Copy 2</title>
    <desc>Created with Sketch.</desc>
    <defs>
        <circle id="path-1" cx="102.433703" cy="65.914402" r="37.9419248"></circle>
        <mask id="mask-2" maskContentUnits="userSpaceOnUse" maskUnits="objectBoundingBox" x="0" y="0" width="75.8838497" height="75.8838497" fill="white">
            <use xlink:href="#path-1"></use>
        </mask>
        <circle id="path-3" cx="61.6602908" cy="110.085598" r="37.9419248"></circle>
        <mask id="mask-4" maskContentUnits="userSpaceOnUse" maskUnits="objectBoundingBox" x="0" y="0" width="75.8838497" height="75.8838497" fill="white">
            <use xlink:href="#path-3"></use>
        </mask>
        <ellipse id="path-5" cx="144.339709" cy="110.085598" rx="37.9419248" ry="37.9419248"></ellipse>
        <mask id="mask-6" maskContentUnits="userSpaceOnUse" maskUnits="objectBoundingBox" x="0" y="0" width="75.8838497" height="75.8838497" fill="white">
            <use xlink:href="#path-5"></use>
        </mask>
        <rect id="path-7" x="23.718366" y="173.374369" width="158.563268" height="4" rx="2"></rect>
        <mask id="mask-8" maskContentUnits="userSpaceOnUse" maskUnits="objectBoundingBox" x="0" y="0" width="158.563268" height="4" fill="white">
            <use xlink:href="#path-7"></use>
        </mask>
        <rect id="path-9" x="46" y="160.712255" width="114.563268" height="4" rx="2"></rect>
        <mask id="mask-10" maskContentUnits="userSpaceOnUse" maskUnits="objectBoundingBox" x="0" y="0" width="114.563268" height="4" fill="white">
            <use xlink:href="#path-9"></use>
        </mask>
    </defs>
    <g id="Page-3" stroke="none" stroke-width="1" fill="none" fill-rule="evenodd">
        <g id="Artboard-3-Copy-2">
            <use id="Oval-6" stroke="#FFFFFF" mask="url(#mask-2)" stroke-width="8" xlink:href="#path-1"></use>
            <circle id="Oval-6" fill-opacity="0.5" fill="#FFFFFF" cx="62.2265882" cy="126.508222" r="10.1933529"></circle>
            <path d="M118.299379,139.445454 C123.929012,139.445454 128.492732,134.881735 128.492732,129.252101 C128.492732,123.622468 122.394007,110.882118 122.394007,110.882118 C120.132606,105.732963 116.429761,105.720669 114.197414,110.899555 C114.197414,110.899555 108.106026,123.622468 108.106026,129.252101 C108.106026,134.881735 112.669746,139.445454 118.299379,139.445454 Z" id="Oval-6" fill-opacity="0.5" fill="#FFFFFF" transform="translate(118.299379, 120.502101) rotate(-330.000000) translate(-118.299379, -120.502101) "></path>
            <path d="M171.299379,139.445454 C176.929012,139.445454 181.492732,134.881735 181.492732,129.252101 C181.492732,123.622468 175.394007,110.882118 175.394007,110.882118 C173.132606,105.732963 169.429761,105.720669 167.197414,110.899555 C167.197414,110.899555 161.106026,123.622468 161.106026,129.252101 C161.106026,134.881735 165.669746,139.445454 171.299379,139.445454 Z" id="Oval-6" fill-opacity="0.5" fill="#FFFFFF" transform="translate(171.299379, 120.502101) rotate(-30.000000) translate(-171.299379, -120.502101) "></path>
            <path d="M144.906007,136.701575 C150.53564,136.701575 155.099359,134.137856 155.099359,128.508222 C155.099359,122.878589 150.53564,132.736443 144.906007,132.736443 C139.276373,132.736443 134.712654,122.878589 134.712654,128.508222 C134.712654,134.137856 139.276373,136.701575 144.906007,136.701575 Z" id="Oval-6" fill-opacity="0.5" fill="#FFFFFF"></path>
            <path d="M101.867405,87.3152677 C107.894237,87.3152677 110.086658,81.1415146 110.086658,81.1415146 C111.574122,78.524352 110.339864,76.4027226 107.328858,76.4027226 L96.4059529,76.4027226 C93.3953975,76.4027226 92.0671473,78.5717376 93.6481523,81.1415146 C93.6481523,81.1415146 95.840573,87.3152677 101.867405,87.3152677 Z" id="Oval-6" fill-opacity="0.5" fill="#FFFFFF"></path>
            <use id="Oval-6" stroke="#FFFFFF" mask="url(#mask-4)" stroke-width="8" xlink:href="#path-3"></use>
            <use id="Oval-6" stroke="#FFFFFF" mask="url(#mask-6)" stroke-width="8" xlink:href="#path-5"></use>
            <use id="Rectangle-6" stroke="#FFFFFF" mask="url(#mask-8)" stroke-width="4" fill="#FFFFFF" xlink:href="#path-7"></use>
            <use id="Rectangle-6" stroke="#FFFFFF" mask="url(#mask-10)" stroke-width="4" fill="#FFFFFF" xlink:href="#path-9"></use>
        </g>
    </g>
</svg>