<?xml version="1.0" encoding="UTF-8" standalone="no"?>
<svg width="200px" height="200px" viewBox="0 0 200 200" version="1.1" xmlns="http://www.w3.org/2000/svg" xmlns:xlink="http://www.w3.org/1999/xlink">
    <!-- Generator: Sketch 41.2 (35397) - http://www.bohemiancoding.com/sketch -->
    <title>Artboard 3 Copy</title>
    <desc>Created with Sketch.</desc>
    <defs>
        <path d="M134.880303,111.374388 L167.38838,143.882464 C171.290148,147.784233 171.294019,154.106379 167.381768,158.01863 L161.018449,164.381949 C157.113029,168.287369 150.781241,168.287519 146.882283,164.388561 L114.374207,131.880484 L105.041825,141.212866 C99.9614453,146.293246 94.003529,144.893343 91.7302077,138.07338 L71.6714883,77.8972212 C69.4000649,71.082951 73.0770763,67.3983482 79.89704,69.6716694 L140.073198,89.7303889 C146.887469,92.0018123 148.29769,97.9570014 143.212685,103.042006 L134.880303,111.374388 Z" id="path-1"></path>
        <mask id="mask-2" maskContentUnits="userSpaceOnUse" maskUnits="objectBoundingBox" x="0" y="0" width="99.3153311" height="98.3118972" fill="white">
            <use xlink:href="#path-1"></use>
        </mask>
        <path d="M134.880303,111.374388 L167.38838,143.882464 C171.290148,147.784233 171.294019,154.106379 167.381768,158.01863 L161.018449,164.381949 C157.113029,168.287369 150.781241,168.287519 146.882283,164.388561 L114.374207,131.880484 L105.041825,141.212866 C99.9614453,146.293246 94.003529,144.893343 91.7302077,138.07338 L71.6714883,77.8972212 C69.4000649,71.082951 73.0770763,67.3983482 79.89704,69.6716694 L140.073198,89.7303889 C146.887469,92.0018123 148.29769,97.9570014 143.212685,103.042006 L134.880303,111.374388 Z" id="path-3"></path>
        <mask id="mask-4" maskContentUnits="userSpaceOnUse" maskUnits="objectBoundingBox" x="0" y="0" width="99.3153311" height="98.3118972" fill="white">
            <use xlink:href="#path-3"></use>
        </mask>
        <path d="M134.880303,111.374388 L167.38838,143.882464 C171.290148,147.784233 171.294019,154.106379 167.381768,158.01863 L161.018449,164.381949 C157.113029,168.287369 150.781241,168.287519 146.882283,164.388561 L114.374207,131.880484 L105.041825,141.212866 C99.9614453,146.293246 94.003529,144.893343 91.7302077,138.07338 L71.6714883,77.8972212 C69.4000649,71.082951 73.0770763,67.3983482 79.89704,69.6716694 L140.073198,89.7303889 C146.887469,92.0018123 148.29769,97.9570014 143.212685,103.042006 L134.880303,111.374388 Z" id="path-5"></path>
        <mask id="mask-6" maskContentUnits="userSpaceOnUse" maskUnits="objectBoundingBox" x="0" y="0" width="99.3153311" height="98.3118972" fill="white">
            <use xlink:href="#path-5"></use>
        </mask>
        <rect id="path-7" x="24.8743687" y="38.3743687" width="31" height="4" rx="2"></rect>
        <mask id="mask-8" maskContentUnits="userSpaceOnUse" maskUnits="objectBoundingBox" x="0" y="0" width="31" height="4" fill="white">
            <use xlink:href="#path-7"></use>
        </mask>
        <rect id="path-9" x="46.6806975" y="37.2492759" width="20" height="4" rx="2"></rect>
        <mask id="mask-10" maskContentUnits="userSpaceOnUse" maskUnits="objectBoundingBox" x="0" y="0" width="20" height="4" fill="white">
            <use xlink:href="#path-9"></use>
        </mask>
        <rect id="path-11" x="30.0809665" y="54.2995867" width="20" height="4" rx="2"></rect>
        <mask id="mask-12" maskContentUnits="userSpaceOnUse" maskUnits="objectBoundingBox" x="0" y="0" width="20" height="4" fill="white">
            <use xlink:href="#path-11"></use>
        </mask>
    </defs>
    <g id="Page-3" stroke="none" stroke-width="1" fill="none" fill-rule="evenodd">
        <g id="Artboard-3-Copy">
            <use id="Combined-Shape" stroke="#FFFFFF" mask="url(#mask-2)" stroke-width="8" xlink:href="#path-1"></use>
            <use id="Combined-Shape" stroke="#FFFFFF" mask="url(#mask-4)" stroke-width="8" xlink:href="#path-3"></use>
            <rect id="Rectangle" fill-opacity="0.487715127" fill="#000000" x="39" y="43" width="82" height="30"></rect>
            <use id="Combined-Shape" stroke="#000000" mask="url(#mask-6)" stroke-width="8" xlink:href="#path-5"></use>
            <use id="Rectangle-6" stroke="#000000" mask="url(#mask-8)" stroke-width="4" transform="translate(40.374369, 40.374369) rotate(45.000000) translate(-40.374369, -40.374369) " xlink:href="#path-7"></use>
            <use id="Rectangle-6" stroke="#000000" mask="url(#mask-10)" stroke-width="4" transform="translate(56.680697, 39.249276) rotate(70.000000) translate(-56.680697, -39.249276) " xlink:href="#path-9"></use>
            <use id="Rectangle-6" stroke="#000000" mask="url(#mask-12)" stroke-width="4" transform="translate(40.080966, 56.299587) rotate(20.000000) translate(-40.080966, -56.299587) " xlink:href="#path-11"></use>
        </g>
    </g>
</svg>