<?xml version="1.0" encoding="UTF-8" standalone="no"?>
<svg width="200px" height="200px" viewBox="0 0 200 200" version="1.1" xmlns="http://www.w3.org/2000/svg" xmlns:xlink="http://www.w3.org/1999/xlink">
    <!-- Generator: Sketch 41.2 (35397) - http://www.bohemiancoding.com/sketch -->
    <title>Artboard 3</title>
    <desc>Created with Sketch.</desc>
    <defs>
        <rect id="path-1" x="21" y="21" width="158" height="158" rx="16"></rect>
        <mask id="mask-2" maskContentUnits="userSpaceOnUse" maskUnits="objectBoundingBox" x="0" y="0" width="158" height="158" fill="white">
            <use xlink:href="#path-1"></use>
        </mask>
    </defs>
    <g id="Page-3" stroke="none" stroke-width="1" fill="none" fill-rule="evenodd">
        <g id="Artboard-3">
            <use id="Rectangle-3" stroke="#000000" mask="url(#mask-2)" stroke-width="8" xlink:href="#path-1"></use>
            <polygon id="Polygon" fill-opacity="0.487715127" fill="#000000" points="54 70 73.0211303 83.8196601 65.755705 106.18034 42.244295 106.18034 34.9788697 83.8196601"></polygon>
            <polygon id="Polygon" fill-opacity="0.487715127" fill="#000000" points="147 71 161.854798 78.1536938 165.52363 94.2278977 155.243791 107.118408 138.756209 107.118408 128.47637 94.2278977 132.145202 78.1536938"></polygon>
            <polygon id="Polygon" fill-opacity="0.487715127" fill="#000000" points="100.5 70 117.387495 79.75 117.387495 99.25 100.5 109 83.6125046 99.25 83.6125046 79.75"></polygon>
            <path d="M23,58 L177,58" id="Line" stroke="#000000" stroke-width="4" stroke-linecap="square"></path>
            <path d="M151.142578,47.825216 C151.142578,47.6378425 151.167018,47.4667649 151.215898,47.3119781 C151.264778,47.1571913 151.338097,47.0024069 151.435857,46.8476201 L155.688399,40.8231854 L151.741356,35.1653491 C151.553982,34.9128022 151.460297,34.6113798 151.460297,34.2610729 C151.460297,33.8292992 151.615081,33.4382647 151.924655,33.0879578 C152.234228,32.7376508 152.657849,32.5625 153.19553,32.5625 C153.814677,32.5625 154.307543,32.8191164 154.674143,33.3323568 L158.071289,38.3914156 L161.419555,33.3567967 C161.761715,32.8272629 162.246435,32.5625 162.873729,32.5625 L162.898169,32.5625 C163.378823,32.5625 163.796333,32.7295043 164.150714,33.0635179 C164.505094,33.3975315 164.682281,33.788566 164.682281,34.236633 C164.682281,34.6032333 164.580449,34.9209488 164.376783,35.189789 L160.454179,40.7987455 L164.706721,46.8231802 C164.902241,47.1246071 165,47.4504691 165,47.8007761 C165,48.0044429 164.963341,48.2060701 164.89002,48.4056635 C164.8167,48.605257 164.704685,48.7885544 164.553972,48.9555612 C164.403258,49.122568 164.219961,49.2590228 164.004074,49.3649295 C163.788187,49.4708363 163.545827,49.5237889 163.276987,49.5237889 C162.991854,49.5237889 162.725054,49.4586164 162.476581,49.3282697 C162.228107,49.1979229 162.018333,49.0146255 161.847253,48.778372 L158.071289,43.2671751 L154.270885,48.8028119 C154.107952,49.0390654 153.904288,49.2182895 153.659888,49.3404896 C153.415487,49.4626897 153.150724,49.5237889 152.865591,49.5237889 C152.417524,49.5237889 152.018343,49.371041 151.668036,49.0655408 C151.317729,48.7600405 151.142578,48.3466031 151.142578,47.825216 Z" id="X" fill="#000000"></path>
            <rect id="Rectangle-4" fill-opacity="0.487715127" fill="#000000" x="36" y="124" width="70" height="10"></rect>
            <rect id="Rectangle-4" fill-opacity="0.487715127" fill="#000000" x="119" y="124" width="44" height="38"></rect>
        </g>
    </g>
</svg>