<?xml version="1.0" encoding="UTF-8" standalone="no"?>
<svg width="117px" height="115px" viewBox="0 0 117 115" version="1.1" xmlns="http://www.w3.org/2000/svg" xmlns:xlink="http://www.w3.org/1999/xlink">
    <!-- Generator: Sketch 41.2 (35397) - http://www.bohemiancoding.com/sketch -->
    <title>Artboard 5</title>
    <desc>Created with Sketch.</desc>
    <defs>
        <polygon id="path-1" points="0 113.125 532.5 113.125 532.5 0 0 0"></polygon>
    </defs>
    <g id="Page-1" stroke="none" stroke-width="1" fill="none" fill-rule="evenodd">
        <path d="M56,83.5 C56,83.5 35.7810956,80.4285354 21.5,67 C19.054831,64.7008039 17.3273424,62.3273424 15.5,60.5 C3,48 24,13 24,13 L53,13 L57.5,17.5 L62,13 L92,13 C92,13 108.5,48 98,60.5 C96.523999,62.257144 94.5751912,64.8020647 92.5,67 C79.8126617,80.437773 56,83.5 56,83.5 Z" id="Triangle" fill="#FFFFFF"></path>
        <g id="Artboard-5">
            <g id="logo" transform="translate(5.000000, 0.000000)">
                <g id="svg3390">
                    <g id="g3398" transform="translate(266.500000, 57.125000) scale(1, -1) translate(-266.500000, -57.125000) translate(0.000000, 0.125000)">
                        <g id="g3400">
                            <g id="g3402-Clipped">
                                <mask id="mask-2" fill="white">
                                    <use xlink:href="#path-1"></use>
                                </mask>
                                <g id="path3406"></g>
                                <g id="g3402" mask="url(#mask-2)">
                                    <g transform="translate(2.250000, 7.750000)">
                                        <g id="g3408" transform="translate(13.532750, 0.434875)">
                                            <path d="M10,47.5 L0.8975,38.92625 C3.95375,35.8175 10.83375,29.7875 10.83375,29.7875 C10.83375,29.7875 25.32875,17.08875 31.58125,8.10125 L36.83875,0.54625 L41.9225,8.21875 C47.96125,17.3325 62.7525,30.45 62.7525,30.45 C62.7525,30.45 69.03125,36.02625 71.86625,38.86375 L62.58875,47.275 L36.615,22.04 L10,47.5 Z" id="path3410" fill="#CA7872"></path>
                                        </g>
                                        <g id="g3412" transform="translate(54.444375, 45.615500)">
                                            <path d="M6.4825,50.76375 C6.1725,50.65375 5.98625,50.575 5.7975,50.5 C5.41125,50.34875 5.0275,50.19125 4.64875,50.02375 C4.43375,49.92875 4.22125,49.82875 4.00875,49.72875 C3.6475,49.5575 3.29,49.37875 2.93625,49.19375 C2.7425,49.09125 2.5475,48.99125 2.355,48.885 C1.89625,48.6325 1.44625,48.36625 1.0025,48.0875 C0.92875,48.04125 0.85125,48 0.77875,47.95375 C0.57875,47.82625 0.38875,47.68375 0.1925,47.55125 L0.1925,31.58 L5.0375,35.49125 C5.4975,35.92625 5.9775,36.33875 6.4825,36.7175 C9.26125,38.80125 12.67625,40 16.25,40 C25.27625,40 32.61875,32.65875 32.61875,23.6375 C32.61875,17.75875 30.7075,13.06875 27.49875,8.67 L36.8,0.23875 C41.76875,6.6525 45.11875,14.00375 45.11875,23.6375 C45.11875,39.5525 32.16875,52.5 16.25,52.5 C12.86875,52.5 9.5725,51.88875 6.4825,50.76375 Z" id="path3414" fill="#CA7872"></path>
                                        </g>
                                        <g id="g3416" transform="translate(0.829375, 45.785750)">
                                            <path d="M45.025,31.39625 L45.025,47.38 C44.915,47.45375 44.81,47.53125 44.7,47.60375 C44.54125,47.7075 44.3825,47.8125 44.2225,47.91375 C43.775,48.1925 43.3225,48.46 42.86125,48.715 C42.63125,48.8425 42.39625,48.96 42.1625,49.08125 C41.85625,49.24 41.54875,49.39625 41.2375,49.54375 C40.97625,49.6675 40.7125,49.7875 40.4475,49.90375 C40.14875,50.03375 39.8475,50.1575 39.545,50.2775 C39.27625,50.385 39.0075,50.49375 38.735,50.59375 C38.685,50.61125 38.6375,50.63375 38.5875,50.65125 C35.54,51.73375 32.295,52.33 28.9675,52.33 C13.04875,52.33 0.0975,39.38125 0.0975,23.46625 C0.0975,13.83625 3.195,6.52375 7.85625,0.23 L17.0525,8.89125 C14.2425,13.095 12.5975,17.69375 12.5975,23.46625 C12.5975,32.49 19.94125,39.83 28.9675,39.83 C32.4775,39.83 35.83625,38.67375 38.5875,36.65625 C39.0975,36.2825 39.5825,35.8725 40.04875,35.44125 C40.1,35.39375 40.1525,35.3475 40.20375,35.29875 C40.22,35.28375 45.025,31.39625 45.025,31.39625 Z" id="path3418" fill="#CA7872"></path>
                                        </g>
                                    </g>
                                </g>
                            </g>
                        </g>
                    </g>
                </g>
            </g>
            <path d="M24.2044339,33.6621094 L27.4104886,33.6621094 L29.4270902,39.9511719 L31.4436917,33.6621094 L34.6497464,33.6621094 L31.2044339,43 L27.6497464,43 L24.2044339,33.6621094 Z M33.0674243,40.9423828 C33.0674243,40.4182917 33.1950272,39.9864926 33.4502368,39.6469727 C33.7054464,39.3074527 33.9971102,39.0795904 34.3252368,38.9633789 C34.6533634,38.8471674 35.0088286,38.7890625 35.391643,38.7890625 C36.362351,38.7890625 37.0436593,39.0351538 37.4355884,39.5273438 L37.4355884,38.8300781 C37.4355884,38.5885405 37.3262145,38.3880216 37.1074634,38.2285156 C36.8887123,38.0690096 36.5765409,37.9892578 36.1709399,37.9892578 C35.5010147,37.9892578 34.876672,38.2080056 34.297893,38.6455078 L33.4434009,37.09375 C34.2910613,36.4101528 35.3551783,36.0683594 36.6357837,36.0683594 C37.0824005,36.0683594 37.4925526,36.1127925 37.8662524,36.2016602 C38.2399522,36.2905278 38.5908602,36.4352204 38.9189868,36.6357422 C39.2471134,36.836264 39.5011799,37.1302064 39.6811938,37.5175781 C39.8612077,37.9049499 39.9512134,38.369789 39.9512134,38.9121094 L39.9512134,43 L37.4355884,43 L37.4355884,42.3574219 C37.2487385,42.5989595 36.9661892,42.7949211 36.5879321,42.9453125 C36.209675,43.0957039 35.810916,43.1708984 35.391643,43.1708984 C34.8128641,43.1708984 34.2808056,42.9772155 33.7954516,42.5898438 C33.3100977,42.202472 33.0674243,41.6533239 33.0674243,40.9423828 Z M35.5557055,40.9833984 C35.5557055,41.3479836 35.8496479,41.5302734 36.4375415,41.5302734 C36.9342888,41.5302734 37.2669677,41.4095064 37.4355884,41.1679688 L37.4355884,40.7851562 C37.2669677,40.5436186 36.9342888,40.4228516 36.4375415,40.4228516 C35.8496479,40.4228516 35.5557055,40.6096987 35.5557055,40.9833984 Z M40.7546334,43 L40.7546334,36.2392578 L43.2770944,36.2392578 L43.2770944,37.0048828 C43.8285294,36.3805307 44.6032612,36.0683594 45.6013131,36.0683594 C46.3487127,36.0683594 46.9115326,36.2665996 47.2897897,36.6630859 C47.6680468,37.0595723 47.8571725,37.5722625 47.8571725,38.2011719 L47.8571725,43 L45.3347116,43 L45.3347116,39.2607422 C45.3347116,38.6181608 45.0088685,38.296875 44.3571725,38.296875 C43.9561288,38.296875 43.5961064,38.4746076 43.2770944,38.8300781 L43.2770944,43 L40.7546334,43 Z M48.2025847,39.609375 C48.2025847,38.5566354 48.5614679,37.703291 49.2792449,37.0493164 C49.9970219,36.3953418 50.9027746,36.0683594 51.9965301,36.0683594 C52.6983565,36.0683594 53.296495,36.1971016 53.7909636,36.4545898 C54.2854323,36.7120781 54.6443154,37.0094384 54.8676238,37.3466797 L53.2406707,38.8710938 C52.9900184,38.4882793 52.611767,38.296875 52.1059051,38.296875 C51.7322053,38.296875 51.4177553,38.4108062 51.1625457,38.6386719 C50.9073361,38.8665376 50.7797332,39.1912414 50.7797332,39.612793 C50.7797332,40.0343446 50.9073361,40.361327 51.1625457,40.59375 C51.4177553,40.826173 51.7322053,40.9423828 52.1059051,40.9423828 C52.5889804,40.9423828 52.9672318,40.7464212 53.2406707,40.3544922 L54.8676238,41.8925781 C54.6443154,42.2298194 54.2854323,42.5271797 53.7909636,42.784668 C53.296495,43.0421562 52.6983565,43.1708984 51.9965301,43.1708984 C50.9027746,43.1708984 49.9970219,42.843916 49.2792449,42.1899414 C48.5614679,41.5359668 48.2025847,40.6757866 48.2025847,39.609375 Z M54.6388173,39.609375 C54.6388173,38.6204378 54.9817501,37.7830438 55.6676259,37.097168 C56.3535017,36.4112921 57.2752048,36.0683594 58.4327626,36.0683594 C59.5903205,36.0683594 60.5143021,36.4112921 61.2047353,37.097168 C61.8951684,37.7830438 62.2403798,38.6204378 62.2403798,39.609375 C62.2403798,40.5983122 61.8951684,41.4391241 61.2047353,42.1318359 C60.5143021,42.8245477 59.5903205,43.1708984 58.4327626,43.1708984 C57.2752048,43.1708984 56.3535017,42.8245477 55.6676259,42.1318359 C54.9817501,41.4391241 54.6388173,40.5983122 54.6388173,39.609375 Z M57.2296376,39.609375 C57.2296376,40.001304 57.3367329,40.3214506 57.5509267,40.5698242 C57.7651205,40.8181979 58.0590628,40.9423828 58.4327626,40.9423828 C58.815577,40.9423828 59.1140767,40.8181979 59.3282704,40.5698242 C59.5424642,40.3214506 59.6495595,40.001304 59.6495595,39.609375 C59.6495595,39.2265606 59.5424642,38.9121106 59.3282704,38.6660156 C59.1140767,38.4199206 58.815577,38.296875 58.4327626,38.296875 C58.0590628,38.296875 57.7651205,38.4199206 57.5509267,38.6660156 C57.3367329,38.9121106 57.2296376,39.2265606 57.2296376,39.609375 Z M62.5789561,41.0654297 L62.5789561,36.2392578 L65.1014171,36.2392578 L65.1014171,39.9921875 C65.1014171,40.6256542 65.4272602,40.9423828 66.0789561,40.9423828 C66.4708852,40.9423828 66.8263504,40.7646502 67.1453624,40.4091797 L67.1453624,36.2392578 L69.6678233,36.2392578 L69.6678233,43 L67.1453624,43 L67.1453624,42.2412109 C66.5848127,42.8564484 65.8100809,43.1663411 64.8211436,43.1708984 C64.0737441,43.1708984 63.5132028,42.9749369 63.139503,42.5830078 C62.7658032,42.1910788 62.5789561,41.6852245 62.5789561,41.0654297 Z M69.5620637,36.2392578 L72.2212434,36.2392578 L73.5132356,40.1015625 L74.8120637,36.2392578 L77.4712434,36.2392578 L74.8530793,43 L72.1802278,43 L69.5620637,36.2392578 Z M76.9074759,39.609375 C76.9074759,38.6113231 77.2526873,37.7716505 77.9431205,37.090332 C78.6335536,36.4090135 79.5142414,36.0683594 80.5852103,36.0683594 C81.6014914,36.0683594 82.441164,36.4112921 83.1042533,37.097168 C83.7673425,37.7830438 84.0988822,38.7093041 84.0988822,39.8759766 L84.0988822,40.3955078 L79.5119681,40.3955078 C79.5848852,40.6279308 79.7478067,40.8284497 80.0007377,40.9970703 C80.2536686,41.1656909 80.5760938,41.25 80.9680228,41.25 C81.1822166,41.25 81.4545121,41.2032882 81.7849174,41.1098633 C82.1153227,41.0164383 82.3602746,40.9036465 82.5197806,40.7714844 L83.5588431,42.3300781 C83.2398311,42.5989597 82.8148679,42.8063144 82.2839408,42.9521484 C81.7530137,43.0979825 81.2163979,43.1708984 80.6740775,43.1708984 C79.5894367,43.1708984 78.6905199,42.8484733 77.9773002,42.2036133 C77.2640805,41.5587533 76.9074759,40.6940158 76.9074759,39.609375 Z M79.4846244,38.8027344 L81.7063041,38.8027344 C81.574142,38.260414 81.2004478,37.9892578 80.5852103,37.9892578 C79.9973168,37.9892578 79.6304584,38.260414 79.4846244,38.8027344 Z M84.3759351,43 L84.3759351,36.2392578 L86.898396,36.2392578 L86.898396,36.9775391 C87.1125898,36.7268868 87.4179253,36.508139 87.8144116,36.3212891 C88.210898,36.1344392 88.5959853,36.0410156 88.9696851,36.0410156 L88.9696851,38.4472656 C88.8284083,38.4016925 88.637004,38.3789062 88.3954663,38.3789062 C87.6571814,38.3789062 87.1581629,38.5384099 86.898396,38.8574219 L86.898396,43 L84.3759351,43 Z" id="Vancouver" fill="#CB7872"></path>
            <g id="Maple_Leaf" transform="translate(43.000000, 47.000000)" fill="#CB7872">
                <path d="M13.9994468,0 L11.5542185,4.67528 C11.2767551,5.183406 10.7796244,5.136276 10.2824946,4.852472 L8.51221366,3.912749 L9.83163024,11.093881 C10.1090937,12.405834 9.21886732,12.405834 8.77953756,11.838568 L5.69005366,8.293015 L5.18848195,10.093531 C5.13064098,10.329977 4.87632878,10.57832 4.49479902,10.51918 L0.588113171,9.677147 L1.61422927,13.501472 C1.83389366,14.352428 2.0052361,14.704753 1.39246927,14.929188 L0,15.600092 L6.72510829,21.199997 C6.99129268,21.411734 7.12577854,21.792772 7.03101561,22.137775 L6.44242537,24.117885 C8.75797951,23.844262 9.27719664,23.432601 11.5939244,23.179072 C11.7984435,23.15669 12.1408337,23.50269 12.1394288,23.745657 L11.832622,31 L16.0695673,31 L15.8923468,23.761215 C15.8909321,23.518248 16.2015546,23.15669 16.4060746,23.179072 C18.7228014,23.432602 19.2420215,23.844262 21.5575746,24.117885 L20.9689863,22.137775 C20.8742234,21.792772 21.0087083,21.411734 21.2748927,21.199997 L28,15.600092 L26.6075317,14.929188 C25.9947629,14.704753 26.1661063,14.352428 26.3857707,13.501472 L27.4118898,9.677147 L23.5052,10.51918 C23.1236712,10.57832 22.869359,10.329977 22.8115161,10.093531 L22.3099454,8.293015 L19.2204624,11.838568 C18.7811317,12.405834 17.8909034,12.405834 18.1683678,11.093881 L19.4877824,3.912749 L17.7175054,4.852472 C17.2203629,5.136276 16.7232449,5.183406 16.4457805,4.67528" id="Shape"></path>
            </g>
        </g>
    </g>
</svg>