<?xml version="1.0" encoding="UTF-8" standalone="no"?>
<svg width="117px" height="115px" viewBox="0 0 117 115" version="1.1" xmlns="http://www.w3.org/2000/svg" xmlns:xlink="http://www.w3.org/1999/xlink">
    <!-- Generator: Sketch 41.2 (35397) - http://www.bohemiancoding.com/sketch -->
    <title>Artboard 5</title>
    <desc>Created with Sketch.</desc>
    <defs>
        <polygon id="path-1" points="0 113.125 532.5 113.125 532.5 0 0 0"></polygon>
    </defs>
    <g id="Page-1" stroke="none" stroke-width="1" fill="none" fill-rule="evenodd">
        <g id="Artboard-5">
            <path d="M56,83.5 C56,83.5 35.7810956,80.4285354 21.5,67 C19.054831,64.7008039 17.3273424,62.3273424 15.5,60.5 C3,48 24,13 24,13 L53,13 L57.5,17.5 L62,13 L92,13 C92,13 108.5,48 98,60.5 C96.523999,62.257144 94.5751912,64.8020647 92.5,67 C79.8126617,80.437773 56,83.5 56,83.5 Z" id="Triangle" fill="#FFFFFF"></path>
            <g id="logo" transform="translate(5.000000, 0.000000)">
                <g id="svg3390">
                    <g id="g3398" transform="translate(266.500000, 57.125000) scale(1, -1) translate(-266.500000, -57.125000) translate(0.000000, 0.125000)">
                        <g id="g3400">
                            <g id="g3402-Clipped">
                                <mask id="mask-2" fill="white">
                                    <use xlink:href="#path-1"></use>
                                </mask>
                                <g id="path3406"></g>
                                <g id="g3402" mask="url(#mask-2)">
                                    <g transform="translate(2.250000, 7.750000)">
                                        <g id="g3408" transform="translate(13.532750, 0.434875)">
                                            <path d="M10,47.5 L0.8975,38.92625 C3.95375,35.8175 10.83375,29.7875 10.83375,29.7875 C10.83375,29.7875 25.32875,17.08875 31.58125,8.10125 L36.83875,0.54625 L41.9225,8.21875 C47.96125,17.3325 62.7525,30.45 62.7525,30.45 C62.7525,30.45 69.03125,36.02625 71.86625,38.86375 L62.58875,47.275 L36.615,22.04 L10,47.5 Z" id="path3410" fill="#76C697"></path>
                                        </g>
                                        <g id="g3412" transform="translate(54.444375, 45.615500)">
                                            <path d="M16.25,52.5 C12.86875,52.5 9.5725,51.88875 6.4825,50.76375 L6.4825,50.77125 C6.4425,50.75625 6.4025,50.73875 6.3625,50.72375 C6.1725,50.65375 5.98625,50.575 5.7975,50.5 C5.41125,50.34875 5.0275,50.19125 4.64875,50.02375 C4.43375,49.92875 4.22125,49.82875 4.00875,49.72875 C3.6475,49.5575 3.29,49.37875 2.93625,49.19375 C2.7425,49.09125 2.5475,48.99125 2.355,48.885 C1.89625,48.6325 1.44625,48.36625 1.0025,48.0875 C0.92875,48.04125 0.85125,48 0.77875,47.95375 C0.57875,47.82625 0.38875,47.68375 0.1925,47.55125 L0.1925,31.58 L5.0375,35.49125 C5.4975,35.92625 5.9775,36.33875 6.4825,36.7175 C9.26125,38.80125 12.67625,40 16.25,40 C25.27625,40 32.61875,32.65875 32.61875,23.6375 C32.61875,17.75875 30.7075,13.06875 27.49875,8.67 L36.8,0.23875 C41.76875,6.6525 45.11875,14.00375 45.11875,23.6375 C45.11875,39.5525 32.16875,52.5 16.25,52.5" id="path3414" fill="#74A3C7"></path>
                                        </g>
                                        <g id="g3416" transform="translate(0.829375, 45.785750)">
                                            <path d="M40.25,35.25 L45.025,31.39625 L45.025,47.38 C44.915,47.45375 44.81,47.53125 44.7,47.60375 C44.54125,47.7075 44.3825,47.8125 44.2225,47.91375 C43.775,48.1925 43.3225,48.46 42.86125,48.715 C42.63125,48.8425 42.39625,48.96 42.1625,49.08125 C41.85625,49.24 41.54875,49.39625 41.2375,49.54375 C40.97625,49.6675 40.7125,49.7875 40.4475,49.90375 C40.14875,50.03375 39.8475,50.1575 39.545,50.2775 C39.27625,50.385 39.0075,50.49375 38.735,50.59375 C38.685,50.61125 38.6375,50.63375 38.5875,50.65125 L38.5875,50.6425 C35.54,51.73375 32.295,52.33 28.9675,52.33 C13.04875,52.33 0.0975,39.38125 0.0975,23.46625 C0.0975,13.83625 3.195,6.52375 7.85625,0.23 L17.0525,8.89125 C14.2425,13.095 12.5975,17.69375 12.5975,23.46625 C12.5975,32.49 19.94125,39.83 28.9675,39.83 C32.4775,39.83 35.83625,38.67375 38.5875,36.65625 C39.0975,36.2825 39.5825,35.8725 40.04875,35.44125 C40.1,35.39375 40.1525,35.3475 40.20375,35.29875 C40.22,35.28375 40.23375,35.265 40.25,35.25" id="path3418" fill="#CB7872"></path>
                                        </g>
                                    </g>
                                </g>
                            </g>
                        </g>
                    </g>
                </g>
            </g>
            <g id="Maple_Leaf" transform="translate(43.000000, 47.000000)" fill="#CB7872">
                <path d="M13.9994468,0 L11.5542185,4.67528 C11.2767551,5.183406 10.7796244,5.136276 10.2824946,4.852472 L8.51221366,3.912749 L9.83163024,11.093881 C10.1090937,12.405834 9.21886732,12.405834 8.77953756,11.838568 L5.69005366,8.293015 L5.18848195,10.093531 C5.13064098,10.329977 4.87632878,10.57832 4.49479902,10.51918 L0.588113171,9.677147 L1.61422927,13.501472 C1.83389366,14.352428 2.0052361,14.704753 1.39246927,14.929188 L0,15.600092 L6.72510829,21.199997 C6.99129268,21.411734 7.12577854,21.792772 7.03101561,22.137775 L6.44242537,24.117885 C8.75797951,23.844262 9.27719664,23.432601 11.5939244,23.179072 C11.7984435,23.15669 12.1408337,23.50269 12.1394288,23.745657 L11.832622,31 L16.0695673,31 L15.8923468,23.761215 C15.8909321,23.518248 16.2015546,23.15669 16.4060746,23.179072 C18.7228014,23.432602 19.2420215,23.844262 21.5575746,24.117885 L20.9689863,22.137775 C20.8742234,21.792772 21.0087083,21.411734 21.2748927,21.199997 L28,15.600092 L26.6075317,14.929188 C25.9947629,14.704753 26.1661063,14.352428 26.3857707,13.501472 L27.4118898,9.677147 L23.5052,10.51918 C23.1236712,10.57832 22.869359,10.329977 22.8115161,10.093531 L22.3099454,8.293015 L19.2204624,11.838568 C18.7811317,12.405834 17.8909034,12.405834 18.1683678,11.093881 L19.4877824,3.912749 L17.7175054,4.852472 C17.2203629,5.136276 16.7232449,5.183406 16.4457805,4.67528" id="Shape"></path>
            </g>
            <path d="M26.3395996,36.6728516 C26.3395996,34.7369695 26.9812761,33.1598368 28.2646484,31.9414062 C29.5480207,30.7229757 31.1607162,30.1137695 33.1027832,30.1137695 C35.4716102,30.1137695 37.2311954,31.1466368 38.3815918,33.2124023 L36.0622559,34.3535156 C35.7839342,33.8216119 35.3757351,33.3824887 34.8376465,33.0361328 C34.2995579,32.6897769 33.7212759,32.5166016 33.1027832,32.5166016 C31.9523868,32.5166016 30.9999224,32.9077923 30.2453613,33.6901855 C29.4908003,34.4725788 29.1135254,35.4667908 29.1135254,36.6728516 C29.1135254,37.8789123 29.4892541,38.8746706 30.2407227,39.6601562 C30.9921913,40.4456419 31.9462019,40.8383789 33.1027832,40.8383789 C33.7212759,40.8383789 34.2995579,40.6636573 34.8376465,40.314209 C35.3757351,39.9647606 35.7839342,39.5240912 36.0622559,38.9921875 L38.3815918,40.1147461 C37.2064557,42.1928815 35.4468704,43.2319336 33.1027832,43.2319336 C31.1669011,43.2319336 29.5557519,42.619635 28.2692871,41.3950195 C26.9828223,40.170404 26.3395996,38.5963638 26.3395996,36.6728516 Z M38.8649902,40.1889648 C38.8649902,39.1870067 39.1804168,38.4417342 39.8112793,37.953125 C40.4421418,37.4645158 41.1843219,37.2202148 42.0378418,37.2202148 C43.3428613,37.2202148 44.3107879,37.5943973 44.9416504,38.3427734 L44.9416504,37.1831055 C44.9416504,36.713051 44.7576516,36.3388686 44.3896484,36.0605469 C44.0216453,35.7822252 43.5345896,35.6430664 42.9284668,35.6430664 C41.9512484,35.6430664 41.0699095,36.0048792 40.2844238,36.7285156 L39.3381348,35.0400391 C40.414312,34.0751905 41.7502362,33.5927734 43.3459473,33.5927734 C44.5210833,33.5927734 45.4859175,33.8649061 46.2404785,34.4091797 C46.9950396,34.9534532 47.3723145,35.8409769 47.3723145,37.0717773 L47.3723145,43 L44.9416504,43 L44.9416504,42.0351562 C44.2860482,42.8330118 43.3181216,43.2319336 42.0378418,43.2319336 C41.2276164,43.2319336 40.4962598,42.9613471 39.84375,42.420166 C39.1912402,41.8789849 38.8649902,41.1352586 38.8649902,40.1889648 Z M41.2770996,40.2260742 C41.2770996,40.6466492 41.4409977,40.9790841 41.7687988,41.2233887 C42.0965999,41.4676933 42.5078914,41.5898438 43.0026855,41.5898438 C43.8994999,41.5898438 44.5458151,41.3238959 44.9416504,40.7919922 L44.9416504,39.6601562 C44.5334452,39.1158827 43.8871301,38.8406576 43.0026855,38.8344727 C42.5078914,38.8344727 42.0965999,38.9612618 41.7687988,39.2148438 C41.4409977,39.4684257 41.2770996,39.8054992 41.2770996,40.2260742 Z M49.2473145,43 L49.2473145,33.824707 L51.6594238,33.824707 L51.6594238,35.0029297 C51.9872249,34.6132793 52.4340792,34.2808445 53,34.0056152 C53.5659208,33.730386 54.1890428,33.5927734 54.8693848,33.5927734 C55.858973,33.5927734 56.607338,33.8525365 57.114502,34.3720703 C57.6216659,34.8916042 57.8752441,35.6090449 57.8752441,36.5244141 L57.8752441,43 L55.4445801,43 L55.4445801,37.4521484 C55.4445801,36.3141219 54.8786678,35.7451172 53.7468262,35.7451172 C52.9118611,35.7451172 52.2160672,36.0976527 51.6594238,36.8027344 L51.6594238,43 L49.2473145,43 Z M59.1750488,40.1889648 C59.1750488,39.1870067 59.4904754,38.4417342 60.1213379,37.953125 C60.7522004,37.4645158 61.4943805,37.2202148 62.3479004,37.2202148 C63.6529199,37.2202148 64.6208465,37.5943973 65.251709,38.3427734 L65.251709,37.1831055 C65.251709,36.713051 65.0677102,36.3388686 64.699707,36.0605469 C64.3317039,35.7822252 63.8446482,35.6430664 63.2385254,35.6430664 C62.261307,35.6430664 61.3799681,36.0048792 60.5944824,36.7285156 L59.6481934,35.0400391 C60.7243706,34.0751905 62.0602948,33.5927734 63.6560059,33.5927734 C64.8311419,33.5927734 65.795976,33.8649061 66.5505371,34.4091797 C67.3050982,34.9534532 67.682373,35.8409769 67.682373,37.0717773 L67.682373,43 L65.251709,43 L65.251709,42.0351562 C64.5961067,42.8330118 63.6281802,43.2319336 62.3479004,43.2319336 C61.537675,43.2319336 60.8063184,42.9613471 60.1538086,42.420166 C59.5012988,41.8789849 59.1750488,41.1352586 59.1750488,40.1889648 Z M61.5871582,40.2260742 C61.5871582,40.6466492 61.7510563,40.9790841 62.0788574,41.2233887 C62.4066585,41.4676933 62.81795,41.5898438 63.3127441,41.5898438 C64.2095585,41.5898438 64.8558737,41.3238959 65.251709,40.7919922 L65.251709,39.6601562 C64.8435038,39.1158827 64.1971887,38.8406576 63.3127441,38.8344727 C62.81795,38.8344727 62.4066585,38.9612618 62.0788574,39.2148438 C61.7510563,39.4684257 61.5871582,39.8054992 61.5871582,40.2260742 Z M68.9729004,38.3984375 C68.9729004,36.9264249 69.3517215,35.7574913 70.109375,34.8916016 C70.8670285,34.0257118 71.8426861,33.5927734 73.036377,33.5927734 C74.211513,33.5927734 75.1547002,34.0628208 75.8659668,35.0029297 L75.8659668,30.3271484 L78.2966309,30.3271484 L78.2966309,43 L75.8659668,43 L75.8659668,41.8217773 C75.1175907,42.7618862 74.1744035,43.2319336 73.036377,43.2319336 C71.8426861,43.2319336 70.8670285,42.8005414 70.109375,41.9377441 C69.3517215,41.0749469 68.9729004,39.8951898 68.9729004,38.3984375 Z M71.4592285,38.3984375 C71.4592285,39.1962931 71.6741515,39.8426082 72.1040039,40.3374023 C72.5338563,40.8321965 73.0982224,41.0795898 73.7971191,41.0795898 C74.2053243,41.0795898 74.6011537,40.9821787 74.9846191,40.7873535 C75.3680846,40.5925283 75.6618642,40.3435888 75.8659668,40.0405273 L75.8659668,36.7841797 C75.6618642,36.4811183 75.3665384,36.2321787 74.9799805,36.0373535 C74.5934225,35.8425283 74.1991394,35.7451172 73.7971191,35.7451172 C73.0982224,35.7451172 72.5338563,35.9909643 72.1040039,36.482666 C71.6741515,36.9743677 71.4592285,37.6129518 71.4592285,38.3984375 Z M79.6242676,40.1889648 C79.6242676,39.1870067 79.9396941,38.4417342 80.5705566,37.953125 C81.2014192,37.4645158 81.9435992,37.2202148 82.7971191,37.2202148 C84.1021387,37.2202148 85.0700652,37.5943973 85.7009277,38.3427734 L85.7009277,37.1831055 C85.7009277,36.713051 85.5169289,36.3388686 85.1489258,36.0605469 C84.7809226,35.7822252 84.293867,35.6430664 83.6877441,35.6430664 C82.7105257,35.6430664 81.8291869,36.0048792 81.0437012,36.7285156 L80.0974121,35.0400391 C81.1735894,34.0751905 82.5095135,33.5927734 84.1052246,33.5927734 C85.2803607,33.5927734 86.2451948,33.8649061 86.9997559,34.4091797 C87.7543169,34.9534532 88.1315918,35.8409769 88.1315918,37.0717773 L88.1315918,43 L85.7009277,43 L85.7009277,42.0351562 C85.0453255,42.8330118 84.077399,43.2319336 82.7971191,43.2319336 C81.9868937,43.2319336 81.2555371,42.9613471 80.6030273,42.420166 C79.9505176,41.8789849 79.6242676,41.1352586 79.6242676,40.1889648 Z M82.036377,40.2260742 C82.036377,40.6466492 82.2002751,40.9790841 82.5280762,41.2233887 C82.8558773,41.4676933 83.2671687,41.5898438 83.7619629,41.5898438 C84.6587773,41.5898438 85.3050924,41.3238959 85.7009277,40.7919922 L85.7009277,39.6601562 C85.2927226,39.1158827 84.6464074,38.8406576 83.7619629,38.8344727 C83.2671687,38.8344727 82.8558773,38.9612618 82.5280762,39.2148438 C82.2002751,39.4684257 82.036377,39.8054992 82.036377,40.2260742 Z" id="Canada" fill="#000000"></path>
        </g>
    </g>
</svg>