<?xml version="1.0" encoding="UTF-8" standalone="no"?>
<svg width="117px" height="115px" viewBox="0 0 117 115" version="1.1" xmlns="http://www.w3.org/2000/svg" xmlns:xlink="http://www.w3.org/1999/xlink">
    <!-- Generator: Sketch 41.2 (35397) - http://www.bohemiancoding.com/sketch -->
    <title>Artboard 5</title>
    <desc>Created with Sketch.</desc>
    <defs>
        <polygon id="path-1" points="0 113.125 532.5 113.125 532.5 0 0 0"></polygon>
    </defs>
    <g id="Page-1" stroke="none" stroke-width="1" fill="none" fill-rule="evenodd">
        <path d="M56,83.5 C56,83.5 35.7810956,80.4285354 21.5,67 C19.054831,64.7008039 17.3273424,62.3273424 15.5,60.5 C3,48 24,13 24,13 L53,13 L57.5,17.5 L62,13 L92,13 C92,13 108.5,48 98,60.5 C96.523999,62.257144 94.5751912,64.8020647 92.5,67 C79.8126617,80.437773 56,83.5 56,83.5 Z" id="Triangle" fill="#FFFFFF"></path>
        <g id="Artboard-5">
            <g id="logo" transform="translate(5.000000, 0.000000)">
                <g id="svg3390">
                    <g id="g3398" transform="translate(266.500000, 57.125000) scale(1, -1) translate(-266.500000, -57.125000) translate(0.000000, 0.125000)">
                        <g id="g3400">
                            <g id="g3402-Clipped">
                                <mask id="mask-2" fill="white">
                                    <use xlink:href="#path-1"></use>
                                </mask>
                                <g id="path3406"></g>
                                <g id="g3402" mask="url(#mask-2)">
                                    <g transform="translate(2.250000, 7.750000)">
                                        <g id="g3408" transform="translate(13.532750, 0.434875)">
                                            <path d="M10,47.5 L0.8975,38.92625 C3.95375,35.8175 10.83375,29.7875 10.83375,29.7875 C10.83375,29.7875 25.32875,17.08875 31.58125,8.10125 L36.83875,0.54625 L41.9225,8.21875 C47.96125,17.3325 62.7525,30.45 62.7525,30.45 C62.7525,30.45 69.03125,36.02625 71.86625,38.86375 L62.58875,47.275 L36.615,22.04 L10,47.5 Z" id="path3410" fill="#CA7872"></path>
                                        </g>
                                        <g id="g3412" transform="translate(54.444375, 45.615500)">
                                            <path d="M6.4825,50.76375 C6.1725,50.65375 5.98625,50.575 5.7975,50.5 C5.41125,50.34875 5.0275,50.19125 4.64875,50.02375 C4.43375,49.92875 4.22125,49.82875 4.00875,49.72875 C3.6475,49.5575 3.29,49.37875 2.93625,49.19375 C2.7425,49.09125 2.5475,48.99125 2.355,48.885 C1.89625,48.6325 1.44625,48.36625 1.0025,48.0875 C0.92875,48.04125 0.85125,48 0.77875,47.95375 C0.57875,47.82625 0.38875,47.68375 0.1925,47.55125 L0.1925,31.58 L5.0375,35.49125 C5.4975,35.92625 5.9775,36.33875 6.4825,36.7175 C9.26125,38.80125 12.67625,40 16.25,40 C25.27625,40 32.61875,32.65875 32.61875,23.6375 C32.61875,17.75875 30.7075,13.06875 27.49875,8.67 L36.8,0.23875 C41.76875,6.6525 45.11875,14.00375 45.11875,23.6375 C45.11875,39.5525 32.16875,52.5 16.25,52.5 C12.86875,52.5 9.5725,51.88875 6.4825,50.76375 Z" id="path3414" fill="#CA7872"></path>
                                        </g>
                                        <g id="g3416" transform="translate(0.829375, 45.785750)">
                                            <path d="M45.025,31.39625 L45.025,47.38 C44.915,47.45375 44.81,47.53125 44.7,47.60375 C44.54125,47.7075 44.3825,47.8125 44.2225,47.91375 C43.775,48.1925 43.3225,48.46 42.86125,48.715 C42.63125,48.8425 42.39625,48.96 42.1625,49.08125 C41.85625,49.24 41.54875,49.39625 41.2375,49.54375 C40.97625,49.6675 40.7125,49.7875 40.4475,49.90375 C40.14875,50.03375 39.8475,50.1575 39.545,50.2775 C39.27625,50.385 39.0075,50.49375 38.735,50.59375 C38.685,50.61125 38.6375,50.63375 38.5875,50.65125 C35.54,51.73375 32.295,52.33 28.9675,52.33 C13.04875,52.33 0.0975,39.38125 0.0975,23.46625 C0.0975,13.83625 3.195,6.52375 7.85625,0.23 L17.0525,8.89125 C14.2425,13.095 12.5975,17.69375 12.5975,23.46625 C12.5975,32.49 19.94125,39.83 28.9675,39.83 C32.4775,39.83 35.83625,38.67375 38.5875,36.65625 C39.0975,36.2825 39.5825,35.8725 40.04875,35.44125 C40.1,35.39375 40.1525,35.3475 40.20375,35.29875 C40.22,35.28375 45.025,31.39625 45.025,31.39625 Z" id="path3418" fill="#CA7872"></path>
                                        </g>
                                    </g>
                                </g>
                            </g>
                        </g>
                    </g>
                </g>
            </g>
            <path d="M25.2320941,34.6669922 L25.2320941,31.3271484 L35.8546527,31.3271484 L35.8546527,34.6669922 L32.4684222,34.6669922 L32.4684222,44 L28.6276019,44 L28.6276019,34.6669922 L25.2320941,34.6669922 Z M34.1896375,39.3984375 C34.1896375,38.0563084 34.6550463,36.9198451 35.5858777,35.9890137 C36.5167092,35.0581822 37.7675919,34.5927734 39.3385633,34.5927734 C40.9095347,34.5927734 42.1635098,35.0581822 43.1005262,35.9890137 C44.0375426,36.9198451 44.5060438,38.0563084 44.5060438,39.3984375 C44.5060438,40.7405666 44.0375426,41.8816685 43.1005262,42.8217773 C42.1635098,43.7618862 40.9095347,44.2319336 39.3385633,44.2319336 C37.7675919,44.2319336 36.5167092,43.7618862 35.5858777,42.8217773 C34.6550463,41.8816685 34.1896375,40.7405666 34.1896375,39.3984375 Z M37.7057508,39.3984375 C37.7057508,39.9303412 37.8510944,40.3648258 38.1417859,40.7019043 C38.4324775,41.0389828 38.8313993,41.2075195 39.3385633,41.2075195 C39.8580971,41.2075195 40.2632038,41.0389828 40.5538953,40.7019043 C40.8445869,40.3648258 40.9899305,39.9303412 40.9899305,39.3984375 C40.9899305,38.8789037 40.8445869,38.4521501 40.5538953,38.1181641 C40.2632038,37.784178 39.8580971,37.6171875 39.3385633,37.6171875 C38.8313993,37.6171875 38.4324775,37.784178 38.1417859,38.1181641 C37.8510944,38.4521501 37.7057508,38.8789037 37.7057508,39.3984375 Z M44.9655403,44 L44.9655403,34.824707 L48.3888802,34.824707 L48.3888802,35.8266602 C48.6795717,35.4864892 49.0939556,35.1896172 49.6320442,34.9360352 C50.1701329,34.6824532 50.6927513,34.5556641 51.1999153,34.5556641 L51.1999153,37.8212891 C51.0081826,37.7594398 50.7484196,37.7285156 50.4206184,37.7285156 C49.4186603,37.7285156 48.741421,37.9449848 48.3888802,38.3779297 L48.3888802,44 L44.9655403,44 Z M50.9450564,39.3984375 C50.9450564,38.0563084 51.4104652,36.9198451 52.3412966,35.9890137 C53.2721281,35.0581822 54.5230108,34.5927734 56.0939822,34.5927734 C57.6649536,34.5927734 58.9189287,35.0581822 59.8559451,35.9890137 C60.7929615,36.9198451 61.2614627,38.0563084 61.2614627,39.3984375 C61.2614627,40.7405666 60.7929615,41.8816685 59.8559451,42.8217773 C58.9189287,43.7618862 57.6649536,44.2319336 56.0939822,44.2319336 C54.5230108,44.2319336 53.2721281,43.7618862 52.3412966,42.8217773 C51.4104652,41.8816685 50.9450564,40.7405666 50.9450564,39.3984375 Z M54.4611697,39.3984375 C54.4611697,39.9303412 54.6065133,40.3648258 54.8972048,40.7019043 C55.1878964,41.0389828 55.5868182,41.2075195 56.0939822,41.2075195 C56.613516,41.2075195 57.0186227,41.0389828 57.3093142,40.7019043 C57.6000058,40.3648258 57.7453494,39.9303412 57.7453494,39.3984375 C57.7453494,38.8789037 57.6000058,38.4521501 57.3093142,38.1181641 C57.0186227,37.784178 56.613516,37.6171875 56.0939822,37.6171875 C55.5868182,37.6171875 55.1878964,37.784178 54.8972048,38.1181641 C54.6065133,38.4521501 54.4611697,38.8789037 54.4611697,39.3984375 Z M61.7209592,44 L61.7209592,34.824707 L65.1442991,34.824707 L65.1442991,35.8637695 C65.8926752,35.0164346 66.944097,34.5927734 68.2985959,34.5927734 C69.3129239,34.5927734 70.0767509,34.8618137 70.5900998,35.3999023 C71.1034488,35.937991 71.3601194,36.6337848 71.3601194,37.4873047 L71.3601194,44 L67.9367795,44 L67.9367795,38.925293 C67.9367795,38.0532183 67.4945639,37.6171875 66.6101194,37.6171875 C66.0658458,37.6171875 65.5772439,37.858396 65.1442991,38.3408203 L65.1442991,44 L61.7209592,44 Z M71.6340691,37.7841797 L71.6340691,34.824707 L73.1555534,34.824707 L73.1555534,32.3105469 L76.5788933,32.3105469 L76.5788933,34.824707 L78.4436394,34.824707 L78.4436394,37.7841797 L76.5788933,37.7841797 L76.5788933,40.3540039 C76.5788933,40.595216 76.6484727,40.7977694 76.7876335,40.9616699 C76.9267944,41.1255705 77.1107932,41.2075195 77.3396355,41.2075195 C77.6798064,41.2075195 77.9055529,41.151856 78.0168816,41.0405273 L78.6291862,43.6196289 C78.1715017,44.0278341 77.3983974,44.2319336 76.3098503,44.2319336 C75.2831525,44.2319336 74.500771,43.9876327 73.9626823,43.4990234 C73.4245937,43.0104142 73.1555534,42.2898811 73.1555534,41.3374023 L73.1555534,37.7841797 L71.6340691,37.7841797 Z M78.2815539,39.3984375 C78.2815539,38.0563084 78.7469627,36.9198451 79.6777941,35.9890137 C80.6086256,35.0581822 81.8595083,34.5927734 83.4304797,34.5927734 C85.0014511,34.5927734 86.2554262,35.0581822 87.1924426,35.9890137 C88.129459,36.9198451 88.5979601,38.0563084 88.5979601,39.3984375 C88.5979601,40.7405666 88.129459,41.8816685 87.1924426,42.8217773 C86.2554262,43.7618862 85.0014511,44.2319336 83.4304797,44.2319336 C81.8595083,44.2319336 80.6086256,43.7618862 79.6777941,42.8217773 C78.7469627,41.8816685 78.2815539,40.7405666 78.2815539,39.3984375 Z M81.7976672,39.3984375 C81.7976672,39.9303412 81.9430108,40.3648258 82.2337023,40.7019043 C82.5243939,41.0389828 82.9233157,41.2075195 83.4304797,41.2075195 C83.9500135,41.2075195 84.3551201,41.0389828 84.6458117,40.7019043 C84.9365033,40.3648258 85.0818469,39.9303412 85.0818469,39.3984375 C85.0818469,38.8789037 84.9365033,38.4521501 84.6458117,38.1181641 C84.3551201,37.784178 83.9500135,37.6171875 83.4304797,37.6171875 C82.9233157,37.6171875 82.5243939,37.784178 82.2337023,38.1181641 C81.9430108,38.4521501 81.7976672,38.8789037 81.7976672,39.3984375 Z" id="Toronto" fill="#CB7872"></path>
            <g id="Maple_Leaf" transform="translate(43.000000, 47.000000)" fill="#CB7872">
                <path d="M13.9994468,0 L11.5542185,4.67528 C11.2767551,5.183406 10.7796244,5.136276 10.2824946,4.852472 L8.51221366,3.912749 L9.83163024,11.093881 C10.1090937,12.405834 9.21886732,12.405834 8.77953756,11.838568 L5.69005366,8.293015 L5.18848195,10.093531 C5.13064098,10.329977 4.87632878,10.57832 4.49479902,10.51918 L0.588113171,9.677147 L1.61422927,13.501472 C1.83389366,14.352428 2.0052361,14.704753 1.39246927,14.929188 L0,15.600092 L6.72510829,21.199997 C6.99129268,21.411734 7.12577854,21.792772 7.03101561,22.137775 L6.44242537,24.117885 C8.75797951,23.844262 9.27719664,23.432601 11.5939244,23.179072 C11.7984435,23.15669 12.1408337,23.50269 12.1394288,23.745657 L11.832622,31 L16.0695673,31 L15.8923468,23.761215 C15.8909321,23.518248 16.2015546,23.15669 16.4060746,23.179072 C18.7228014,23.432602 19.2420215,23.844262 21.5575746,24.117885 L20.9689863,22.137775 C20.8742234,21.792772 21.0087083,21.411734 21.2748927,21.199997 L28,15.600092 L26.6075317,14.929188 C25.9947629,14.704753 26.1661063,14.352428 26.3857707,13.501472 L27.4118898,9.677147 L23.5052,10.51918 C23.1236712,10.57832 22.869359,10.329977 22.8115161,10.093531 L22.3099454,8.293015 L19.2204624,11.838568 C18.7811317,12.405834 17.8909034,12.405834 18.1683678,11.093881 L19.4877824,3.912749 L17.7175054,4.852472 C17.2203629,5.136276 16.7232449,5.183406 16.4457805,4.67528" id="Shape"></path>
            </g>
        </g>
    </g>
</svg>