<?xml version="1.0" standalone="no"?>
<!DOCTYPE svg PUBLIC "-//W3C//DTD SVG 1.1//EN" "http://www.w3.org/Graphics/SVG/1.1/DTD/svg11.dtd">
<svg width="100%" height="100%" viewBox="0 0 627 440" version="1.1" xmlns="http://www.w3.org/2000/svg" xmlns:xlink="http://www.w3.org/1999/xlink" xml:space="preserve" style="fill-rule:evenodd;clip-rule:evenodd;stroke-linejoin:round;stroke-miterlimit:1.41421;">
    <g transform="matrix(1,0,0,1,-89,-0)">
        <g id="Arm" transform="matrix(1,0,0,1,-21.6739,0)">
            <g transform="matrix(0.697259,0,0,2.11275,133.356,-483.664)">
                <path d="M544.348,226.231C544.348,213.085 512.008,202.412 472.174,202.412L327.826,202.412C287.992,202.412 255.652,213.085 255.652,226.231L255.652,347.101C255.652,360.247 287.992,370.92 327.826,370.92L472.174,370.92C512.008,370.92 544.348,360.247 544.348,347.101L544.348,226.231Z" style="fill:rgb(209,140,95);"/>
            </g>
            <g transform="matrix(0.326635,0.981044,-0.500566,0.166662,440.193,-351.281)">
                <path d="M416.899,101.217C502.321,110.019 474.747,183.207 462.552,199.649C450.635,215.715 444.649,165.141 410.082,139.324C387.306,122.314 381.145,107.029 381.145,107.029C381.145,107.029 396.764,99.143 416.899,101.217Z" style="fill:rgb(209,140,95);"/>
            </g>
        </g>
        <g id="Oculus" transform="matrix(1,0,0,1,-21.8899,6.53797)">
            <g transform="matrix(0.796498,-0.0315061,0.0395249,0.999219,131.988,70.2631)">
                <path d="M580.53,48.257C580.53,46.079 578.312,44.311 575.58,44.311L535.695,44.311C532.963,44.311 530.745,46.079 530.745,48.257L530.745,56.148C530.745,58.326 532.963,60.094 535.695,60.094L575.58,60.094C578.312,60.094 580.53,58.326 580.53,56.148L580.53,48.257Z" style="fill:rgb(73,63,66);"/>
            </g>
            <g transform="matrix(1.19349,0,0,1.08164,-51.7654,-43.6048)">
                <path d="M622.236,236.915C622.236,184.964 584.011,142.786 536.928,142.786L401.322,148.61L260.153,142.786C213.07,142.786 174.846,184.964 174.846,236.915L174.846,300.44C174.846,352.391 204.692,386.248 251.774,386.248L401.322,380.261L545.307,386.248C592.39,386.248 622.236,352.391 622.236,300.44L622.236,236.915Z" style="fill:rgb(67,60,64);"/>
            </g>
            <g transform="matrix(1.19349,0,0,1.08164,-53.7654,-52.6048)">
                <path d="M622.236,236.915C622.236,184.964 584.011,142.786 536.928,142.786L401.322,148.61L260.153,142.786C213.07,142.786 174.846,184.964 174.846,236.915L174.846,300.44C174.846,352.391 204.692,386.248 251.774,386.248L401.322,380.261L545.307,386.248C592.39,386.248 622.236,352.391 622.236,300.44L622.236,236.915Z" style="fill:url(#_Linear1);"/>
            </g>
            <g transform="matrix(0.661171,2.12649e-16,2.74894e-16,-0.854706,252.042,454.532)">
                <path d="M679.605,228.871C679.605,225.737 677.061,223.192 673.927,223.192L662.569,223.192C659.435,223.192 656.891,225.737 656.891,228.871L656.891,275.523C656.891,278.657 659.555,281.384 662.569,281.202C676.447,280.36 676.728,255.907 679.605,228.871Z" style="fill:url(#_Linear2);"/>
            </g>
            <g transform="matrix(-0.661171,2.12649e-16,-2.74894e-16,-0.854706,591.738,454.532)">
                <path d="M679.605,228.871C679.605,225.737 677.061,223.192 673.927,223.192L662.569,223.192C659.435,223.192 656.891,225.737 656.891,228.871L656.891,275.523C656.891,278.657 659.555,281.384 662.569,281.202C676.447,280.36 676.728,255.907 679.605,228.871Z" style="fill:url(#_Linear3);"/>
            </g>
            <g transform="matrix(1.09115,0,0,1.09115,-14.6978,-14.8342)">
                <circle cx="400.118" cy="139.705" r="6.343" style="fill:url(#_Radial4);"/>
            </g>
        </g>
        <g id="Hand">
            <g transform="matrix(0.966105,-0.121291,0.124569,0.992211,-27.0664,70.8428)">
                <path d="M325.405,300.161C326.194,302.187 326.627,304.391 326.627,306.695L327.779,353.19C327.779,363.142 319.699,371.222 309.747,371.222L273.683,371.222C263.731,371.222 255.652,363.142 255.652,353.19L254.5,306.695C254.5,304.391 254.933,302.187 255.723,300.161C259.841,284.776 273.888,273.433 290.564,273.433C307.239,273.433 321.287,284.776 325.405,300.161Z" style="fill:rgb(209,140,95);"/>
            </g>
            <g transform="matrix(0.961747,0.152026,-0.156134,0.987736,270.359,-7.33263)">
                <path d="M327.999,300.12C328.789,302.147 329.222,304.35 329.222,306.654L327.779,353.19C327.779,363.142 319.699,371.222 309.747,371.222L273.683,371.222C263.731,371.222 255.652,363.142 255.652,353.19L257.095,306.654C257.095,304.35 257.528,302.147 258.317,300.12C262.435,284.736 276.483,273.393 293.158,273.393C309.834,273.393 323.881,284.736 327.999,300.12Z" style="fill:rgb(209,140,95);"/>
            </g>
            <g transform="matrix(0.973606,-0.0126473,0.0153019,1.17796,74.0312,-35.6817)">
                <path d="M326.436,298.87C327.225,300.896 327.659,303.1 327.659,305.404L327.779,353.19C327.779,363.142 319.699,371.222 309.747,371.222L273.683,371.222C263.731,371.222 255.652,363.142 255.652,353.19L255.532,305.404C255.532,303.1 255.965,300.896 256.754,298.87C260.872,283.485 274.919,272.143 291.595,272.143C308.271,272.143 322.318,283.485 326.436,298.87Z" style="fill:rgb(209,140,95);"/>
            </g>
            <g transform="matrix(0.969597,0.0891672,-0.107883,1.17311,184.697,-63.1941)">
                <path d="M327.403,298.838C328.192,300.865 328.625,303.068 328.625,305.372L327.779,353.19C327.779,363.142 319.699,371.222 309.747,371.222L273.683,371.222C263.731,371.222 255.652,363.142 255.652,353.19L256.498,305.372C256.498,303.068 256.931,300.865 257.721,298.838C261.838,283.454 275.886,272.111 292.562,272.111C309.237,272.111 323.285,283.454 327.403,298.838Z" style="fill:rgb(209,140,95);"/>
            </g>
            <g transform="matrix(1.14143,0.659004,-0.3422,0.592708,83.5551,-176.682)">
                <path d="M281.729,160.266C281.729,132.055 269.836,109.151 255.187,109.151C240.538,109.151 228.644,132.055 228.644,160.266L228.644,275.819C228.644,304.031 240.538,326.934 255.187,326.934C269.836,326.934 281.729,304.031 281.729,275.819L281.729,160.266Z" style="fill:rgb(209,140,95);"/>
            </g>
            <g transform="matrix(-0.959006,0.904132,-0.452751,-0.48023,647.088,57.8435)">
                <path d="M281.729,166.944C281.729,135.047 269.836,109.151 255.187,109.151C240.538,109.151 228.644,135.047 228.644,166.944L232.273,266.106C232.273,298.003 240.538,326.934 255.187,326.934C269.836,326.934 281.729,301.038 281.729,269.142L281.729,166.944Z" style="fill:rgb(209,140,95);"/>
            </g>
            <g transform="matrix(1.32996,-0.749301,0.237268,0.421134,-218.285,365.945)">
                <path d="M416.899,101.217C446.802,101.217 461.709,185.441 462.552,199.649C463.737,219.617 445.171,164.427 410.082,139.324C385.762,121.926 367.218,194.031 367.218,179.799C367.218,165.566 386.996,101.217 416.899,101.217Z" style="fill:rgb(209,140,95);"/>
            </g>
            <g transform="matrix(-1.33608,0.231648,-0.082575,-0.476268,924.408,79.8787)">
                <path d="M416.899,101.217C446.802,101.217 461.709,185.441 462.552,199.649C463.737,219.617 445.171,164.427 410.082,139.324C385.762,121.926 367.218,194.031 367.218,179.799C367.218,165.566 386.996,101.217 416.899,101.217Z" style="fill:rgb(209,140,95);"/>
            </g>
            <g transform="matrix(0.144246,0.967762,-0.478092,0.0712603,299.1,-353.695)">
                <path d="M416.899,101.217C446.802,101.217 461.709,185.441 462.552,199.649C463.737,219.617 445.171,164.427 410.082,139.324C385.762,121.926 386.996,101.217 416.899,101.217Z" style="fill:rgb(209,140,95);"/>
            </g>
        </g>
    </g>
    <defs>
        <linearGradient id="_Linear1" x1="0" y1="0" x2="1" y2="0" gradientUnits="userSpaceOnUse" gradientTransform="matrix(358.492,105.583,-95.6881,395.565,217.181,218.862)"><stop offset="0%" style="stop-color:rgb(53,43,50);stop-opacity:1"/><stop offset="100%" style="stop-color:rgb(117,110,115);stop-opacity:1"/></linearGradient>
        <linearGradient id="_Linear2" x1="0" y1="0" x2="1" y2="0" gradientUnits="userSpaceOnUse" gradientTransform="matrix(22.7148,0,0,58.0181,656.891,252.201)"><stop offset="0%" style="stop-color:rgb(83,77,80);stop-opacity:1"/><stop offset="100%" style="stop-color:rgb(65,52,57);stop-opacity:1"/></linearGradient>
        <linearGradient id="_Linear3" x1="0" y1="0" x2="1" y2="0" gradientUnits="userSpaceOnUse" gradientTransform="matrix(-25.0677,-0.473786,0.612471,-19.3915,679.751,247.125)"><stop offset="0%" style="stop-color:rgb(83,77,80);stop-opacity:1"/><stop offset="100%" style="stop-color:rgb(65,52,57);stop-opacity:1"/></linearGradient>
        <radialGradient id="_Radial4" cx="0" cy="0" r="1" gradientUnits="userSpaceOnUse" gradientTransform="matrix(6.34277,0,0,6.34277,400.118,139.705)"><stop offset="0%" style="stop-color:rgb(171,203,221);stop-opacity:1"/><stop offset="100%" style="stop-color:rgb(113,164,224);stop-opacity:1"/></radialGradient>
    </defs>
</svg>
