<?xml version="1.0" standalone="no"?>
<!DOCTYPE svg PUBLIC "-//W3C//DTD SVG 1.1//EN" "http://www.w3.org/Graphics/SVG/1.1/DTD/svg11.dtd">
<svg width="100%" height="100%" viewBox="0 0 580 410" version="1.1" xmlns="http://www.w3.org/2000/svg" xmlns:xlink="http://www.w3.org/1999/xlink" xml:space="preserve" style="fill-rule:evenodd;clip-rule:evenodd;stroke-linecap:round;stroke-linejoin:round;stroke-miterlimit:1.41421;">
    <g transform="matrix(1,0,0,1,-111,-0)">
        <g id="Arm" transform="matrix(1,0,0,1,-21.6739,0)">
            <g transform="matrix(0.697259,0,0,2.11275,133.356,-483.664)">
                <path d="M544.348,226.231C544.348,213.085 512.008,202.412 472.174,202.412L327.826,202.412C287.992,202.412 255.652,213.085 255.652,226.231L255.652,347.101C255.652,360.247 287.992,370.92 327.826,370.92L472.174,370.92C512.008,370.92 544.348,360.247 544.348,347.101L544.348,226.231Z" style="fill:rgb(255,205,142);"/>
            </g>
            <g transform="matrix(0.188851,1.0166,-0.440156,0.0817666,486.117,-352.899)">
                <path d="M416.899,101.217C502.321,110.019 474.747,183.207 462.552,199.649C450.635,215.715 444.649,165.141 410.082,139.324C387.306,122.314 381.145,107.029 381.145,107.029C381.145,107.029 396.764,99.143 416.899,101.217Z" style="fill:rgb(255,205,142);"/>
            </g>
        </g>
        <g id="Phone" transform="matrix(1,0,0,1,-43.1826,47.6686)">
            <g transform="matrix(0.904574,0,0,0.893673,59.8762,-49.2036)">
                <path d="M695.499,155.299C695.499,133.439 677.965,115.692 656.369,115.692L191.116,115.692C169.519,115.692 151.986,133.439 151.986,155.299L151.986,342.076C151.986,363.936 169.519,381.683 191.116,381.683L656.369,381.683C677.965,381.683 695.499,363.936 695.499,342.076L695.499,155.299Z" style="fill:rgb(230,202,183);stroke-width:0.23px;stroke:rgb(12,0,11);"/>
            </g>
            <g transform="matrix(0.897688,0,0,0.87719,62.7941,-45.1047)">
                <path d="M695.499,155.299C695.499,133.439 678.156,115.692 656.796,115.692L190.689,115.692C169.328,115.692 151.986,133.439 151.986,155.299L151.986,342.076C151.986,363.936 169.328,381.683 190.689,381.683L656.796,381.683C678.156,381.683 695.499,363.936 695.499,342.076L695.499,155.299Z" style="fill:rgb(243,243,244);"/>
            </g>
            <g transform="matrix(1,0,0,1,25.2091,-282.446)">
                <rect x="229.993" y="349.188" width="374.933" height="212.6" style="fill:rgb(45,32,40);"/>
            </g>
            <g transform="matrix(0.999128,-0.0417509,0.0417509,0.999128,18.1573,4.47725)">
                <circle cx="198.961" cy="175.457" r="3.688" style="fill:rgb(45,32,40);"/>
            </g>
            <g transform="matrix(0.842826,0,0,0.842826,123.993,-206.543)">
                <circle cx="634.866" cy="456.303" r="19.844" style="fill:none;stroke-width:3.46px;stroke:rgb(242,219,199);"/>
            </g>
        </g>
        <g id="Hand">
            <g transform="matrix(0.956985,-0.179579,0.184432,0.982845,157.697,55.2942)">
                <path d="M322.957,309.905C323.747,311.931 324.18,314.135 324.18,316.439L327.779,353.19C327.779,363.142 319.699,371.222 309.747,371.222L273.683,371.222C263.731,371.222 255.652,363.142 255.652,353.19L252.053,316.439C252.053,314.135 252.486,311.931 253.275,309.905C257.393,294.52 271.44,283.178 288.116,283.178C304.792,283.178 318.839,294.52 322.957,309.905Z" style="fill:rgb(255,205,142);"/>
            </g>
            <g transform="matrix(0.970287,-0.0813198,0.0983885,1.17395,117.329,-36.9245)">
                <path d="M324.926,307.303C325.716,309.329 326.149,311.533 326.149,313.837L327.779,353.19C327.779,363.142 319.699,371.222 309.747,371.222L273.683,371.222C263.731,371.222 255.652,363.142 255.652,353.19L254.022,313.837C254.022,311.533 254.455,309.329 255.244,307.303C259.362,291.918 273.41,280.575 290.085,280.575C306.761,280.575 320.809,291.918 324.926,307.303Z" style="fill:rgb(255,205,142);"/>
            </g>
            <g transform="matrix(-0.956985,-0.179579,-0.184432,0.982845,642.303,56.2942)">
                <path d="M322.957,309.905C323.747,311.931 324.18,314.135 324.18,316.439L327.779,353.19C327.779,363.142 319.699,371.222 309.747,371.222L273.683,371.222C263.731,371.222 255.652,363.142 255.652,353.19L252.053,316.439C252.053,314.135 252.486,311.931 253.275,309.905C257.393,294.52 271.44,283.178 288.116,283.178C304.792,283.178 318.839,294.52 322.957,309.905Z" style="fill:rgb(255,205,142);"/>
            </g>
            <g transform="matrix(-0.970287,-0.0813198,-0.0983885,1.17395,682.671,-36.9245)">
                <path d="M324.926,307.303C325.716,309.329 326.149,311.533 326.149,313.837L327.779,353.19C327.779,363.142 319.699,371.222 309.747,371.222L273.683,371.222C263.731,371.222 255.652,363.142 255.652,353.19L254.022,313.837C254.022,311.533 254.455,309.329 255.244,307.303C259.362,291.918 273.41,280.575 290.085,280.575C306.761,280.575 320.809,291.918 324.926,307.303Z" style="fill:rgb(255,205,142);"/>
            </g>
            <g transform="matrix(1.05774,0.610688,-0.3422,0.592708,106.955,-175.885)">
                <path d="M281.729,156.519C281.729,130.376 269.836,109.151 255.187,109.151C240.538,109.151 228.644,130.376 228.644,156.519L228.644,279.567C228.644,305.71 240.538,326.934 255.187,326.934C269.836,326.934 281.729,305.71 281.729,279.567L281.729,156.519Z" style="fill:rgb(255,205,142);"/>
            </g>
            <g transform="matrix(-1.28192,0.306304,-0.140676,-0.588748,648.416,226.64)">
                <path d="M281.729,166.944C281.729,135.047 269.836,109.151 255.187,109.151C240.538,109.151 228.644,135.047 228.644,166.944L232.722,269.668C232.722,301.565 240.538,326.934 255.187,326.934C269.836,326.934 281.165,302.142 281.165,270.245L281.729,166.944Z" style="fill:rgb(255,205,142);"/>
            </g>
            <g transform="matrix(1.32996,-0.749301,0.237268,0.421134,-216.285,358.945)">
                <path d="M416.899,101.217C446.802,101.217 461.709,185.441 462.552,199.649C463.737,219.617 445.171,164.427 410.082,139.324C385.762,121.926 367.218,194.031 367.218,179.799C367.218,172.04 373.096,149.386 383.288,130.383C391.792,114.529 403.298,101.217 416.899,101.217Z" style="fill:rgb(255,205,142);stroke-width:0.18px;stroke:rgb(255,205,142);"/>
            </g>
            <g transform="matrix(-1.33608,0.231648,-0.082575,-0.476268,924.408,73.8787)">
                <path d="M416.899,101.217C446.802,101.217 461.709,185.441 462.552,199.649C463.737,219.617 445.171,164.427 410.082,139.324C385.762,121.926 367.218,194.031 367.218,179.799C367.218,165.566 386.996,101.217 416.899,101.217Z" style="fill:rgb(255,205,142);stroke-width:0.2px;stroke:rgb(255,205,142);"/>
            </g>
            <g transform="matrix(0.23747,0.949199,-0.468921,0.117314,258.818,-359.78)">
                <path d="M416.899,101.217C446.802,101.217 461.709,185.441 462.552,199.649C463.737,219.617 445.171,164.427 410.082,139.324C385.762,121.926 386.996,101.217 416.899,101.217Z" style="fill:rgb(255,205,142);stroke-width:0.27px;stroke:rgb(255,205,142);"/>
            </g>
        </g>
    </g>
</svg>
