<svg width="304" height="304" xmlns="http://www.w3.org/2000/svg"><g id="Page-1" fill="none" fill-rule="evenodd" fill-opacity=".05"><g id="Group" fill="#000000"><path d="M44 0l20 80H24L44 0zm168 124c6.62742 0 12-5.37258 12-12s-5.37258-12-12-12-12 5.37258-12 12 5.37258 12 12 12zM0 288h160v16H0v-16zm0-32h124v16H0v-16zm80-64h80v16H80v-16zM0 224h160v16H0v-16zm252-100c6.62742 0 12-5.37258 12-12s-5.37258-12-12-12-12 5.37258-12 12 5.37258 12 12 12zm40 0c6.62742 0 12-5.37258 12-12s-5.37258-12-12-12-12 5.37258-12 12 5.37258 12 12 12zm-80 40c6.62742 0 12-5.37258 12-12s-5.37258-12-12-12-12 5.37258-12 12 5.37258 12 12 12zm40 0c6.62742 0 12-5.37258 12-12s-5.37258-12-12-12-12 5.37258-12 12 5.37258 12 12 12zm40 0c6.62742 0 12-5.37258 12-12s-5.37258-12-12-12-12 5.37258-12 12 5.37258 12 12 12zm-120 0c6.62742 0 12-5.37258 12-12s-5.37258-12-12-12-12 5.37258-12 12 5.37258 12 12 12zM60 132c0-11.0457-8.9543-20-20-20s-20 8.9543-20 20h40zm40 0c0 11.0457-8.9543 20-20 20s-20-8.9543-20-20h40zM224 20c0-11.0457-8.9543-20-20-20s-20 8.9543-20 20h40zm40 0c0 11.0457-8.9543 20-20 20s-20-8.9543-20-20h40zm-12 184c6.62742 0 12-5.37258 12-12s-5.37258-12-12-12-12 5.37258-12 12 5.37258 12 12 12zm40 0c6.62742 0 12-5.37258 12-12s-5.37258-12-12-12-12 5.37258-12 12 5.37258 12 12 12zM84 0l20 80H64L84 0zm172 256v-16h-16v16h-16v16h16v16h16v-16h16v-16h-16zM144 52h16v16h-16V52zm16 16h16v16h-16V68zm-16 16h16v16h-16V84zm32-32h16v16h-16V52z" id="Shape"/></g></g></svg>