<svg viewBox="0 0 1366 768" xmlns="http://www.w3.org/2000/svg" fill-rule="evenodd" clip-rule="evenodd" stroke-linejoin="round" stroke-miterlimit="1.414" class="pixel_alicorn"><path d="M1326.242 767.96c89.92-125.47-3.106-360.763-3.106-360.763-47.474 112.432-145.677 150.471-279.08 96.173C891.28 441.402 901.78 340.474 927.81 265.008c26.03-75.466-65.074-166.73-246.69-140.502-181.617 26.23-128.966 190.659-128.966 190.659-44.368 24.542-141.832 143.11-14.937 213.207 126.895 70.25 48.51 124.702 34.016 126.083-114.915 9.97-154.404-174.553-260.297-127.464-221.992 99.24-238.408 183.757-205.871 240.97h1221.177z" fill="#37dae7" class="mane" fill-rule="nonzero"/><path d="M225.896 625.005c-24.107 12.73-124.824-29.144-143.016-9.203-23.22 25.462 79.864 141.115 251.424 128.844-20.114 2.76-42.89 11.964-56.94 23.468l331.878.153c13.163-14.571 36.235-50.617 7.1-79.76-9.17-9.204-11.98-11.658-16.713-14.265-45.996-25.616-110.478-84.823-163.72-155.38-55.906-74.086-165.497-59.054-183.392-59.36-19.522-.154-129.409-17.794-196.258-73.626-68.624-57.366-61.673 51.078-44.369 79.76 18.635 30.831 58.123 83.443 214.006 159.369z" fill="#e5ffff" class="skin" fill-rule="nonzero"/><path d="M893.646 716.423c-47.77-72.245-79.864-133.14-99.09-191.733 43.038-31.137 67.588-89.73 58.567-152.005-5.916-40.8-25.143-75.62-51.764-99.394 18.783 22.547 32.241 51.384 36.974 84.055 8.43 58.133-12.571 113.199-50.432 145.563-.296-.92-.444-1.84-.74-2.76l-8.282 3.22c.444 1.841 1.035 3.682 1.627 5.37-15.53 11.503-33.573 19.326-53.39 22.394-38.158 5.982-75.28-7.056-103.972-32.825 29.875 35.585 73.505 55.219 118.76 48.163 16.417-2.607 31.65-8.436 45.257-16.872 20.41 59.513 53.095 115.96 105.598 192.192l.887-5.368z" fill-opacity=".05" fill-rule="nonzero"/><path d="M665.147 767.96h256.747C851.052 666.42 798.105 574.694 777.548 498.461l-94.21 20.86s22.924 97.708-10.205 213.514c-3.55 12.731-6.211 24.388-7.986 35.125z" fill="#e5ffff" class="skin" fill-rule="nonzero"/><path d="M907.992 444.316c44.369-82.061 144.938-87.123 162.538-90.19 19.374-3.222 125.268-38.04 183.095-103.69 59.454-67.49 68.476 40.8 55.609 71.938-13.902 33.592-45.256 91.878-188.124 191.426 25.734 8.896 119.057-48.47 139.91-31.598 26.325 21.321-60.638 152.313-229.535 167.038 36.826-.767 85.336 17.793 74.54 41.874-9.022 20.094-94.654 28.07-124.085 7.363 0 0 18.93 37.886-2.81 40.187-27.213 2.914-70.398-12.424-85.336-34.665 0 0-31.798 19.326-55.165-.307-14.79-12.425 27.065-181.302 69.363-259.376zM570.05 361.948s-70.25-4.755-49.693-121.175c4.732-26.843 60.193 33.131 70.842 50.157 9.613 15.339-21.15 71.018-21.15 71.018z" fill="#e5ffff" class="skin" fill-rule="nonzero"/><path d="M777.548 498.461l-94.21 20.86s1.479 6.136 3.254 17.027c15.677 4.141 32.093 5.061 48.658 2.454 17.747-2.761 34.164-9.357 48.657-19.02-2.218-7.056-4.289-14.112-6.36-21.32z" fill-opacity=".05" fill-rule="nonzero"/><ellipse cx="537.6" cy="353.7" rx="91.2" ry="100.9" fill="#e5ffff" class="skin" transform="matrix(-1.46255 .22793 -.21977 -1.51684 1568.95 792.02)"/><path d="M606.432 420.081c1.035-.46 1.923-1.074 2.81-1.687 1.035-.614 1.923-1.227 2.81-1.994 1.775-1.38 3.698-2.761 5.324-4.295 1.036-.92 1.923-1.84 2.81-2.608 0 .614-.147 1.38-.295 1.994l-.444 2.761c-.148.92-.444 1.994-.592 2.915-.295.92-.591 1.84-.887 2.914l-.887 2.761c-.74 1.687-1.331 3.374-2.07 4.755-1.332 2.76-2.515 4.448-2.515 4.448s1.479-1.38 3.254-3.988c.887-1.227 1.922-2.76 2.958-4.295.443-.767 1.035-1.687 1.478-2.607.444-.92 1.036-1.84 1.332-2.761.443-.92.887-1.84 1.183-2.915.148-.46.443-1.38.591-1.687l-2.366-14.111c-.148.153-.296.153-.444.306-.591.46-1.627 1.074-2.958 1.688-.591.306-1.33.613-2.218.92-.74.153-1.627.46-2.514.614-.444.153-.888.153-1.331.306-.444 0-.888.154-1.48.154-1.035.153-1.922 0-2.957 0-1.036 0-1.923-.154-2.958-.307-1.035-.153-1.923-.46-2.81-.614l-2.662-.92c-.888-.307-1.627-.767-2.367-1.074a23.678 23.678 0 0 1-1.922-.92c-.592-.307-1.036-.613-1.48-.92-.739-.46-1.182-.767-1.182-.767s.443.307 1.035.92c.296.307.74.767 1.33 1.074.445.46 1.036.92 1.776 1.38.74.46 1.33 1.074 2.218 1.534.887.46 1.627.92 2.514 1.38.888.46 1.923.768 2.958 1.228l3.106.92c1.035.153 2.218.46 3.254.46.591 0 1.035.154 1.627.154h1.626c1.036 0 1.923-.154 2.81-.154-.443.614-1.035 1.38-1.626 2.148-1.331 1.687-2.81 3.22-4.29 4.908-.739.767-1.626 1.534-2.366 2.3-.887.768-1.627 1.535-2.366 1.995-.887.613-1.627 1.227-2.366 1.687-.74.46-1.48 1.074-2.219 1.38-.74.46-1.33.767-1.922 1.074-.592.307-1.184.46-1.627.614-.888.307-1.48.613-1.48.613s.592-.153 1.48-.306c.443-.154 1.035-.154 1.774-.46.592-.154 1.332-.46 2.219-.768.74-.306 1.627-.613 2.514-1.073.888 0 1.775-.614 2.81-1.074z" fill-opacity=".05" fill-rule="nonzero"/><path d="M591.199 290.93s28.248 45.71 51.616 45.71c43.481 0 72.025-29.144 117.725-46.784 48.51-18.866 77.054 5.829 77.054 5.829l-93.175-116.727-175.7 36.66 22.48 75.312z" fill="#37dae7" class="mane" fill-rule="nonzero"/><path d="M818.663 377.133c.887.614 1.923 1.074 2.81 1.687.887.46 1.923.92 2.81 1.38.887.307 1.923.768 2.81 1.074.887.307 1.775.614 2.514.767 3.106.92 5.177 1.227 5.177 1.227s-2.071-.613-4.881-2.147c-.74-.307-1.479-.767-2.218-1.227-.74-.46-1.627-.92-2.367-1.534-.74-.613-1.627-1.074-2.514-1.84-.74-.614-1.627-1.228-2.366-1.995l-1.183-1.073-1.036-1.074c-.74-.767-1.33-1.534-1.922-2.3-.296-.308-.592-.768-.888-1.074.148 0 .296.153.444.153 1.775.46 3.55.767 5.324 1.074 7.247 1.073 14.494 1.073 14.494 1.073s-7.099-1.534-13.754-3.988c-1.627-.613-3.254-1.227-4.733-1.994-.296-.153-.592-.307-.74-.46.444-.153.888-.153 1.332-.307.887-.306 1.774-.613 2.514-.92.887-.46 1.775-.767 2.514-1.227.887-.46 1.627-.92 2.366-1.38.444-.307.74-.46 1.184-.767.295-.307.739-.614 1.035-.92.74-.461 1.33-1.075 1.922-1.688l.74-.767c.296-.307.444-.614.74-.92.443-.614.887-1.074 1.183-1.534.295-.46.591-.92.739-1.227.444-.614.592-1.074.592-1.074l-.888.92-1.035 1.074c-.444.307-.887.767-1.331 1.227-.296.154-.444.46-.74.614-.295.153-.591.46-.887.613-.592.46-1.331.767-2.07 1.227-.296.154-.74.307-1.036.614-.443.153-.74.307-1.183.46-.74.307-1.627.614-2.366.767-.74.307-1.627.307-2.367.614-.887.153-1.626.153-2.366.306-1.627.154-2.958.154-4.289 0-1.183-.153-2.218-.153-2.958-.306-.296 0-.591-.154-.74-.154 0-.153 0-.307-.147-.307l-2.958 2.148c1.035 2.914 1.923 5.828 2.662 8.283l1.331-.154 1.923 4.142c-.148-.92-.296-1.688-.444-2.608.592.614 1.183 1.074 1.775 1.687.74.767 1.627 1.38 2.514 1.994l1.331.92 1.627.921z" fill-opacity=".05" fill-rule="nonzero"/><path d="M1160.598 396.766c-.295-1.38-.739-2.76-1.626-4.141-.888-1.38-2.07-2.454-3.254-3.221-1.183-.767-2.366-1.227-3.402-1.534-1.035-.307-2.218-.46-3.106-.614-.443 0-1.035 0-1.478-.153h-3.845c-.888 0-1.776.153-2.663.153-.887.154-1.627.154-2.514.307-.888.154-1.627.307-2.514.46-6.508 1.38-12.572 3.835-18.192 6.443-5.62 2.607-11.092 5.368-16.416 8.129-10.649 5.369-21.001 10.124-31.502 13.651-2.662.92-5.176 1.688-7.838 2.455l-7.987 2.3c-5.324 1.534-10.352 3.068-15.38 4.602-10.058 3.068-19.375 6.289-27.953 9.663-4.29 1.688-8.43 3.375-12.276 5.062-3.845 1.687-7.394 3.528-10.648 5.369-6.655 3.68-12.128 7.362-16.269 10.89-4.289 3.528-7.099 6.749-9.021 8.896-.888 1.074-1.627 1.994-2.07 2.608-.445.613-.74.92-.74.92l.443.46.74-.767c.443-.613 1.183-1.38 2.218-2.454 2.07-1.994 5.029-4.908 9.318-8.13 4.289-3.22 9.76-6.595 16.416-9.816 6.655-3.221 14.346-6.289 22.924-9.356 8.578-2.915 18.043-5.83 27.952-8.59a2199.47 2199.47 0 0 1 15.382-4.142c5.324-1.38 10.648-2.76 16.12-4.448 10.944-3.374 21.74-8.283 32.39-13.651 5.324-2.608 10.796-5.369 16.268-7.976 5.472-2.454 11.092-4.755 17.008-5.982a43.586 43.586 0 0 1 8.874-.92c1.479 0 2.958 0 4.289.46 1.33.306 2.662 1.073 3.401 2.3.74 1.228 1.036 2.608.888 4.142-.148 1.534-.444 2.914-.888 4.448-1.035 2.914-2.366 5.522-3.845 8.283-3.106 5.215-6.655 10.123-10.5 14.725-3.698 4.602-7.691 8.896-11.684 13.038-7.987 8.283-16.269 15.799-24.403 22.548-8.134 6.748-16.12 12.577-23.664 17.639-7.69 5.062-14.937 9.203-21.592 12.424-6.656 3.221-12.72 5.522-17.748 6.903-5.028 1.38-9.17 1.994-11.98 2.147-1.478.153-2.514.153-3.253.153h-1.035v.614s.443 0 1.035.153c.74 0 1.775.154 3.254.154 2.81 0 7.099-.307 12.423-1.534.444-.154 1.035-.307 1.479-.307.443.614 1.035 1.534 1.922 2.608.74 1.227 1.627 2.607 2.515 4.448.887 1.84 1.627 3.834 2.218 6.289.444 2.3.74 5.061.148 7.669-.592 2.76-1.775 5.368-3.55 7.823-3.549 4.908-9.021 8.59-14.641 11.504-5.62 3.067-11.536 5.368-17.304 7.209-5.62 1.84-11.092 3.22-15.677 4.448a200.13 200.13 0 0 1-11.24 2.3c-2.81.46-4.29.768-4.29.768l.149.613s.443 0 1.183.154c.74 0 1.923.153 3.254.153h.148c.147.613.295 1.534.591 2.76.296 1.075.296 2.302.592 3.836.148.766.148 1.533.148 2.3 0 .767.148 1.688 0 2.608 0 .92-.148 1.84-.148 2.76-.148.921-.296 1.995-.444 2.915-.296.92-.592 1.994-.887 3.068-.444.92-.74 1.994-1.331 2.914l-.888 1.38c-.296.46-.591.921-1.035 1.381-.592.92-1.479 1.687-2.218 2.608-1.627 1.534-3.55 3.067-5.62 4.141-2.071 1.227-4.142 2.148-6.36 3.068-2.218.767-4.437 1.38-6.507 1.994-4.29 1.074-8.43 1.534-11.98 1.687-3.55.307-6.507.307-8.578.307-2.07 0-3.254-.154-3.254-.154v.614s.296.153.888.307c.591.153 1.33.613 2.366.92 1.035.307 2.366.767 3.845.92 1.48.307 3.106.614 5.029.767 1.922.154 3.845.46 6.063.307 2.219 0 4.437-.153 6.804-.46 1.183-.153 2.366-.307 3.55-.614 1.182-.306 2.513-.613 3.697-1.073 1.183-.46 2.514-.92 3.697-1.38 1.183-.614 2.514-1.074 3.697-1.841 2.367-1.38 4.585-3.221 6.656-5.215.887-1.074 1.922-2.148 2.662-3.375.444-.614.887-1.227 1.183-1.84l.887-1.841c.296-.614.592-1.227.74-1.994.296-.614.444-1.227.591-1.994.296-1.227.444-2.608.74-3.835 0-1.227.148-2.454.148-3.528-.148-1.074-.148-2.147-.296-3.22a41.287 41.287 0 0 0-1.183-5.37c-.592-1.533-1.035-2.76-1.48-3.834-.443-1.074-1.034-1.84-1.182-2.3h4.14c1.923 0 4.29-.154 6.656-.461 2.366-.153 5.029-.46 7.839-1.074a98.335 98.335 0 0 0 8.725-1.84c2.958-.767 6.064-1.688 9.17-2.915s6.212-2.454 9.17-4.141c2.958-1.687 5.915-3.528 8.725-5.829 2.81-2.147 5.177-4.908 7.247-7.976 2.07-3.068 3.402-6.595 3.846-10.123.295-1.688.295-3.528 0-5.062-.296-1.534-.592-3.068-1.036-4.448-.887-2.761-2.218-4.909-3.401-6.596-1.183-1.687-2.514-3.068-3.55-4.141a19.41 19.41 0 0 0-2.07-1.84c4.732-1.228 10.057-3.069 15.825-5.523 6.95-2.914 14.493-6.749 22.48-11.657 7.986-4.755 16.268-10.584 24.55-17.18 8.43-6.595 17.009-13.958 25.29-22.24 4.142-4.142 8.283-8.59 12.128-13.192 3.993-4.755 7.839-9.663 11.092-15.338 1.627-2.914 3.254-5.829 4.437-9.357.592-1.84 1.183-3.681 1.331-5.982.148-.92.148-2.147-.148-3.528z" fill-opacity=".1" fill-rule="nonzero"/><path d="M695.466 619.33s-121.423 87.43-141.98 116.573c-12.128 17.026 11.683 28.376 55.608 32.21 31.058 2.608 85.78 0 85.78 0l.592-148.784z" fill="#e5ffff" class="skin" fill-rule="nonzero"/><path d="M216.283 533.587c.147-1.38.591-2.915 1.33-4.295.74-1.38 1.775-2.608 2.958-3.375 1.184-.92 2.219-1.38 3.402-1.84 1.035-.46 2.07-.614 3.106-.767.444-.154 1.035-.154 1.479-.154l1.33-.153 1.184-.153h3.993c.888 0 1.627 0 2.515.153.887 0 1.626.153 2.514.307 6.655.92 12.719 2.914 18.635 5.062 5.768 2.147 11.388 4.601 16.86 6.902 10.944 4.448 21.74 8.59 32.389 11.197 2.662.767 5.324 1.227 7.986 1.84 2.663.614 5.473 1.074 8.135 1.688 5.324 1.074 10.648 2.3 15.677 3.528 10.204 2.3 19.818 4.755 28.544 7.516 4.436 1.38 8.578 2.76 12.57 4.141 3.994 1.38 7.691 3.068 11.093 4.602 6.803 3.22 12.571 6.442 17.008 9.663 4.437 3.221 7.543 6.136 9.613 8.13 1.036 1.073 1.775 1.84 2.219 2.454.443.613.74.767.74.767l-.445.46-.739-.767c-.592-.46-1.331-1.227-2.366-2.148-2.07-1.84-5.472-4.601-9.91-7.362-4.436-2.914-10.204-5.829-17.155-8.59-6.804-2.76-14.79-5.215-23.516-7.516-8.726-2.3-18.339-4.448-28.544-6.442-5.028-1.073-10.352-1.994-15.677-3.068-5.324-1.073-10.944-1.84-16.416-3.22-11.092-2.608-22.185-6.596-33.277-11.198-5.472-2.3-11.092-4.601-16.712-6.749-5.62-2.147-11.388-3.834-17.304-4.601-2.958-.46-5.916-.46-8.874-.307-1.479.153-2.957.307-4.289.767-1.33.46-2.514 1.227-3.253 2.454-.74 1.227-.74 2.76-.592 4.141.148 1.534.592 2.915 1.183 4.295 1.183 2.761 2.81 5.369 4.437 7.823 3.402 4.908 7.395 9.51 11.388 13.805a234.246 234.246 0 0 0 12.571 12.117c8.578 7.67 17.304 14.572 25.882 20.554 8.578 6.135 17.008 11.35 24.847 15.799 7.986 4.448 15.529 7.976 22.332 10.737a105.023 105.023 0 0 0 18.191 5.522 58.462 58.462 0 0 0 12.128 1.227c1.479 0 2.514-.154 3.253-.154.74 0 1.036-.153 1.036-.153v.613s-.444 0-1.036.154c-.74.153-1.774.307-3.253.307-2.81.153-7.1.306-12.424-.614-.443 0-1.035-.153-1.626-.307a18.264 18.264 0 0 0-1.627 2.761c-.74 1.227-1.48 2.761-2.219 4.602-.74 1.84-1.33 3.988-1.775 6.442-.295 2.454-.295 5.062.444 7.67.74 2.607 2.219 5.214 4.141 7.515 3.846 4.602 9.613 7.823 15.381 10.43 5.768 2.608 11.98 4.449 17.748 5.982a222.514 222.514 0 0 0 15.973 3.222c4.732.767 8.726 1.227 11.388 1.533 2.81.307 4.289.46 4.289.46v.614s-.444.154-1.183.154c-.74.153-1.923.306-3.254.46h-.148c-.148.613-.148 1.534-.444 2.76-.148 1.074-.148 2.301-.296 3.835v2.301c0 .767 0 1.687.148 2.608l.444 2.76c.296.92.444 1.995.74 2.915.295.92.739 1.994 1.035 2.914.591.92.887 1.994 1.627 2.915l.887 1.38c.296.46.74.92 1.035 1.227.74.92 1.627 1.687 2.367 2.454 1.774 1.38 3.697 2.761 5.915 3.835 2.071 1.074 4.29 1.84 6.508 2.454 2.218.614 4.437 1.074 6.655 1.534 4.29.614 8.43.92 11.98.767 3.55 0 6.507-.153 8.578-.46a66.098 66.098 0 0 0 3.253-.307l.148.614s-.295.153-.74.46c-.59.307-1.33.613-2.365 1.073-1.036.46-2.219.92-3.698 1.228-1.479.46-3.106.92-4.88 1.227-1.775.306-3.846.613-6.064.767a50.335 50.335 0 0 1-6.803 0c-1.184-.154-2.367-.154-3.698-.46-1.183-.154-2.514-.46-3.697-.768-1.183-.306-2.514-.613-3.845-1.073-1.184-.46-2.515-.92-3.698-1.534-2.514-1.227-4.88-2.761-6.951-4.755-1.035-1.074-2.07-1.994-2.958-3.221-.444-.614-.887-1.074-1.331-1.687-.444-.614-.74-1.228-1.035-1.841l-.888-1.84c-.295-.614-.591-1.228-.74-1.841-.295-1.227-.739-2.455-.886-3.682-.148-1.227-.296-2.454-.444-3.527v-3.222c.148-1.994.444-3.834.887-5.368.444-1.534.74-2.914 1.331-3.988.444-1.074.888-1.84 1.036-2.454-1.184.153-2.663.306-4.142.306-1.922.154-4.289.154-6.655.154a69.1 69.1 0 0 1-7.838-.46c-2.81-.307-5.768-.614-8.726-1.227-2.958-.614-6.212-1.227-9.318-2.148-3.105-.92-6.36-1.994-9.465-3.374a60.189 60.189 0 0 1-9.17-5.062c-2.957-1.994-5.62-4.448-7.838-7.363-2.218-2.914-3.845-6.288-4.585-9.816a29.261 29.261 0 0 1-.444-5.062c.148-1.687.296-3.068.74-4.448.74-2.761 1.775-5.062 2.958-6.903 1.183-1.84 2.218-3.22 3.254-4.448.74-.92 1.479-1.534 1.922-1.994-4.732-.92-10.205-2.3-16.12-4.295a173.556 173.556 0 0 1-23.22-9.97c-8.282-4.141-16.86-9.203-25.734-15.185-8.874-5.982-17.895-12.578-26.77-20.4-4.436-3.835-8.873-7.976-13.014-12.271-4.289-4.295-8.43-9.05-12.127-14.418-1.923-2.761-3.698-5.522-5.029-8.897a20.65 20.65 0 0 1-1.627-5.828c-.443-.92-.591-2.148-.443-3.528z" fill-opacity=".1" fill-rule="nonzero"/><path d="M840.256 653.074s3.401-201.856 132.958-338.216c54.278-57.06 92.14 60.128 70.842 77-11.98 9.357-151.445 152.312-147.748 344.045l-56.052-82.829z" fill="#e5ffff" class="skin" fill-rule="nonzero"/><path d="M720.608 422.995s.444-.613 1.183-1.687c.444-.46.887-1.074 1.627-1.687.591-.614 1.331-1.38 2.218-1.994.888-.767 1.775-1.38 2.81-2.148 1.036-.613 2.219-1.38 3.402-1.994 1.183-.613 2.514-1.227 3.845-1.687 1.331-.46 2.662-.92 4.141-1.38 1.331-.307 2.81-.614 4.29-.92 1.33-.307 2.81-.307 4.14-.307 1.331-.154 2.663 0 3.846.153.591 0 1.183 0 1.774.153.592.154 1.184.154 1.627.307 2.07.307 3.846 1.074 5.029 1.534 1.183.46 1.775.92 1.775.92v.46H758.173c-.887 0-1.774 0-2.81.154h-1.626c-.592 0-1.184.153-1.627.153-1.183.154-2.367.154-3.698.46-1.33.154-2.514.307-3.845.767l-3.993.92c-1.331.307-2.662.768-3.845 1.074-1.332.307-2.515.92-3.698 1.227-2.366.92-4.585 1.841-6.507 2.761-3.698 1.688-6.064 3.222-6.064 3.222l.148-.46zM736.729 434.04s-.148.306-.444.613c-.296.306-.74.767-1.331 1.073l-.888.46c-.295.154-.74.154-1.035.307-.74.154-1.627 0-2.366-.306-.74-.307-1.48-.614-2.07-1.228-.297-.306-.592-.613-.74-.92-.296-.307-.444-.613-.592-.92-.296-.614-.443-1.227-.443-1.687v-.767l.147-.154s.444.46 1.331 1.074c.74.614 2.071 1.227 3.254 1.687 1.331.46 2.662.614 3.55.614h1.627v.153zM759.505 429.284s.591-.153 1.33-.307c.74-.306 1.775-.766 2.367-1.687.74-.767 1.035-1.84 1.331-2.607.148-.767.296-1.38.296-1.38h.296l.443.46c.296.306.592.766.74 1.226.148.307.148.614.148.92v1.074a5.305 5.305 0 0 1-1.036 2.301c-.591.614-1.33 1.227-2.07 1.38-.296.154-.74.154-1.035.154-.296 0-.592 0-.888-.153-.591-.154-1.035-.46-1.33-.614l-.445-.46-.147-.307z" fill-opacity=".1" fill-rule="nonzero"/><path d="M721.495 230.496c-3.55-70.558-13.754-230.54-27.213-230.54-12.423 0-28.987 164.124-32.093 230.233 19.374-3.22 42.742-1.994 59.306.307z" fill="#e5ffff" class="skin" fill-rule="nonzero"/><path d="M682.007 413.639c-.148-1.227-.148-3.221-.444-5.522-.295-2.454-.591-5.369-1.33-8.59-.592-3.374-1.332-7.055-2.515-11.043-1.183-3.989-2.514-8.283-4.437-12.732-1.922-4.448-4.14-9.05-7.247-13.497a51.504 51.504 0 0 0-5.028-6.596 28.469 28.469 0 0 0-2.958-3.068c-1.035-.92-2.219-1.994-3.402-2.914-2.366-1.84-5.176-3.375-8.282-4.602-3.106-1.073-6.655-1.687-10.353-.92-3.697.767-6.95 2.76-9.465 5.368-2.514 2.455-4.141 5.369-5.324 8.283-2.514 5.829-3.106 11.504-3.55 16.873-.296 5.368 0 10.583.592 15.338.296 2.761.74 5.522 1.183 8.13-.148.153-.296.153-.444.307-.591.46-1.627 1.073-2.958 1.687-.591.307-1.33.613-2.218.92-.74.154-1.627.46-2.514.614-.444.153-.888.153-1.331.306-.444 0-.888.154-1.48.154-1.035.153-1.922 0-2.957 0s-1.923-.154-2.958-.307c-1.035-.153-1.923-.46-2.81-.613l-2.662-.92c-.888-.308-1.627-.768-2.367-1.074a23.678 23.678 0 0 1-1.922-.92c-.592-.308-1.036-.614-1.48-.921-.739-.46-1.182-.767-1.182-.767s.443.307 1.035.92c.296.307.74.767 1.33 1.074.445.46 1.036.92 1.776 1.38.74.46 1.33 1.074 2.218 1.534.888.46 1.627.92 2.514 1.38.888.461 1.923.768 2.958 1.228l3.106.92c1.035.154 2.219.46 3.254.46.591 0 1.035.154 1.627.154h1.627c1.035 0 1.922-.154 2.81-.154-.444.614-1.036 1.38-1.627 2.148-1.331 1.687-2.81 3.22-4.29 4.908-.739.767-1.626 1.534-2.366 2.3-.887.768-1.626 1.535-2.366 1.995-.887.613-1.627 1.227-2.366 1.687-.74.46-1.48 1.074-2.219 1.38-.74.46-1.33.768-1.922 1.074-.592.307-1.184.46-1.627.614-.888.307-1.48.613-1.48.613s.592-.153 1.48-.306c.443-.154 1.035-.154 1.775-.46.591-.154 1.33-.46 2.218-.767.74-.307 1.627-.614 2.514-1.074.888-.307 1.775-.92 2.81-1.38 1.035-.46 1.923-1.074 2.81-1.688 1.035-.613 1.923-1.227 2.81-1.994 1.775-1.38 3.698-2.76 5.325-4.295 1.035-.92 1.922-1.84 2.81-2.607 0 .613-.148 1.38-.296 1.994l-.444 2.76c-.148.921-.444 1.995-.592 2.915-.295.92-.591 1.84-.887 2.914l-.887 2.761c-.74 1.688-1.331 3.375-2.07 4.755-1.332 2.761-2.515 4.449-2.515 4.449s1.479-1.381 3.254-3.989c.887-1.227 1.922-2.76 2.958-4.294.443-.767 1.035-1.688 1.479-2.608.443-.92 1.035-1.84 1.33-2.76.444-.921.888-1.841 1.184-2.915.443-.92.74-1.994 1.035-2.915 0-.153 0-.306.148-.306.296 1.227.74 2.454 1.035 3.528a69.823 69.823 0 0 0 2.81 8.13c.74 2.3 1.627 3.987 2.07 5.214.444 1.227.74 1.84.74 1.84l.592-.153-.444-1.84c-.296-1.227-.74-3.068-1.33-5.369-1.036-4.448-2.515-10.89-3.698-18.713l-.444-3.068c-.887-7.515-1.627-16.105-.887-25.155.443-5.062 1.479-10.277 3.55-15.032 1.034-2.3 2.365-4.601 4.288-6.442 1.775-1.84 3.993-3.068 6.508-3.681 2.514-.46 5.028-.154 7.394.613 2.367.767 4.733 2.148 6.656 3.682 4.14 3.067 7.542 7.055 10.5 11.043 5.768 8.13 9.614 16.873 12.424 24.389 2.81 7.516 4.436 14.111 5.62 18.713.591 2.3.887 4.141 1.183 5.368l.443 1.841.592-.153c.148.46.148-.154 0-1.534zM819.55 368.697c7.247 1.073 14.494 1.073 14.494 1.073s-7.099-1.533-13.754-3.988c-1.627-.613-3.254-1.227-4.733-1.994-.296-.153-.591-.306-.74-.46.444-.153.888-.153 1.332-.307.887-.306 1.774-.613 2.514-.92.887-.46 1.775-.767 2.514-1.227.888-.46 1.627-.92 2.366-1.38.444-.307.74-.46 1.184-.767.295-.307.74-.614 1.035-.92.74-.46 1.331-1.074 1.923-1.688l.74-.767c.295-.307.443-.613.739-.92.443-.614.887-1.074 1.183-1.534.295-.46.591-.92.74-1.227.443-.614.59-1.074.59-1.074l-.887.92-1.035 1.074c-.444.307-.887.767-1.33 1.227-.297.154-.445.46-.74.614-.296.153-.592.46-.888.613-.591.46-1.33.767-2.07 1.227-.296.154-.74.307-1.036.614-.443.153-.74.307-1.183.46-.74.307-1.627.614-2.366.767-.74.307-1.627.307-2.366.614-.888.153-1.627.153-2.367.306-1.627.154-2.958.154-4.289 0-1.183-.153-2.218-.153-2.958-.306-.295 0-.591-.154-.74-.154-.147-.307-.147-.613-.295-.92-1.035-3.835-2.218-7.823-3.845-11.964-1.627-4.142-3.402-8.59-5.916-13.038-1.183-2.147-2.514-4.448-4.141-6.596-1.627-2.147-3.402-4.294-5.62-6.288-2.219-1.994-4.88-3.682-8.282-4.755-1.627-.46-3.55-.767-5.473-.614-1.922.153-3.697.767-5.472 1.534-1.627.767-3.106 1.994-4.289 3.068a34.215 34.215 0 0 0-3.106 3.68c-1.774 2.608-2.957 5.216-3.845 7.977-1.035 2.608-1.627 5.369-2.07 7.976a70.35 70.35 0 0 0-.888 7.823c-.443 5.062-.148 9.97.296 14.418a96.259 96.259 0 0 0 2.07 12.578c.888 3.834 1.923 7.209 2.959 10.277 1.035 3.067 2.07 5.521 2.957 7.669.888 2.147 1.775 3.681 2.219 4.755.591 1.074.887 1.687.887 1.687l.592-.153s-.148-.614-.592-1.688c-.443-1.073-.887-2.76-1.479-4.908-1.183-4.295-2.81-10.43-3.993-17.946-1.183-7.516-1.775-16.412-.887-25.922.443-4.755 1.33-9.51 3.106-14.265.887-2.301 1.922-4.602 3.253-6.596 1.331-1.994 3.106-3.834 5.177-4.908 1.035-.46 2.218-.92 3.253-.92 1.183-.154 2.367 0 3.402.306 2.218.614 4.289 1.994 6.212 3.528 3.697 3.221 6.507 7.21 8.873 11.197 2.367 3.988 4.437 8.13 6.212 12.118a128.977 128.977 0 0 1 4.437 11.35c1.33 3.528 2.366 6.903 3.254 9.817a297.34 297.34 0 0 1 2.218 7.67c.592 2.147 1.035 3.834 1.331 4.908l.444 1.84.591-.153s0-.614-.148-1.84c-.147-1.228-.295-2.915-.591-5.216a154.193 154.193 0 0 1-.888-5.675c.592.614 1.184 1.074 1.775 1.687.74.767 1.627 1.38 2.514 1.994l1.332.92 1.478.92c.888.614 1.923 1.075 2.81 1.688.888.46 1.923.92 2.81 1.38.888.307 1.923.768 2.81 1.074.888.307 1.775.614 2.515.767 3.106.92 5.176 1.227 5.176 1.227s-2.07-.613-4.88-2.147c-.74-.307-1.48-.767-2.219-1.227-.74-.46-1.627-.92-2.366-1.534-.74-.614-1.627-1.074-2.514-1.84-.74-.614-1.627-1.228-2.367-1.995l-1.183-1.073-1.035-1.074c-.74-.767-1.331-1.534-1.923-2.3-.296-.308-.591-.768-.887-1.075.148 0 .296.154.443.154 2.219.153 4.142.613 5.916.767z" fill-opacity=".5" fill-rule="nonzero"/><path d="M532.928 266.388s.148.307.296.92c.148.614.443 1.534.74 2.608.59 2.148 1.478 5.369 2.513 9.05.592 1.84 1.036 3.835 1.775 5.829.592 1.994 1.331 4.141 2.07 6.442.444 1.074.74 2.147 1.184 3.374.444 1.074.887 2.148 1.183 3.375.887 2.147 1.775 4.448 2.81 6.595.887 2.148 2.07 4.295 3.106 6.443.591 1.073 1.183 1.994 1.627 3.067.591.92 1.183 1.994 1.774 2.915l1.775 2.76c.592.92 1.183 1.841 1.775 2.608 1.331 1.687 2.366 3.221 3.55 4.755.591.767 1.183 1.38 1.626 1.994.592.614 1.036 1.38 1.627 1.84 1.035 1.074 1.923 2.148 2.662 3.068.74.767 1.331 1.534 1.775 1.995.444.46.592.766.592.766l-.296.614s-1.035-.614-2.958-1.84c-.887-.614-2.07-1.381-3.402-2.301-1.183-.92-2.662-1.994-4.14-3.222-.74-.613-1.48-1.227-2.22-1.994l-2.218-2.3c-.74-.767-1.479-1.688-2.218-2.608l-2.219-2.76a21.948 21.948 0 0 1-2.07-3.069c-.592-1.073-1.331-2.147-2.07-3.22a49.852 49.852 0 0 1-3.55-6.903c-4.29-9.51-6.36-19.94-7.247-27.61-.887-7.822-.444-13.037-.444-13.037l.592-.154z" fill-opacity=".1" fill-rule="nonzero"/><path d="M837.742 295.685s-28.544-24.695-77.054-5.829c-45.7 17.793-74.244 46.783-117.726 46.783-8.873 0-18.487-6.596-26.917-14.878 9.762 10.737 21.889 21.014 32.833 21.014 43.482 0 72.026-29.144 117.726-46.783 48.51-18.867 77.053 5.828 77.053 5.828l-5.915-6.135zM749.448 238.625s-.296-.153-1.036-.153c-.591-.153-1.627-.307-2.81-.46-1.183-.307-2.662-.46-4.437-.767l-2.662-.46c-.887-.154-1.922-.307-2.958-.46-2.07-.307-4.289-.614-6.655-.92-2.366-.307-4.88-.46-7.543-.768-2.662-.306-5.324-.46-7.986-.767-2.81-.153-5.472-.46-8.282-.613-2.81-.153-5.62-.46-8.282-.46-2.81 0-5.473-.46-8.135-.46s-5.176-.154-7.542-.307c-2.367 0-4.733-.154-6.804-.307-2.07-.153-4.14-.153-5.768-.307-1.774 0-3.253-.153-4.436-.307-1.184-.153-2.219-.153-2.958-.306-.74 0-1.036-.154-1.036-.154v-.46s1.48-.153 3.846-.46c1.183-.153 2.81-.307 4.437-.46 1.774-.154 3.697-.307 5.768-.46 2.07-.154 4.436-.307 6.803-.46 2.514 0 5.028-.154 7.69-.154 2.662-.153 5.472 0 8.283 0 2.81 0 5.62.154 8.43.307 2.81.153 5.62.46 8.43.767 2.81.307 5.472.767 8.134 1.074 2.662.46 5.176.92 7.543 1.38 2.366.46 4.584 1.074 6.655 1.534 2.07.613 3.993 1.074 5.62 1.687 1.627.46 3.106 1.074 4.289 1.534 2.366.92 3.697 1.534 3.697 1.534l-.295.613z" fill-opacity=".05" fill-rule="nonzero"/><path d="M730.517 469.778s-.296.153-.592.46c-.443.307-1.035.767-1.922 1.227-.888.46-1.923 1.074-3.254 1.688-.592.306-1.331.613-2.07.92-.74.307-1.48.46-2.367.767-1.627.46-3.402.92-5.472 1.227-1.923.307-4.141.46-6.212.46-2.218 0-4.437-.153-6.803-.767-2.366-.46-4.585-1.227-6.951-1.994-1.183-.46-2.218-1.074-3.254-1.534l-3.106-1.84c-1.035-.614-1.922-1.38-2.81-2.148-.443-.46-.887-.767-1.33-1.227-.444-.46-.888-.767-1.184-1.227-.74-.767-1.627-1.687-2.218-2.607-.74-.92-1.331-1.688-1.923-2.608-1.183-1.687-2.07-3.528-2.81-5.062-.74-1.687-1.331-3.22-1.627-4.601-.443-1.38-.74-2.608-.74-3.682-.147-1.073-.147-1.84-.295-2.454v-.92l.592-.307 1.33 2.761c.444.92 1.036 1.84 1.627 3.068.592 1.227 1.48 2.454 2.367 3.834 1.035 1.38 1.922 2.761 3.253 4.142.592.767 1.184 1.38 1.923 2.147l1.035 1.074c.444.307.74.613 1.184.92.74.614 1.479 1.227 2.366 1.84.74.614 1.775 1.228 2.514 1.688.888.614 1.775 1.074 2.81 1.534.888.46 1.923.92 2.958 1.227 1.923.767 3.993 1.534 6.064 1.994 2.07.46 3.993.92 6.064 1.074 3.993.46 7.69.307 10.796 0 3.106-.307 5.768-.767 7.543-1.227 1.774-.46 2.81-.767 2.81-.767l-.296.92z" fill-opacity=".1" fill-rule="nonzero"/><path d="M840.847 641.877s-1.627 16.413-2.662 27.763l-2.366-.46c-1.775-14.879-4.29-43.102-4.29-43.102l9.318 15.8zM1046.127 347.53c5.62 19.173 5.62 38.193-2.07 44.328-11.684 9.203-146.713 148.324-147.749 334.995l14.642 21.014c6.064-181.302 136.508-316.282 147.896-325.332 11.98-9.51 5.176-50.924-12.719-75.006zM691.324 622.397l-5.028 48.01-.592.153c-.443-9.97-1.774-37.272-3.55-41.414l9.17-6.749z" fill-opacity=".05" fill-rule="nonzero"/><g transform="matrix(1.47896 0 0 1.53386 -90.158 -164.473)"><clipPath id="a"><path d="M694 429.461h242.752v169.468H694z"/></clipPath><g opacity=".05" fill-rule="nonzero" clip-path="url(#a)"><path d="M805.1 544c4.3 4 6.1 8.6 3.8 13.7-6.1 13.1-64 18.3-83.9 4.8 0 0 12.8 24.7-1.9 26.2-8.4.9-19-.8-29.1-4.2 13.3 9.7 34.6 15.7 49.1 14.2 14.7-1.5 1.9-26.2 1.9-26.2 19.9 13.5 77.8 8.3 83.9-4.8 4.7-10.3-7.7-19-23.8-23.7zM933.6 431.5c-3.3-2.6-9.4-2.5-16.9-.9-2 26.3-59.4 91.5-158.3 99.8 12.6-.2 27.3 2.8 37.7 7.8 102.6-16.4 154.4-93.6 137.5-106.7z"/></g></g><g transform="matrix(1.47896 0 0 1.53386 -90.158 -164.473)"><clipPath id="b"><path d="M182.1 509.4H287v91.9H182.1z"/></clipPath><g opacity=".05" fill-rule="nonzero" clip-path="url(#b)"><path d="M287 592.7c-41.5 2.9-77.1-5-104.9-16.9 20.2 11.6 46.3 21.5 77.2 25.5 8.4-4.2 18.5-7.4 27.7-8.6zM213.3 514.8c.1-.1.2-.1.3-.2-3.7-1.7-7.3-3.5-10.9-5.2 3.5 1.8 7 3.6 10.6 5.4z"/></g></g><path d="M615.75 687.74l-23.96 9.816s11.388-7.669 11.98-20.86l8.282 7.362 3.698 3.682z" fill-opacity=".05" fill-rule="nonzero"/><path d="M531.745 744.032c-23.96 31.751 103.823 24.389 167.566 24.235 52.947-.153 123.05.154 139.466.154 41.41 0 37.713-71.018 24.846-87.737-21.74-27.763-260.592-31.444-331.878 63.348z" fill-opacity=".05" fill-rule="nonzero"/><path d="M622.405 685.439c-13.902-8.283-29.136-19.48-45.108-32.671-2.515 1.227-4.585 1.84-6.064 1.994-.444 0-.887 0-1.331.153 10.5 7.67 20.41 14.112 29.579 19.173 4.733 2.608 6.951 4.448 16.12 13.805l6.804-2.454z" fill-opacity=".05" fill-rule="nonzero"/><path d="M538.696 744.032c-22.185 29.45 96.28 22.701 155.29 22.395 49.102-.154 114.176.153 129.262.153 38.305 0 35.051-65.803 22.924-81.295-19.966-25.615-241.367-28.99-307.476 58.747z" fill="#e5ffff" class="skin" fill-rule="nonzero"/></svg>