<?xml version="1.0" encoding="UTF-8" standalone="no"?><svg width="270" height="269" xmlns="http://www.w3.org/2000/svg" xmlns:xlink="http://www.w3.org/1999/xlink"><defs><path d="M.01733773 1.88003928c0-3.03205004 7.93641174-.86582823 7.93641174-.86582823 2.34306403.47818371 3.30924333 2.56652652 2.00819619 4.56849886 0 0-1.46265529 3.84208699-4.67334591 3.45675309C2.07790913 8.6541292.01733773 4.91208933.01733773 1.88003928z" id="path-1"/><path d="M.9182847 1.80705463c0-3.03205004 7.8679393-.87720657 7.8679393-.87720657 2.3808804.4844678 3.366653 2.596586 2.0300116 4.64448753 0 0-1.4159982 3.77747661-4.6266889 3.39214281C2.9788561 8.5811446.9182847 4.83910468.9182847 1.80705463z" id="path-3"/><path d="M4.69563679 6.54955775v-.87736084c0-2.75205558 2.23442591-4.98303743 4.98387264-4.98303743h.75326917c2.7525169 0 4.9838727 2.23728998 4.9838727 4.98461539 0 2.75292706-2.2221045 4.98461543-4.9896047 4.98461543h-.62077704c-2.75568257 0-6.55024937-1.60034738-8.47267044-3.57167465l-.5238319-.53715812 3.88586957 2.2e-7z" id="path-5"/><path d="M3.99456522 4.8911675v-.2621738c0-2.4120789 1.94867268-4.3674552 4.37151498-4.3674552h6.1627671c2.4143211 0 4.371515 1.9610813 4.371515 4.3692307C18.9003623 7.0438288 16.9370591 9 14.5244536 9H8.4915021C6.0747544 9 2.74785335 7.5974649 1.05827447 5.8649033l-.94957882-.973736 3.88586957 2e-7z" id="path-7"/><path d="M.08612242 11.8406854C.0428122 9.81851279 1.10017101-.28561217 13.326915 1.09717495 25.8669226 2.51539072 24.0988602 17.911797 23.5143568 18.207c0 0-4.3062367-3.0704519-13.0867469-5.1135891C1.64709976 11.0502738.08723208 11.8924959.08612242 11.8406854z" id="path-9"/><path d="M.20626788 5.3521503C.25836785 1.9024128 3.02633222-.24476431 6.38825606.5585952c0 0 6.52083594 1.5454876 7.89673714 1.9189589 1.3759012.3734714 9.0215073 3.1487827 9.0215073 3.1487827s-4.5192676 7.2844908-6.7109858 7.2844908c-2.1917182 0-6.3598983-3.7021117-11.11967436-3.7021119-4.75977604-2e-7-4.49186737 2.7144884-4.98772127 1.8707002-.4958539-.8437882-.28185119-5.7272656-.28185119-5.7272656z" id="path-11"/><rect id="path-13" x=".16292135" width="20.6741573" height="12.893617" rx="6.4468085"/><path d="M.49792858 3.3720175C.15156758 2.0032347 1.00833342.893617 2.42637695.893617H20.5736231c1.4114136 0 2.2752164 1.1080091 1.9284483 2.4784005l-.0378507.149582C22.1178597 4.8903823 20.6960975 6 19.2812857 6H3.71871431C2.30718883 6 .88254733 4.8919909.53577928 3.5215995l-.0378507-.149582z" id="path-15"/></defs><g id="Page-1" fill="none" fill-rule="evenodd" opacity=".2"><g id="hackclub-40" transform="translate(-3 1)"><g id="Patterns"><g id="A1"><g id="Group-2" transform="rotate(45 -194.86500705 116.52081528)"><path d="M19.4581271 1.70890976c-.3227159-.37245435-1.7432219.26231424-2.8044283-.00967735-.6304983-.16159931-.944131-.87304739-.8655295-1.07995956.2108976-.55517088 2.1004572-.516326 2.1004572-.516326 1.4630539-.09166706 2.9855183.97828815 3.3998221 2.3874395l.8541015 2.90501382H21.028966s-1.2151877-3.27602461-1.5708389-3.68649041z" id="Rectangle-4" fill="#000000"/><path d="M3.95862421 1.70817842c-.32271593-.37245435-1.74322189.26231424-2.80442834-.00967735C.52369756 1.53690176.21006491.82545368.28866644.61854151c.2108976-.55517088 2.10045721-.516326 2.10045721-.516326 1.46305382-.09166706 2.9855183.97828815 3.39982208 2.3874395l.85410145 2.90501383h-1.1135841S4.31427545 2.11864422 3.95862421 1.70817842z" id="Rectangle-4" fill="#000000" transform="matrix(-1 0 0 1 6.919824 0)"/><rect id="Rectangle-3" fill="#000000" x="9.13363517" y="6.05183773" width="3.5980987" height="2.01727924" rx="1.00863962"/><g id="Rectangle-10-Clipped" transform="translate(0 4)"><mask id="mask-2" fill="white"><use xlink:href="#path-1"/></mask><g id="Rectangle-10" mask="url(#mask-2)" stroke="#000000" stroke-width="2"><path d="M.01733773 1.88003928c0-3.03205004 7.93641174-.86582823 7.93641174-.86582823 2.34306403.47818371 3.30924333 2.56652652 2.00819619 4.56849886 0 0-1.46265529 3.84208699-4.67334591 3.45675309C2.07790913 8.6541292.01733773 4.91208933.01733773 1.88003928z" id="path-1"/></g></g><g id="Rectangle-10-Clipped" transform="translate(11 4)"><mask id="mask-4" fill="white"><use xlink:href="#path-3"/></mask><g id="Rectangle-10" mask="url(#mask-4)" stroke="#000000" stroke-width="2"><path d="M.62539148 2.51416141C.62539148-.51788863 7.786224.92984806 7.786224.92984806c2.3808804.4844678 3.366653 2.596586 2.0300116 4.64448753 0 0-1.4159982 3.77747661-4.6266889 3.39214281-.44127281-.05295974-.8608206-.16932553-1.25627971-.33853972C1.45137491 7.56595442.62539149 5.12949076.62539149 2.51416141z" transform="matrix(-1 0 0 1 11.335744 0)" id="path-3"/></g></g></g><g id="Group-3" transform="rotate(180 90.5 115.5)"><rect id="Rectangle-2" fill="#000000" y="12.5979381" width="4.36363636" height="1.07216495" rx=".53608247"/><rect id="Rectangle-2" fill="#000000" x="22.9090909" y="12.5979381" width="4.09090909" height="1.07216495" rx=".53608247"/><path d="M13.0909091.5422385c0-.29947005.2530185-.5422385.5454545-.5422385.3012463 0 .5454546.23946733.5454546.5422385v2.93614155c0 .29947006-.2530185.54223851-.5454546.54223851-.3012462 0-.5454545-.23946733-.5454545-.54223851V.54223851z" id="Rectangle-2" fill="#000000"/><path d="M21.1956857 3.81703641c0-.29947006.2530184-.54223851.5454545-.54223851.3012462 0 .5454545.23946733.5454545.54223851v2.93614154c0 .29947006-.2530184.54223851-.5454545.54223851-.3012462 0-.5454545-.23946733-.5454545-.54223851V3.81703641z" id="Rectangle-2" fill="#000000" transform="rotate(45 21.74114 5.285107)"/><path d="M4.83204947 3.81703616c0-.29947006.25301846-.54223851.54545454-.54223851.30124623 0 .54545455.23946733.54545455.54223851V6.7531777c0 .29947006-.25301847.54223851-.54545455.54223851-.30124622 0-.54545454-.23946733-.54545454-.54223851V3.81703616z" id="Rectangle-2" fill="#000000" transform="rotate(135 5.377504 5.285107)"/><path d="M9.60100548 19.181858c.18596256.1164499.34676 1.2300358.34676 1.2300358.20517202 1.0713863 1.26572652 1.9399165 2.37596432 1.9399165h2.3261723c1.1070368 0 2.1710356-.8726637 2.391011-1.9578122 0 0 .1900585-1.1613122.3317133-1.2520719 1.9657913-1.259504 3.2652379-3.439519 3.2652379-5.9178211 0-3.89866456-3.2157455-7.05915665-7.1825685-7.05915665-3.96682308 0-7.18256853 3.16049209-7.18256853 7.05915665 0 2.5046991 1.3272754 4.7047229 3.32827821 5.9577529z" id="Oval" stroke="#000000"/><rect id="Rectangle" fill="#000000" x="10.6363636" y="23.0515464" width="5.74605479" height="1.0588735" rx=".52943675"/><rect id="Rectangle" fill="#000000" x="11.4545455" y="24.9278351" width="4.30954109" height="1.0588735" rx=".52943675"/></g><g id="Group-5" transform="rotate(42 -78.35051806 107.139307)"><g id="Rectangle-11-Clipped"><mask id="mask-6" fill="white"><use xlink:href="#path-5"/></mask><g id="Rectangle-11" mask="url(#mask-6)" stroke="#000000" stroke-width="2"><path d="M4.69563679 6.54955775v-.87736084c0-2.75205558 2.23442591-4.98303743 4.98387264-4.98303743h.75326917c2.7525169 0 4.9838727 2.23728998 4.9838727 4.98461539 0 2.75292706-2.2221045 4.98461543-4.9896047 4.98461543h-.62077704c-2.75568257 0-6.55024937-1.60034738-8.47267044-3.57167465l-.5238319-.53715812 3.88586957 2.2e-7z" id="path-5"/></g></g><g id="Rectangle-11-Clipped" transform="translate(5 12)"><mask id="mask-8" fill="white"><use xlink:href="#path-7"/></mask><use id="path-7" stroke="#000000" xlink:href="#path-7"/></g></g><g id="Group-2" transform="translate(159 94)"><g id="Rectangle-4-Clipped" transform="translate(3)"><mask id="mask-10" fill="white"><use xlink:href="#path-9"/></mask><g id="Rectangle-4" mask="url(#mask-10)" stroke="#000000" stroke-width="2"><path d="M.08612242 11.8406854C.0428122 9.81851279 1.10017101-.28561217 13.326915 1.09717495 25.8669226 2.51539072 24.0988602 17.911797 23.5143568 18.207c0 0-4.3062367-3.0704519-13.0867469-5.1135891C1.64709976 11.0502738.08723208 11.8924959.08612242 11.8406854z" id="path-9"/></g></g><path d="M12.1971918 1.29072473s-2.53055817.19032466-3.56910875 5.11406565C7.58953246 11.3285314 7.03167743 12.0439715 7.03167743 12.0439715" id="Path-2" stroke="#000000"/><path d="M17.9632409 1.44007538s2.0165267 1.09869605 1.7472039 5.8411259c-.2693229 4.74242982-1.047 7.07770522-1.047 7.07770522" id="Path-3" stroke="#000000"/><g id="Rectangle-5-Clipped" transform="translate(0 10)"><mask id="mask-12" fill="white"><use xlink:href="#path-11"/></mask><g id="Rectangle-5" mask="url(#mask-12)" stroke="#000000" stroke-width="2"><path d="M.20626788 5.3521503C.25836785 1.9024128 3.02633222-.24476431 6.38825606.5585952c0 0 6.52083594 1.5454876 7.89673714 1.9189589 1.3759012.3734714 9.0215073 3.1487827 9.0215073 3.1487827s-4.5192676 7.2844908-6.7109858 7.2844908c-2.1917182 0-6.3598983-3.7021117-11.11967436-3.7021119-4.75977604-2e-7-4.49186737 2.7144884-4.98772127 1.8707002-.4958539-.8437882-.28185119-5.7272656-.28185119-5.7272656z" id="path-11"/></g></g><path d="M12.2600349 4.34070416l-.0705222 6.68198314h1.5550671V8.38688204c0-.77876099.40353-1.2579987.7480072-1.2579987.3051078 0 .3936875.30950782.3936875.778761v3.11504296h1.5649092V7.67801002c0-1.05831633-.3936876-1.73723586-1.417276-1.73723586-.4822678 0-.944851.13977739-1.2893279.44928521V3.78420558l-1.4845449.55649858z" id="path3866" fill="#000000" transform="rotate(14 14.320348 7.403446)"/><path id="Rectangle" fill="#000000" transform="rotate(7 16.031887 .783306)" d="M14.5014678.28330586h3.06083777v.9013082H14.5014678z"/></g><g id="Group" transform="rotate(-24 94.92754083 20.17747058)"><g id="Rectangle-Clipped" transform="translate(1)"><mask id="mask-14" fill="white"><use xlink:href="#path-13"/></mask><g id="Rectangle" mask="url(#mask-14)" stroke="#000000" stroke-width="2"><rect x=".16292135" width="20.6741573" height="12.893617" rx="6.4468085" id="path-13"/></g></g><g id="Rectangle-Clipped" transform="translate(0 12)"><mask id="mask-16" fill="white"><use xlink:href="#path-15"/></mask><g id="Rectangle" mask="url(#mask-16)" stroke="#000000" stroke-width="2"><path d="M.49792858 3.3720175C.15156758 2.0032347 1.00833342.893617 2.42637695.893617H20.5736231c1.4114136 0 2.2752164 1.1080091 1.9284483 2.4784005l-.0378507.149582C22.1178597 4.8903823 20.6960975 6 19.2812857 6H3.71871431C2.30718883 6 .88254733 4.8919909.53577928 3.5215995l-.0378507-.149582z" transform="matrix(1 0 0 -1 0 6.893618)" id="path-15"/></g></g><rect id="Rectangle-2" fill="#000000" x="4.00561798" y="14.0425532" width="2.06741573" height="1.0212766" rx=".5106383"/><path d="M2.20268412 14.5292631c.06801861-.2688025.34738151-.4867099.63661796-.4867099h.13600258c.28357579 0 .51345938.2368683.51345938.5106383 0 .2820177-.22208567.5106383-.51313936.5106383h-.39506959c-.28339904 0-.45833365-.2165865-.38998079-.4867099l.01210982-.0478568zM1.81504367 16.3164972c.06801861-.2688025.34546508-.48671.63017008-.48671h3.12080846c.28001472 0 .5070115.2368684.5070115.5106383 0 .2820178-.23620066.5106383-.5039626.5106383H2.18373788c-.27833086 0-.44915689-.2165865-.38080403-.4867099l.01210982-.0478567z" id="Rectangle-2" fill="#000000"/><rect id="Rectangle-2" fill="#000000" x="6.58988764" y="14.0425532" width="2.06741573" height="1.0212766" rx=".5106383"/><rect id="Rectangle-2" fill="#000000" x="6.58988764" y="15.8297872" width="2.06741573" height="1.0212766" rx=".5106383"/><rect id="Rectangle-2" fill="#000000" x="9.1741573" y="14.0425532" width="2.06741573" height="1.0212766" rx=".5106383"/><rect id="Rectangle-2" fill="#000000" x="9.1741573" y="15.8297872" width="4.65168539" height="1.0212766" rx=".5106383"/><rect id="Rectangle-2" fill="#000000" x="11.758427" y="14.0425532" width="2.06741573" height="1.0212766" rx=".5106383"/><rect id="Rectangle-2" fill="#000000" x="16.9269663" y="14.0425532" width="2.06741573" height="1.0212766" rx=".5106383"/><path d="M16.9269663 16.3404255c0-.2820177.2223065-.5106383.5070115-.5106383h3.1208085c.2800147 0 .5618172.2165865.63017.48671l.0121098.0478567c.0680186.2688025-.113042.4867099-.380804.4867099h-3.3853332c-.2783309 0-.5039626-.2368683-.5039626-.5106383z" id="Rectangle-2" fill="#000000"/><rect id="Rectangle-2" fill="#000000" x="14.3426966" y="14.0425532" width="2.06741573" height="1.0212766" rx=".5106383"/><rect id="Rectangle-2" fill="#000000" x="14.3426966" y="15.8297872" width="2.06741573" height="1.0212766" rx=".5106383"/><path d="M19.4887288 14.5531915c0-.2820178.2242229-.5106383.5134594-.5106383h.1360025c.2835758 0 .5682651.2165865.636618.4867099l.0121098.0478568c.0680186.2688024-.0989271.4867099-.3899808.4867099h-.3950696c-.283399 0-.5131393-.2368684-.5131393-.5106383z" id="Rectangle-2" fill="#000000"/></g><path d="M96.968931 6.4717117c.078152-.298094.119748-.6108465.119748-.9332502 0-2.0392052-1.664091-3.6923077-3.716852-3.6923077-.976845 0-1.865675.3743472-2.5290498.9865082C90.197375 1.1753581 88.5776067 0 86.681494 0c-2.4633128 0-4.4602223 1.983723-4.4602223 4.4307692 0 .4236128.0598428.8333408.1715885 1.2212966C80.4070469 6.4212451 79 8.3396986 79 10.5846154c0 2.9228608 2.3851975 5.2923077 5.3274878 5.2923077 1.0037476 0 1.9426608-.275756 2.7441594-.7551671.7361711.5513572 1.6522955.878244 2.6452759.878244 1.1296327 0 2.1598002-.4230489 2.9387149-1.1183614.815491.6241141 1.837262.9952845 2.946301.9952845 2.668588 0 4.831907-2.1490332 4.831907-4.8 0-2.1793328-1.462039-4.0194429-3.464915-4.6052114z" id="Combined-Shape" stroke="#000000"/><g id="Group" transform="translate(59 248)" stroke="#000000"><path d="M0 18.8961747S3.41246968 7.04243674 3.52991045 6.86414804C3.64751432 6.68585934 7.13000011 6.5 7.13000011 6.5L3.73710389 18.6857107 3 18.8961747H0z" id="Shape"/><path d="M13.267496 4.26519385C19.8923055 5.65894966 24.8795299.07648197 24.9300009.00165875c.0503472-.07494938-.7127787 2.41490969-.7127787 2.41490969s1.4008167-.0480736 2.4673871-.61322227c1.0670651-.56489632-3.4717347 7.01331966-9.3470255 8.38903213-3.1155927.8328971-5.9962728.6520849-8.27006414.0353296-.78032077-.1726107-3.3219299-.86393677-5.27013404.2368351l1.01201715-5.1539692s1.8326652-2.43863104 8.45809323-1.04537995z" id="Shape" stroke-width="3" fill="#000000"/><path d="M6.30975048 7.72961607c-.29305325 1.35098166.55010882.98052475.70251135.41840433.10217897-.32099536.20101795-.65322052.20101795-.65322052l.84118282.1598668s-.00333999.3766396-.01063849.68855019c-.11009599.82759771.59983757.6030019.6931099-.01854808.04205914-.31645297.23182008-1.63412379.23788155-2.32015044.09809676-.46029524-.55864435-.73132434-.70510913-.00290208-.09772565.2838992-.23268601.86772213-.23268601.86772213s-.69372841-.1302151-.7043669-.15292703c-.03154436-.06813581.01546292-.2498313-.01546292-.4163855-.23738674-1.10443097-.87804642-.89030789-.88188122-.39960389-.00272147.36780718-.00643257 1.00109167-.1255589 1.82919409zM9.96863211 6.27323023c.09488049-.45688844.31433019-.58180409.48256679-.60590398.0738509-.0105989.2074505.10813405.3191547.24112506.483309.90128532.4657431 2.77451533.4246736 2.90914664-.1562374.51366829-.6552567.55694714-.5974872.01943133.010391-.31266766.0428013-.61158197.0428013-.61158197l-.6334849.08378181c-.25049925 1.08033109-.77561999.79277274-.6282893.31708386.14448552-.5392823.46487721-1.74982849.59006501-2.35308275zm.10786929 1.28839766l.6332375-.05450864s-.0953753-1.1406439-.2550763-.96815936l-.3781612 1.022668zM13.2694182 6.22115479c.021277-.25550928-.2669518-.72968404-.8426672-.48767574-.8582539.22623612-.7846504 1.81821665-.7846504 1.81821665 0-.00012618.0424302.76905139.3812537 1.21004148.3234843.43304091.8119888.30497083.9097145.29222691.5209148-.30938704.2340467-.64678547.1385477-.62987769-.1212292.02132398-.284394.08643153-.4392706.01400569-.2757347-.12882714-.3505753-.60237101-.3525545-.86709124.0089066-.45474343.0630887-1.36536589.5163378-1.26707368.3223709.24465803.4605476.06586462.473289-.08277238zM13.8434626 6.22960739c-.0343895.50988297.2700444.94633067.1125701 1.92445805-.039214.24339624-.158464.69473288-.1746692.75971425-.1120752.45373402.3670279.57839731.6702248-.2374659.0702635-.19204204.0982205-.62899445.0982205-.62899445l.1984201-.07835618s.3665331.7505033.4907313 1.06834423c.1241981.31758857.7391275.35481091.5888279-.29437192-.0716242-.20983306-.2241505-.4946155-.452012-.83895369 0 0-.1640307-.24932658-.2654674-.26749613 0 0 .4862778-.80526431.4882571-1.07717665.0022267-.2721647-.1625462-.43064355-.5592629.12579889-.3962218.55656861-.4193543.70924329-.4193543.70924329s-.0084119-.56729369-.1261775-.96689759c-.0639546-.4219373-.6113419-.60893224-.6503085-.1978462zM16.5192304 6.12985534c-.1599484.26383699-.1984201.69460671-.0340184 1.28978561.244809.88791052.742715 1.29357093 1.3426762 1.03263602.5999613-.26118726.3437717-.67568009.2881052-.68072719-.0551717-.00529945-.0778095-.04668565-.3071555.11658794-.2295934.16352594-.4580735.10232989-.7140157-.24995748-.1726899-.23721355-.358245-.75012477-.2354075-1.07982638.0324103-.09766132.083376-.14409461.107993-.16945627.0964886-.09791368.2308305-.06775728.2605193-.0480736.3839752.15582912.3886759-.12920568.2042342-.32591628-.3118562-.26421552-.6265575-.25185014-.9129308.11494763zM18.0282738 6.05978428c-.0838709-.33739843.1923587-.69864439.5076785.03444644.2679415.45474343.7093151 1.33079327.7409831 1.46908372 0 0 .2241505.04984009.7420965-.21046394 0 0 .2427059-.08731477.2274904.07810383-.0149681.1654186-.1427536.21399691-.1719476.23557325-.0288229.02145016-1.2108085.59416948-1.280206.42446084-.0693976-.16996098-.0441621-.26421552-.2529734-.79983868-.3143302-.66180058-.4290032-.89396703-.5131215-1.23136546zM19.5035479 5.49635163c-.0872109-.23834915.1285278-.45335548.3336279-.22863349.1611855.17702692.5122556 1.0366737.7811867 1.36107585.1364448.12289681.3503279.09539014.4052522-.06561226.056285-.24566744-.1428774-.74192324-.3254635-1.1450601-.1004471-.1900232-.1524025-.34282406-.1693499-.45966435-.0545532-.38711233.2780851-.38105582.5117608-.02927316.2166046.40111802.4688357 1.0902991.4697016 1.34492514.0006185.25449986.0118755.56552721-.277714.72249192-.0747168.04050295-.7086965.30825144-1.1135776-.37070927-.4042626-.67858217-.5282133-.89106495-.6154242-1.12954028zM21.2670651 4.15643357c.3474827-.34698791.6258153-.51291122.8925197-.48717103.1640307.04605476.3049288.26636054.3221236.47480564-.0039585.18762583-.0406984.34888058-.0406984.34888058.2445615-.0374747.3728419.16011915.3728419.16011915.5409547.73220758.1370633.99049276-.3766767 1.31375932-.1695973.09501159-.3735842.14724905-.3947375.08302474-.0405747-.1212565-.8768093-1.529018-.8768093-1.529018-.0420592-.07015465-.1191264-.16276888.1014367-.3644004zm.231449.22951673l.316928.43405033s.4506513-.32503303.3249687-.58445381c-.1250641-.25916843-.3974589-.01867426-.6418967.15040348zm.4875149.7773791s.2814251.56022776.2725185.52628603c-.0086592-.03394173.6020642-.38017257.3563894-.71681394-.2457986-.33664136-.6289079.19052791-.6289079.19052791z" id="Shape" stroke-width=".25" fill="#000000"/></g><g id="Group-4" transform="rotate(29 -219.40403955 492.3380926)" stroke="#000000"><path d="M4.23349469 2.79432849c3.61140001 0 6.53901701 3.71256064 6.53901701 8.29223811 0 0 .5390292 1.0947127 1.4617833 1.8525704.3241782.2662475 1.861067-.0405247 2.1071802.161608.4919238.4040169.9126115 1.2730595.9126115 1.2730595 0 .3024739-2.548841 1.8714903-4.2200143.8643011-1.76499114-1.0637317-2.82458834-4.4509048-2.87716751-4.151539-.29281491 1.6671769-7.5348102-8.29223811-3.9234102-8.29223811z" id="Fill-3" fill="#000000" transform="rotate(-34 9.240348 9.182797)"/><path d="M12.8822299 6.19017126c-.2897341-.53857701 1.8787603-2.61034424 2.9447106-2.68266783 3.4479055-.23393673 7.337829 2.20732397 7.337829 5.70550734 0 0 .0942221.18652285 1.040882.96401433.2913413.2392786 2.4239171.2454097 2.75378.5163261.2271038.1865203.5210892 2.064185.5210892 2.064185 0 .3024739-2.3830172 1.6142027-4.0541906.6070135-1.7649911-1.0637317-2.8245883-4.45090475-2.8771674-4.1515389-.2928149 1.6671768-6.3622618-.59763119-7.6669328-3.02283954z" id="Fill-3" transform="rotate(146 20.16818 8.61538)"/><path d="M12.6160902 10.0086207l1.6309775-1.24137932M14.6177444 11.6049129l1.5372084-1.3576906" id="Line"/></g><g id="Group-6" transform="rotate(-34 128.56278928 -199.05340437)" stroke="#000000"><path d="M11.0553471 7.69926486l.3289902.74229358H9.63162651l.32309752-.72899803c-1.43814321-.25343489-2.53303728-1.57433978-2.53303728-3.6058563C7.42168675 1.83863406 8.78640914 0 10.4698795 0c1.6834704 0 3.0481928 1.83863406 3.0481928 4.10670411 0 1.9982776-1.0593587 3.30900687-2.4627252 3.59256075z" id="Combined-Shape"/><path d="M4.52445107 13.5876935l.32899022.7422936H3.10073044l.32309753-.728998C1.98568476 13.3475542.89079069 12.0266493.89079069 9.99513274c0-2.26807005 1.36472238-4.1067041 3.04819276-4.1067041 1.68347039 0 3.04819277 1.83863405 3.04819277 4.1067041 0 1.99827766-1.05935868 3.30900686-2.46272515 3.59256076z" id="Combined-Shape" transform="rotate(-13 3.938983 10.109208)"/><path d="M18.4770338 10.6955981l.3289902.7422936h-1.7527108l.3230975-.7289981c-1.4381432-.2534348-2.5330373-1.57433969-2.5330373-3.60585621 0-2.26807005 1.3647224-4.1067041 3.0481928-4.1067041 1.6834703 0 3.0481927 1.83863405 3.0481927 4.1067041 0 1.99827761-1.0593586 3.30900681-2.4627251 3.59256071z" id="Combined-Shape" transform="rotate(15 17.891566 7.217113)"/><path d="M5.0358412 14.0581498c.00908575.7021679.55905729 2.0912301 1.71301895 3.3444477.98114342 1.0655346 2.58392934 2.0096288 2.69096347 2.5974026" id="Path-6"/><path d="M10.4652163 8.31385301c-.06192.34324363-.6127812 3.00088339-.4307954 3.76406909.2862295 1.2003485 2.0504277 1.4359469 2.5985803 2.4675327.5481526 1.0315858.1245028 1.8665591-.1385931 2.8571423" id="Path-9"/><path d="M16.8271653 11.099499c-.0325526 2.2472506.8181097 5.7093814-1.6451695 7.0434956" id="Path-11"/></g><g id="Group-7" transform="translate(94 157)"><path d="M.70533115 7.37369215c0-3.60309062 3.15786474-4.22464684 7.05328916-4.22464684 3.89542559 0 7.05329389.62155622 7.05329389 4.22464684l-.0000237 3.05873165c0 3.6030906-3.1578647 6.523974-7.05328915 6.523974-3.89540546-.0000184-7.0532702-2.9208998-7.0532702-6.5239926V7.37369215z" id="Fill-3" stroke="#000000"/><ellipse id="Combined-Shape" fill="#000000" cx="5.17241579" cy="11.1427757" rx=".82288401" ry=".84781989"/><ellipse id="Combined-Shape" fill="#000000" cx="10.1097199" cy="11.1427757" rx=".82288401" ry=".84781989"/><path d="M14.8119142 7.78177543V5.1352988c0-1.47833905-1.1756885-2.67675486-2.6259787-2.67675486H3.95627633L3.9458493 0C2.54388364.0018124 1.24787835.74556892.54023925 1.95441147c-.72655057 1.24113155-.71983337 2.7787018.01753926 4.0134562.53850299.90173087 1.40548795 1.53911187 2.39660889 1.79721963l1.02458609.04696742h9.65739011v1.75619834h1.1755506V7.78177543z" id="Combined-Shape" stroke="#000000" fill="#000000"/><path d="M5.73830559 13.5651183h4.04063429c.20721192 0 .01328851.4211218.01328851.4211218-.44072442.7689625-1.18707309 1.274518-2.03360566 1.274518-.84652428 0-1.59288092-.5055555-2.03360586-1.274518 0 0-.1939233-.4211218.01328872-.4211218z" id="Fill-3" fill="#000000"/></g><g id="Face" transform="translate(255 252)"><g id="Group-8"><path d="M8.32586515 1.6531152h.22392726c3.61717679 0 6.54947609 2.96050356 6.54947609 6.61246647-.0000111 3.65195163-2.9323139 6.61245513-6.54949064 6.61245513l-.22391271-.0000113c-3.61717788 0-6.54948061-2.9605035-6.54948061-6.61246644 0-3.6519403 2.93230273-6.61244386 6.54948061-6.61244386z" id="Fill-5" stroke="#000000"/><path d="M6.10149194 11.0680349c.12288312 0 1.28553775 1.1479166 2.42154047 1.1479166 1.07922106 0 2.13438799-1.1479166 2.25112889-1.1479166.2396239 0 .015367.4691947.015367.4691947-.5096624.8567429-1.37275472 1.4200098-2.3517017 1.4200098-.9789374 0-1.84203897-.5632669-2.35170199-1.4200098 0 0-.22425674-.4691947.01536733-.4691947z" id="Fill-3" fill="#000000"/><path d="M6.10632184 10.2493143c.42921816 0 .77716823-.34539165.77716823-.7714538s-.34795007-.77145376-.77716823-.77145376-.77716823.34539161-.77716823.77145376.34795007.7714538.77716823.7714538z" id="Oval" fill="#000000"/><ellipse id="Oval" fill="#000000" cx="10.7693312" cy="9.4778605" rx=".77716823" ry=".77145376"/><path d="M14.956 4.78547507c.8459077.37427676 1.5973614 1.35034907 1.5973614 2.17485849 0 .26106216-.0545239.50976122-.1531021.73596909l-.324823.46753184.3909711.25582619c.3214479.31194835.5202697.74290557.5202697 1.21893993 0 .47603439-.1988218.90701029-.5202697 1.21897849l-.4479598.2930885.0159209.0031343c.3988871.1636838.6787787.5469651.6787787.993725s-.4349922 1.1738816-.4349922 1.1738816c.1700333.1649842.2751953.3929884.2751953.644764 0 .5035895-.42067.9118645-.9395964.9118645-.5189374 0-.9396075-.408275-.9396075-.9118645 0-.2517756.105162-.4797798.2751953-.644764 0 0-.4589067-.7271217-.4589067-1.1738816 0-.2978274.0285109-.9205394.0285109-.9205394-.0309968-.0127223-.061544-.0262743-.091612-.0406273.2151123-.4403996.3830951-.9084725.4973003-1.3975063.1142052-.48903385.1746327-.99902868.1746343-1.52327223 0-.04676656-.0004808-.09341972-.0014378-.13995473-.8983387-.05356395-2.6573913-.1825053-3.5513308-.41108928-1.5928366-.40729479-4.36709414-1.72625678-4.36709414-1.72625678S3.56550242 8.62121951 2.02164995 8.89499853l-.21442132.01643156c.07841972.81675613.30401318 1.59002321.6496714 2.29243141a1.72441187 1.72441187 0 0 1-.05244588.023126s.02777156.622712.02777156.9205394c0 .4467599-.44714264 1.1738816-.44714264 1.1738816.16567451.1649842.26814303.3929884.26814303.644764 0 .5035895-.40988408.9118645-.91551195.9118645-.50562877 0-.91551296-.408275-.91551296-.9118645 0-.2517756.10246864-.4797798.26814325-.644764 0 0-.42383191-.7271217-.42383191-1.1738816 0-.4467599.27270933-.8300412.66136506-.993725l.01552093-.0031343-.4364751-.2930885C.1937235 10.5456109 0 10.114635 0 9.63860061c0-.47603436.1937235-.90699158.50692341-1.21893993l.38095277-.25582619-.3164901-.46753184C.4753253 7.47009478.42220119 7.22139572.42220119 6.96033356c0-.80365708.70067789-1.75130778 1.50144853-2.14531888.15477124-.40437805.34634158-.80658842.57543799-1.20047829C3.79493913 1.38656691 5.92337422.05759453 7.84712428.07135947l.88047943-.06929859C11.7302914.19019366 14.3017218 2.09402052 14.956 4.78547507z" id="Combined-Shape" stroke="#000000" fill="#000000"/></g></g><path d="M248.889729 90.4712469c-3.929735 0-5.501628 2.694675-5.501628 5.38935s.785947 4.7156811 3.929734 8.0840251c3.143788 3.368343 7.073522 5.38935 7.073522 5.38935s3.929734-2.021007 7.073522-5.38935c3.143787-3.368344 3.929734-5.3893501 3.929734-8.0840251s-1.571894-5.38935-5.501628-5.38935c-3.925407 0-5.501628 2.694675-5.501628 2.694675s-1.571894-2.694675-5.501628-2.694675z" id="Shape" stroke="#000000" transform="rotate(-33 254.391357 99.902609)"/><path d="M242.041258 21.8219056l-5.98617-3.7020854v-1.3245994l5.98617-3.6851033v1.9104799l-4.135127 2.4369231 4.135127 2.4539052v1.9104799zm7.845704-10.6392499l-4.627607 12.4138733h-2.173701l4.627607-12.4138733h2.173701zm1.001941 8.72877l4.1606-2.4539052-4.1606-2.4369231v-1.9104799l5.98617 3.6851033v1.3245994l-5.98617 3.7020854v-1.9104799z" id="&lt;/&gt;" fill="#000000" transform="rotate(39 246.46508 17.389592)"/></g></g></g></g></svg>